<?xml version="1.0" encoding="UTF-8" standalone="no"?>
<svg
   xmlns:dc="http://purl.org/dc/elements/1.1/"
   xmlns:cc="http://creativecommons.org/ns#"
   xmlns:rdf="http://www.w3.org/1999/02/22-rdf-syntax-ns#"
   xmlns:svg="http://www.w3.org/2000/svg"
   xmlns="http://www.w3.org/2000/svg"
   xmlns:sodipodi="http://sodipodi.sourceforge.net/DTD/sodipodi-0.dtd"
   xmlns:inkscape="http://www.inkscape.org/namespaces/inkscape"
   sodipodi:docname="draft.svg"
   inkscape:version="1.0 (4035a4fb49, 2020-05-01)"
   id="svg8"
   version="1.1"
   viewBox="0 0 1200 2000"
   height="2000mm"
   width="1200mm"
   inkscape:export-filename="D:\Art\Characters\corendis\draft.png"
   inkscape:export-xdpi="96"
   inkscape:export-ydpi="96">
  <defs
     id="defs2" />
  <sodipodi:namedview
     inkscape:window-maximized="1"
     inkscape:window-y="-8"
     inkscape:window-x="1912"
     inkscape:window-height="1017"
     inkscape:window-width="1920"
     showgrid="false"
     inkscape:document-rotation="0"
     inkscape:current-layer="layer1"
     inkscape:document-units="mm"
     inkscape:cy="3174.1751"
     inkscape:cx="2044.0898"
     inkscape:zoom="0.175"
     inkscape:pageshadow="2"
     inkscape:pageopacity="0.0"
     borderopacity="1.0"
     bordercolor="#666666"
     pagecolor="#ffffff"
     id="base"
     inkscape:snap-global="false" />
  <metadata
     id="metadata5">
    <rdf:RDF>
      <cc:Work
         rdf:about="">
        <dc:format>image/svg+xml</dc:format>
        <dc:type
           rdf:resource="http://purl.org/dc/dcmitype/StillImage" />
        <dc:title />
      </cc:Work>
    </rdf:RDF>
  </metadata>
  <g
     inkscape:groupmode="layer"
     id="layer9"
     inkscape:label="hair-back outline"
     sodipodi:insensitive="true">
    <path
       sodipodi:nodetypes="cccsccsccccccccccsccccsccc"
       id="path935-8"
       d="m 680.86574,813.6007 c -41.61107,-10.87706 -219.744,154.22862 -322.67118,91.16163 86.33937,-2.70272 82.1091,-25.64463 101.1372,-43.44321 -29.84619,29.711 -95.30962,-16.48877 -171.25941,17.38951 -53.88076,24.03415 -91.49739,40.73079 -191.196163,-8.33746 112.844223,16.86286 112.553243,-33.63909 172.985893,-53.44368 -27.77397,1.91021 -32.45213,4.77887 -54.15871,7.39824 -20.48056,2.47143 -46.70206,-0.26554 -64.74047,-51.25216 20.60499,22.66725 64.56783,18.51912 64.56783,18.51912 0,0 -15.03277,-1.33752 -33.41107,-18.44012 61.03262,3.13692 153.03015,-1.84658 126.63968,-61.31622 63.71027,-28.53376 187.63043,-44.73741 187.63043,-44.73741 l 283.06328,18.56151 41.51408,-0.19317 c 0,0 125.7939,44.00409 119.20762,-41.77113 13.88448,17.28127 17.25671,39.58195 9.18534,50.15872 8.77292,-5.39717 -0.0621,-21.52283 3.34495,-32.0635 15.04772,39.34344 10.42964,58.26063 -6.66525,61.77776 -7.79533,1.60381 -9.1749,0.1455 -15.46375,7.42045 28.02145,-4.97092 36.28098,17.23019 71.37686,-21.05581 6.3948,23.26421 -64.70545,72.23375 -86.99807,80.721 43.15622,-18.19495 35.35169,-39.73594 85.43537,-30.23596 -34.88384,4.83779 -73.62468,40.82122 -107.02822,63.77268 -12.39809,8.51869 -27.29137,10.52813 -27.29137,10.52813 22.19775,10.31971 14.61586,17.87492 45.36575,9.66163 -55.68041,58.15711 -162.13194,-6.65737 -230.57062,-30.78055 z"
       style="fill:#000000;fill-opacity:1;stroke:none;stroke-width:4.33102;stroke-opacity:1" />
  </g>
  <g
     inkscape:groupmode="layer"
     id="layer5"
     inkscape:label="hair-back"
     sodipodi:insensitive="true">
    <path
       style="fill:#8d0d13;fill-opacity:1;stroke:none;stroke-width:4.23333;stroke-opacity:1"
       d="m 679.03404,811.96497 c -40.67247,-10.63172 -220.64621,140.34187 -302.77925,96.06159 84.13067,0.23189 72.86806,-34.37354 100.34917,-62.74279 -37.53272,44.19282 -116.68786,-7.59642 -190.92455,25.51771 -52.66544,23.49204 -75.20974,40.55098 -166.74852,5.15082 106.68999,17.89171 107.47634,-52.68428 172.65723,-62.04179 -28.81003,-5.33717 -41.0198,0.0661 -62.23677,2.62637 -20.01861,2.41568 -48.80756,9.83151 -71.66391,-34.78025 20.14022,22.15598 70.42619,10.91728 70.42619,10.91728 0,0 -14.95493,-3.39728 -34.878,-15.5424 56.39047,3.19679 147.88037,-6.50726 122.08516,-64.63552 62.27324,-27.89016 183.39827,-43.72833 183.39827,-43.72833 l 276.67857,18.14285 40.57775,-0.18883 c 0,0 136.80223,46.66893 125.40098,-38.47776 13.57129,16.89147 8.76897,39.21162 0.35723,46.93741 8.31371,-3.70799 11.69508,-12.9389 12.15162,-23.24181 8.961,38.45602 2.61845,47.01936 -14.09085,50.45715 -7.61949,1.56764 -16.2827,4.84455 -22.42966,11.95541 27.38937,-4.8588 47.4905,18.14008 81.79482,-19.28235 0.70881,16.27407 -77.83932,78.17821 -99.62904,86.47402 42.18275,-17.78455 58.56855,-46.59813 90.89729,-40.08332 -29.84832,1.03417 -74.18077,41.93245 -107.56969,63.25788 -12.39152,7.91445 -31.10926,7.33505 -31.10926,7.33505 25.57638,7.68551 21.67523,26.708 49.51486,17.38689 -40.5701,39.11171 -155.33464,-13.89622 -222.22964,-37.47528 z"
       id="path935"
       sodipodi:nodetypes="cccsccsccccccccccsccccsccc" />
  </g>
  <g
     inkscape:groupmode="layer"
     id="layer10"
     inkscape:label="body-flames 2"
     style="display:none"
     sodipodi:insensitive="true">
    <path
       style="fill:#b9121a;fill-opacity:1;stroke:none;stroke-width:4.23333;stroke-opacity:1"
       d="m 329.92455,1453.2309 c -17.29089,29.2663 -46.10606,-177.8984 -95.3851,-194.6332 50.78856,-14.4197 91.4553,83.3344 91.4553,83.3344 0,0 -94.60122,-144.3991 -47.03023,-173.6853 -3.66143,39.0858 4.9495,56.4751 25.42236,53.5334 17.26744,-2.4811 21.773,2.3315 30.53655,7.5668 -2.09385,-9.18 -23.20717,-28.573 -23.0087,-48.9484 0.10836,-11.1251 -9.72156,-36.8904 -39.22725,-37.4796 20.08801,-10.7535 79.61792,21.3356 57.33283,7.3187 -33.1071,-20.8238 -34.533,-50.0708 -51.68767,-55.2402 14.9733,-1.9566 24.18535,9.1741 26.47901,12.2304 -8.64185,-19.7786 -23.03469,-36.7027 -47.14404,-22.9503 6.42808,-35.0123 51.12443,-20.4149 65.00283,8.1565 10.24652,21.0945 29.6494,-4.9462 54.75115,28.0875 -7.51837,-21.0338 -4.54328,-47.0088 -38.04299,-65.9456 -29.63732,-16.7536 -53.76212,-63.70991 -46.81805,-90.80212 2.31449,7.39435 5.72173,35.5028 23.53149,47.72832 -7.58083,-9.2896 -9.84631,-22.83589 -9.38917,-31.9337 5.68745,25.0492 25.51188,42.759 47.99854,48.7736 43.48238,11.6304 49.05802,29.2615 49.05802,29.2615 0,0 3.44636,-27.3973 -25.75129,-50.1048 -26.71753,-20.77875 -2.63795,-64.64214 -59.23675,-107.56242 21.29566,5.29972 35.3735,9.03278 50.11501,18.92734 23.98388,16.09809 23.72005,50.64125 34.24342,42.50828 4.46304,-3.44925 -6.60023,-25.75131 25.81547,-39.56227 -21.4391,35.09936 16.25435,40.33637 16.25435,40.33637 0,0 -14.24885,-20.22801 0.39506,-33.74283 17.89814,-16.51815 25.86742,-19.97806 14.44646,-44.77298 25.19687,9.00172 19.83863,29.8085 23.48221,41.96481 3.37197,11.25011 16.59293,-58.40541 39.56614,-71.69531 -13.14861,36.13332 -0.70483,24.08836 5.54829,45.66629 -2.07827,-25.94356 36.5683,-24.15389 18.00712,-79.73183 52.65508,53.73793 35.34069,137.00126 35.34069,137.00126 l -46.22372,54.78489 c 0,0 36.90277,41.8996 -37.40382,131.7586 -21.86022,26.4355 -49.4253,45.409 -69.49008,73.2319 -74.58902,103.4291 -64.92674,179.0438 -98.94344,236.62 z"
       id="path970"
       sodipodi:nodetypes="scccscscscccscscccscscssccscscccccsss" />
  </g>
  <g
     inkscape:groupmode="layer"
     id="layer11"
     inkscape:label="body-flames 3"
     style="display:none"
     sodipodi:insensitive="true">
    <path
       style="fill:#e99900;fill-opacity:1;stroke:none;stroke-width:4.23333;stroke-opacity:1"
       d="m 328.39819,1447.6524 c -12.22981,19.8071 -16.74977,-111.3852 -51.79385,-157.4438 20.24281,7.8397 25.6446,25.1222 35.62703,30.2594 -1.37435,-6.9947 0.5802,-21.2445 1.44875,-27.8807 0.918,-7.0138 -3.46689,-18.8392 -9.38448,-25.1836 4.4391,10.8945 1.79966,12.7037 4.37369,23.0185 -12.26533,-17.3549 -13.68469,-41.8698 -25.86266,-64.671 10.65072,2.5055 16.7996,16.101 32.35455,13.5845 14.92456,-2.4144 20.99044,-4.9597 24.00931,-4.7674 2.79889,-8.7721 4.45526,-15.6824 -3.66985,-30.5667 -6.78634,-12.4318 -6.70338,-28.668 -15.57223,-39.3822 12.45335,-2.114 40.97569,-0.071 40.97569,-0.071 0,0 -1.44835,-11.724 -9.59417,-13.6382 -5.97101,-1.4032 -27.03351,-4.8592 -32.72457,-34.3402 12.90775,20.9101 24.96772,19.9945 24.96772,19.9945 0,0 -6.8701,-2.7321 -13.42545,-10.8594 -9.41681,-11.675 -9.3723,-17.6392 -20.57293,-28.404 17.281,3.7944 22.48322,20.5921 39.50199,25.015 12.80388,3.3276 22.8307,5.739 34.35138,16.1811 7.4228,-32.8957 2.34152,-30.2011 -4.55011,-55.6302 -9.18685,-33.8979 -41.20471,-27.3921 -51.77153,-53.6326 25.10949,22.9924 33.76208,8.1426 50.23873,34.7801 -2.13868,-6.152 -0.38176,-14.0356 -23.01154,-25.0468 32.93272,5.3364 45.08342,32.5078 51.04228,34.6347 5.95885,2.1268 11.68815,-0.5224 14.78386,-5.326 2.67006,-4.1431 -0.77787,-3.7767 -2.4764,-26.7512 -1.62753,-22.0143 -35.12275,-49.46087 -37.29348,-71.06763 20.90148,27.97831 46.9811,43.23383 46.9811,43.23383 0,0 -1.98723,-8.6962 0.7493,-14.23684 3.1204,-6.31784 6.07104,-15.88107 -4.6411,-23.51631 17.86835,-5.20747 47.64858,12.48665 47.64858,12.48665 0,0 -21.85573,-35.98446 -8.02929,-55.11963 3.1498,21.26627 33.67593,9.62168 33.67593,9.62168 0,0 18.39858,-5.89844 11.22535,-35.0123 15.42294,4.38773 21.11429,28.73148 21.11429,28.73148 0,0 2.26338,-2.35754 5.58417,-6.44539 3.32078,-4.08786 -3.52635,-23.40314 14.20037,-44.75698 -2.71941,21.14202 2.43069,15.38942 4.08807,26.53345 1.52374,-18.25561 11.04735,-18.67915 7.58689,-48.35102 16.57586,28.65362 -2.71163,83.04812 -2.71163,83.04812 0,0 -32.84973,154.44459 -65.73145,187.25819 -148.54403,148.236 -150.44049,292.2253 -163.71231,313.72 z"
       id="path973"
       sodipodi:nodetypes="sccscccscsccsccscscscccsssccsccccccsccccsss" />
  </g>
  <g
     inkscape:groupmode="layer"
     id="layer13"
     inkscape:label="body-flames 5"
     style="display:none"
     sodipodi:insensitive="true" />
  <g
     inkscape:groupmode="layer"
     id="layer14"
     inkscape:label="body-outline"
     sodipodi:insensitive="true">
    <path
       sodipodi:nodetypes="ccssccscsccsssccc"
       id="path876-9"
       d="m 709.20605,847.49013 c 0,0 1.21228,19.05166 0.97525,38.19458 41.97645,2.57213 47.4939,-13.12929 81.20658,-3.69528 45.5745,12.75325 66.84355,61.6102 152.01769,107.09886 99.53243,53.15711 186.18993,134.73081 196.60453,318.14861 -53.6966,-213.5006 -204.88349,-214.5709 -306.70033,-279.5078 -13.22989,60.916 48.19713,88.6037 -4.50689,174.8287 -16.64361,27.2293 -86.60759,159.284 -96.74499,297.2255 -23.20816,-127.0997 -37.02941,-194.4742 -93.95159,-248.2028 -48.91317,-46.169 -93.28643,-114.8404 -106.11191,-172.2215 -66.04827,151.3009 -148.40444,86.579 -205.18437,384.2445 -39.63669,-144.8342 25.26636,-276.1908 61.08416,-336.278 56.91331,-95.4767 46.42162,-146.07606 78.38328,-177.04461 41.60776,-40.31491 66.48601,-30.67726 96.23408,-46.50778 27.2139,-14.48189 26.73287,-87.27662 26.73287,-87.27662 26.94162,-0.98806 78.56648,9.44962 110.47358,26.98469 z"
       style="fill:#000000;fill-opacity:1;stroke:none;stroke-width:4.40091;stroke-opacity:1" />
  </g>
  <g
     inkscape:groupmode="layer"
     id="layer4"
     inkscape:label="body"
     sodipodi:insensitive="true">
    <path
       style="fill:#ffca06;fill-opacity:1;stroke:none;stroke-width:4.23333;stroke-opacity:1"
       d="m 703.08651,852.05522 c 0,0 -0.11923,23.49185 2.47815,38.06432 40.33708,2.47666 52.31667,-12.51353 84.71275,-3.42958 43.79457,12.28013 61.69044,56.84993 143.53812,100.651 95.64517,51.18484 189.16577,134.78014 201.22827,294.40774 -44.4082,-184.4766 -210.29933,-198.8897 -305.57142,-261.932 -12.41228,63.8654 42.13749,96.3048 -7.09372,180.1807 -15.99355,27.2485 -81.00715,150.6349 -90.74862,283.4587 -22.30179,-122.3842 -31.89412,-178.8578 -86.59325,-230.5931 -47.00287,-44.4561 -99.40275,-128.5944 -111.72734,-183.8466 -61.41412,151.8639 -152.33791,91.1606 -206.90032,377.7824 -36.5477,-138.9459 38.63192,-270.9067 73.05087,-328.7647 54.69058,-91.9344 40.06311,-136.05753 70.77652,-165.87713 39.98278,-38.81921 67.88477,-28.08327 96.47105,-43.32643 26.15106,-13.94462 29.32097,-92.40961 29.32097,-92.40961 25.88941,-0.95138 76.39701,18.74983 107.05797,35.63432 z"
       id="path876"
       sodipodi:nodetypes="ccssccscsccsssccc" />
  </g>
  <g
     id="layer1"
     inkscape:groupmode="layer"
     inkscape:label="ruby"
     style="display:inline"
     sodipodi:insensitive="true">
    <path
       style="fill:#000000;fill-opacity:1;stroke:none;stroke-width:4.23333;stroke-opacity:1"
       d="m 673.15234,933.30517 c 0,0 62.28678,34.22324 81.5172,106.10603 19.23041,71.8827 -18.97614,150.2054 -18.97614,150.2054 0,0 -82.7171,-38.9232 -93.00979,-114.3914 -10.29268,-75.46818 30.46873,-141.92003 30.46873,-141.92003 z"
       id="path922"
       sodipodi:nodetypes="czczc" />
    <path
       style="fill:#8c0e12;fill-opacity:1;stroke:none;stroke-width:1.86983;stroke-opacity:1"
       d="m 674.92545,938.59306 c 0,0 -38.71664,60.47201 -26.99777,135.11574 11.71886,74.6438 86.48428,109.5128 86.48428,109.5128 0,0 33.77674,-60.569 19.94124,-133.6688 -13.83551,-73.09964 -79.42775,-110.95974 -79.42775,-110.95974 z"
       id="path847"
       sodipodi:nodetypes="czczc" />
    <path
       style="fill:#000000;fill-opacity:1;stroke:none;stroke-width:4.23333;stroke-opacity:1"
       d="m 690.52485,970.99016 32.87416,26.99422 21.11428,46.50492 4.27633,51.0485 -18.17434,49.9794 -44.09948,-35.8142 -20.57974,-45.703 2.67269,-52.6522 z"
       id="path924" />
    <path
       style="fill:#da161c;fill-opacity:1;stroke:none;stroke-width:1.82425;stroke-opacity:1"
       d="m 691.11776,973.94757 30.66789,25.57056 20.39317,44.94877 4.75076,50.0777 -16.46572,48.1329 -42.27921,-35.0505 -18.97087,-44.3385 2.75679,-50.7779 z"
       id="path845"
       sodipodi:nodetypes="ccccccccc" />
    <path
       style="fill:#faccce;fill-opacity:1;stroke:none;stroke-width:1.86983;stroke-opacity:1"
       d="m 684.64693,1092.2636 5.10251,12.9468 39.61951,33.3403 15.41818,-44.388 -4.66967,-49.375 z"
       id="path849" />
    <path
       style="fill:#5a080a;fill-opacity:1;stroke:none;stroke-width:1.86983;stroke-opacity:1"
       d="m 730.43096,1145.7786 3.64067,35.4352 c -27.96697,-15.6544 -46.49482,-33.7198 -61.70407,-52.7179 l 14.84998,-18.7828 z"
       id="path851"
       sodipodi:nodetypes="ccccc" />
  </g>
  <g
     style="display:none"
     inkscape:groupmode="layer"
     id="layer15"
     inkscape:label="body-flames-6">
    <path
       style="fill:#b9121a;fill-opacity:1;stroke:none;stroke-width:4.23333;stroke-opacity:1"
       d="m 497.79462,1128.259 c -10.22506,3.5833 -26.55399,14.3131 -34.77381,-6.2367 -16.31747,-40.7941 -6.89924,-85.9088 -42.45908,-130.17532 31.4065,5.49756 52.38913,32.46692 66.06334,48.24612 -9.8392,-19.8274 -13.15502,-28.2208 -9.43749,-50.38366 3.47964,-20.74456 -34.33118,-44.28874 -14.71173,-70.02159 -3.88648,25.26304 17.19635,29.61959 28.02739,39.48821 14.5239,13.23333 15.11224,28.50638 17.30885,38.65173 -8.78122,-39.15044 5.17392,-19.10875 11.45229,-50.74876 6.98617,22.84755 -9.11695,25.19099 -1.52417,42.11487 5.28503,11.78 13.639,17.6326 19.07649,35.7783 12.03203,40.1525 -15.52569,93.4861 -39.02208,103.2868 z"
       id="path1016"
       sodipodi:nodetypes="csccscsccssc" />
    <path
       style="fill:#b9121a;fill-opacity:1;stroke:none;stroke-width:4.23333;stroke-opacity:1"
       d="m 800.47221,1174.9168 47.57396,-37.9523 -18.38847,-141.37526 -6.80357,54.42856 -39.6875,-62.36606 1.13393,74.83926 -33.63987,-72.19343 -1.13393,166.68753 z"
       id="path1020" />
  </g>
  <g
     inkscape:groupmode="layer"
     id="layer12"
     inkscape:label="body-flames-4"
     style="display:none">
    <path
       style="fill:#e99900;fill-opacity:1;stroke:none;stroke-width:4.23333;stroke-opacity:1"
       d="m 529.00616,1074.8709 c -1.43972,-20.5034 -20.16184,-47.7454 -18.9322,-84.46236 -5.08894,7.14205 -10.57202,30.13516 -9.89599,45.93356 0.40876,-11.5966 -2.37943,-14.2126 -9.13437,-26.8314 4.23553,17.733 5.39357,31.6302 3.90477,39.6457 -1.36271,7.3367 1.52333,24.8406 1.52333,24.8406 0,0 -10.55785,-10.5438 -30.92689,-33.1725 9.70335,31.9457 -12.70518,95.525 18.22995,94.4057 24.45518,-0.8849 47.48196,-28.3084 45.2314,-60.3593 z"
       id="path1013"
       sodipodi:nodetypes="scccsccss" />
    <path
       style="fill:#e99900;fill-opacity:1;stroke:none;stroke-width:4.23333;stroke-opacity:1"
       d="m 833.00576,1066.1267 c 26.77795,31.8715 14.27025,102.2686 -21.20464,108.5551 -43.38117,6.4048 -62.52265,-17.7426 -62.52265,-17.7426 l 9.81951,-53.4623 7.18292,-29.3779 19.9934,37.5145 c 0,0 23.85412,-28.7331 17.85333,-55.2513 17.97226,12.8205 23.53735,48.6234 23.53735,48.6234 0,0 11.69717,-9.402 5.34078,-38.8589 z"
       id="path1018"
       sodipodi:nodetypes="ccccccccc" />
  </g>
  <g
     inkscape:groupmode="layer"
     id="layer2"
     inkscape:label="face"
     sodipodi:insensitive="true">
    <path
       style="fill:#000000;fill-opacity:1;stroke:none;stroke-width:4.23333;stroke-opacity:1"
       d="m 671.01418,867.02231 c 50.33533,-5.96114 125.58718,-23.1882 145.27603,-70.94825 25.19955,-61.12756 24.31834,-87.40518 35.2036,-146.56924 17.50204,-95.1278 -106.94136,-169.52176 -183.38677,-176.03293 -76.44541,-6.51117 -198.07953,51.44544 -198.07953,51.44544 0,0 4.27245,167.0271 35.81411,228.24818 34.30516,66.58493 110.66572,91.49097 165.17256,113.8568 z"
       id="path878"
       sodipodi:nodetypes="csszcsc" />
    <path
       style="fill:#ffcf21;fill-opacity:1;stroke:none;stroke-width:4.23333;stroke-opacity:1"
       d="m 673.3249,861.04877 c 52.81076,-7.67867 103.73017,-22.15728 131.21445,-56.74709 26.88343,-33.83359 10.06855,-57.69447 35.1313,-127.59209 30.68851,-85.58733 -51.04512,-176.8722 -158.2761,-193.82036 -107.23098,-16.94815 -173.36281,52.78484 -190.21612,122.49529 -13.32411,55.11259 -2.22573,110.14835 27.54743,158.40276 34.7701,56.35316 97.72116,71.96244 154.59904,97.26149 z"
       id="path862"
       sodipodi:nodetypes="csszssc" />
    <path
       style="fill:#fff5d4;fill-opacity:1;stroke:none;stroke-width:4.23333;stroke-opacity:1"
       d="m 635.21757,769.88071 c 0,0 29.47641,16.44452 59.4071,19.03245 29.93069,2.58794 56.25362,-7.69315 56.25362,-7.69315 0,0 -19.91145,25.10289 -58.96429,22.3006 -39.05284,-2.80229 -56.69643,-33.6399 -56.69643,-33.6399 z"
       id="path864"
       sodipodi:nodetypes="czczc" />
    <path
       style="fill:#e99900;fill-opacity:1;stroke:none;stroke-width:4.054;stroke-opacity:1"
       d="m 725.44934,743.50759 c -0.23209,3.01453 1.88976,5.68311 4.22777,5.79964 3.58641,0.17875 7.24909,-2.95301 6.23276,-6.23645 -2.31043,-7.46434 2.15409,-12.62376 -5.3865,-20.21867 4.67834,17.06964 -4.56612,14.05899 -5.07403,20.65548 z"
       id="path942"
       sodipodi:nodetypes="ssscs" />
  </g>
  <g
     inkscape:groupmode="layer"
     id="layer6"
     inkscape:label="hairoutline"
     sodipodi:insensitive="true">
    <path
       style="fill:#000000;fill-opacity:1;stroke:none;stroke-width:4.79045;stroke-opacity:1"
       d="M 322.07612,883.53898 C 309.28307,759.00326 434.99175,766.48536 441.62159,753.55015 c -111.79847,66.21077 -200.40168,-60.10348 -312.91534,2.02938 17.50014,-35.0886 36.78618,-18.29725 47.11224,-39.04749 -25.0012,21.05284 -25.26214,1.80643 -63.16101,23.15826 16.7024,-27.40217 22.87077,-25.52689 43.37071,-31.71685 23.3439,-7.04869 40.20354,-22.02533 52.86787,-37.46762 -10.81433,-12.20387 -43.60765,-4.66394 -67.9894,-55.42344 42.61767,38.08321 75.84539,-27.99359 159.27953,-9.49285 -60.68484,-25.19867 -74.46554,-5.52598 -115.26316,-37.18802 -34.83617,-27.0356 -14.78712,-53.73392 -75.08579,-70.74336 50.12139,-0.94613 55.56194,30.88442 76.78537,50.88031 -11.61592,-26.23769 -30.56863,-49.45418 -57.03506,-61.12141 -26.9997,-11.90233 -56.781848,-36.78312 -59.975363,-98.82415 23.095141,81.96206 112.203573,-7.00322 152.968203,54.37082 21.2985,32.06639 39.57408,37.88338 39.57408,37.88338 0,0 -5.96777,0.98414 -18.05599,-23.31371 -12.04323,-24.20742 7.22671,-70.94911 -102.39827,-69.81801 78.34715,-30.17794 135.85374,10.62408 167.11551,42.43933 35.2154,35.8389 59.29654,10.8846 99.57916,60.50222 C 380.35421,446.03992 362.1688,418.76809 312.75854,379.54418 271.91803,347.12336 269.9429,279.83954 285.94677,251.6072 c 13.99264,-24.68418 63.84796,-27.45195 51.45133,28.30082 -3.159,-48.70654 -33.91014,-36.99659 -35.12682,-15.34302 -1.1773,20.95263 22.11196,61.17474 54.22466,63.29267 80.59944,5.31575 72.09857,22.47054 82.56143,22.36369 8.37231,-0.0855 -59.37372,-40.4066 -36.04924,-95.61798 7.0816,43.08445 56.04359,50.0178 106.95284,54.7127 59.9485,5.52846 63.55128,61.22376 71.16789,102.70974 0.74568,-14.84397 -47.08068,-80.74793 -52.44278,-155.4355 -5.29621,-73.77028 -178.52921,-59.4813 -184.52959,-155.27029 31.21231,57.16924 123.10463,56.198 159.33297,65.23406 49.04345,12.23227 69.82906,67.55421 119.52353,90.64505 5.7109,-13.73186 21.84507,-45.08021 -13.98413,-70.81793 33.70493,-1.81962 82.88823,59.14721 75.25663,102.05659 -9.4844,53.32638 -1.23644,58.95273 -1.23644,58.95273 0,0 0.89259,-26.04112 7.89468,-44.32755 12.23871,-31.9622 14.57459,-63.3381 -7.84621,-86.70068 -32.09664,-33.4447 -18.25438,-45.37369 -27.76973,-72.63726 -14.75978,-42.28993 -50.37608,-72.972025 -154.27285,-28.39986 116.59638,-71.270064 164.48932,-22.783057 174.45041,8.75448 6.02454,19.0741 26.05823,51.04155 55.90593,83.82434 47.9179,52.63014 85.09284,326.22957 25.15394,406.25086 C 617.63001,799.64009 355.05221,740.0245 322.07612,883.53898 Z"
       id="path871-2"
       sodipodi:nodetypes="cccccscccsccscscscscsscssscscscsccscssscsssc" />
    <path
       style="fill:#000000;fill-opacity:1;stroke:none;stroke-width:4.79045;stroke-opacity:1"
       d="m 741.04352,610.12157 c 22.8218,94.94938 50.1816,122.90186 126.00633,104.58326 53.53979,-12.93475 115.21707,-101.05044 171.52565,-33.08775 -16.0216,-89.9168 -91.25414,-55.91736 -129.24164,-80.45057 -9.7075,-47.83004 8.26208,-78.15001 53.40238,-89.00728 46.55176,-11.19675 96.81326,-88.01702 41.92976,-146.39124 13.7179,74.85155 -24.34909,59.2758 -49.43378,76.52463 33.39249,-16.28345 46.05438,-77.58347 34.07681,-93.45635 -8.7601,-11.60911 -39.27229,-18.03901 -27.12125,20.84821 0.2736,-12.78989 5.53786,-20.01479 10.66576,-16.9862 8.9724,5.29919 -1.31436,34.35629 -29.81768,36.8426 -15.54178,1.35569 -29.17052,-0.76169 -34.43072,22.23791 6.35115,-78.32247 50.79339,-60.96037 42.15199,-150.41582 -3.0742,-31.82326 -22.95071,-51.46321 -21.61222,-80.70257 0.88269,-19.2825 18.4433,-43.00128 2.76034,-82.401442 -3.26693,48.124222 -31.25782,34.046132 -33.14523,63.021102 0.0698,-10.80086 -1.10432,-12.48614 2.30838,-38.29118 4.3259,-32.710614 -15.60182,-62.292942 -51.49849,-31.501996 56.27303,-25.191146 32.05419,40.361336 22.74389,66.880176 -8.5248,24.28136 1.55515,49.71928 -0.37085,63.03191 -9.9802,-29.9622 -26.1908,-31.79227 -8.71477,-57.13607 -39.46958,7.87665 -19.57011,63.41698 -19.40638,112.60249 0.0845,25.38969 -4.70693,44.19465 -4.70693,44.19465 0,0 10.28596,-27.60444 -2.88034,-87.51438 -5.3482,-24.33596 -12.32166,-62.72878 -24.40326,-76.11333 -15.0066,-16.62493 -29.33628,-13.99183 -52.5085,-32.75364 27.40763,53.75326 46.75382,5.29552 45.95072,112.38252 -7.2177,-11.22747 -17.52762,-8.99622 -16.5055,-59.10374 -34.86902,58.79019 -28.22577,109.95068 -15.09277,161.03697 19.8788,77.32707 -52.5841,188.1153 -32.6317,271.12713 z"
       id="path881-6"
       sodipodi:nodetypes="ssccsccscsscssccscsccscsscccss" />
  </g>
  <g
     inkscape:groupmode="layer"
     id="layer3"
     inkscape:label="hair">
    <path
       style="fill:#b9121a;fill-opacity:1;stroke:none;stroke-width:4.78136;stroke-opacity:1"
       d="m 323.71758,874.61812 c -12.0371,-97.32901 97.79658,-91.00491 119.54545,-129.49598 -110.28655,76.87947 -198.88976,-55.35713 -311.40343,6.54017 16.43106,-26.56846 38.61515,-14.22616 47.47123,-39.82347 -25.00121,23.23622 -27.80121,2.86465 -63.42829,24.66799 4.36445,-4.25047 13.77605,-20.74497 34.77454,-24.92751 23.91087,-4.76264 51.02173,-25.40635 60.66225,-41.73147 -10.81433,-12.15763 -40.51507,-5.29688 -66.7867,-50.21583 41.08678,46.19828 89.07524,-60.04303 199.50359,7.64489 -53.20128,-47.20236 -114.55595,-27.60425 -155.35357,-59.1463 -34.83619,-26.93306 -21.17115,-54.84137 -73.62844,-69.17337 51.20064,0.88779 51.96642,43.31092 77.73344,59.50344 -9.74503,-27.46953 -35.11222,-66.83967 -61.57865,-78.46265 -26.9997,-11.85717 -53.440981,-29.72101 -59.307191,-82.47412 23.095139,78.7225 111.429721,-17.44693 147.221921,46.70955 23.83756,42.72816 89.82075,64.89794 89.82075,64.89794 0,0 -51.13632,-20.85265 -64.15998,-56.77368 -9.18494,-25.33334 9.23123,-66.28683 -94.7811,-65.69255 58.56921,-18.08199 124.09812,3.75389 148.36866,41.03462 27.65588,42.48078 83.07892,14.00377 125.25141,91.29749 C 419.79327,493.37655 363.81025,411.60931 314.4,372.53419 c -40.84051,-32.29793 -41.49272,-92.17237 -25.48885,-120.2976 13.99264,-24.59068 55.72145,-21.88805 48.4275,21.03917 -2.02505,-37.79038 -32.40153,-35.36858 -37.39466,-14.34348 -4.95706,20.87316 19.08815,69.60326 51.20083,71.71315 80.59944,5.29563 76.55499,25.63929 95.7012,25.19116 17.68639,-0.41396 -58.83919,-43.98101 -44.06732,-92.59289 7.08159,42.92106 50.43092,44.76928 101.34017,49.44635 59.94849,5.5075 71.03483,50.87387 78.65144,92.20263 0.74568,-14.78777 -44.94252,-74.3179 -50.30462,-148.72235 -5.29623,-73.49055 -175.75368,-74.60499 -185.53383,-147.62646 31.21233,56.95243 113.15082,50.26106 149.37915,59.26283 49.04347,12.18598 78.64896,71.89235 128.34343,94.89561 5.7109,-13.67975 24.30192,-48.86295 -9.8264,-72.80862 27.09036,-2.00105 72.31604,58.45172 64.68438,101.19842 -9.48439,53.12424 15.06702,118.77007 15.06702,118.77007 0,0 -16.74717,-71.47222 -2.79604,-97.27758 16.22894,-30.01868 15.3764,-79.33961 -7.04447,-102.61364 -32.09661,-33.31793 -17.18523,-42.53911 -26.70062,-69.69934 -14.75978,-42.129567 -51.63414,-68.956656 -136.8211,-33.96712 95.80771,-52.172674 141.81078,-10.647257 153.28378,24.5361 6.18014,18.95217 18.21567,39.37132 48.06335,72.02987 C 770.48225,255.301 818.1456,526.53741 758.2067,606.25535 619.27145,791.03739 346.86627,741.81446 323.71758,874.61812 Z"
       id="path871"
       sodipodi:nodetypes="cccccscccsccscscscscsscssscscscsccscssscsssc" />
    <path
       style="fill:#b9121a;fill-opacity:1;stroke:none;stroke-width:4.78136;stroke-opacity:1"
       d="m 742.685,602.23732 c 22.82171,94.58938 47.2256,124.1182 123.36048,107.19914 34.263,-7.61409 117.8629,-96.90192 169.25782,-35.5981 -17.1556,-70.37223 -92.01016,-45.53873 -129.99769,-69.97893 -9.70744,-47.64872 7.88416,-84.63149 53.02442,-95.44756 46.55177,-11.1543 95.67937,-84.48276 48.16647,-138.68193 24.8681,80.21594 -45.3269,66.77025 -74.94721,84.14187 55.31508,-24.88212 68.35496,-88.02073 56.37738,-103.83351 -8.76008,-11.56503 -31.24035,-10.81621 -26.3653,11.63808 0.27357,-12.74145 8.1837,-15.70288 13.31162,-12.68573 8.97238,5.27913 5.67818,41.75692 -31.14064,43.48067 -15.58364,0.72958 -31.06043,4.51282 -36.32061,27.42522 -11.9807,-76.89589 46.67924,-65.32901 38.03779,-154.44534 -3.07414,-31.70252 -25.62333,-62.18458 -22.68129,-91.3131 1.93247,-19.13289 21.54776,-34.97256 9.64453,-69.51659 -0.62115,49.07145 -37.47378,26.93608 -32.0113,66.58456 -3.40475,-10.22745 -5.247,-22.8228 -1.83432,-48.53001 4.32593,-32.586575 -13.72699,-55.73188 -42.82006,-34.283057 48.80798,-22.365631 28.8414,43.597217 19.53104,70.015577 -8.52479,24.18928 0.49949,57.96187 -1.82739,70.95773 -9.98016,-29.84861 -31.5362,-39.1269 -11.52112,-63.84208 -31.85237,7.44743 -14.58392,60.27346 -15.43368,117.82209 -0.84307,57.09549 -13.22322,63.14242 -13.22322,63.14242 0,0 13.49325,-43.20886 0.32698,-102.89166 -5.34826,-24.24369 -13.52602,-72.0328 -25.60763,-85.36662 -15.00657,-16.56194 -22.72168,-5.8431 -41.5472,-25.09861 23.24988,39.42913 42.40712,3.58098 41.60395,110.26196 -7.21764,-11.18489 -25.84307,-8.39728 -21.23014,-57.93829 -19.37198,39.36359 -24.635,95.79003 -11.50203,146.68263 19.8788,77.03386 -52.58409,187.40209 -32.63165,270.09917 z"
       id="path881"
       sodipodi:nodetypes="ssccsccscsscssccscsccscsscccss" />
  </g>
  <g
     inkscape:groupmode="layer"
     id="layer7"
     inkscape:label="hair-top"
     style="display:inline">
    <path
       style="fill:#e99900;fill-opacity:1;stroke:none;stroke-width:4.23333;stroke-opacity:1"
       d="m 747.9878,599.02831 c 0,0 -115.0942,101.58271 -196.00813,88.03126 -18.90749,33.82035 -57.70308,64.2506 -94.9108,71.54303 74.57634,-47.80723 78.51027,-105.85304 45.11156,-113.95505 -23.89406,-5.79633 -76.50432,18.03432 -21.06923,31.41924 -85.24832,107.46873 -185.30602,18.99868 -228.55129,34.28649 -0.48051,-22.23416 80.80537,-4.33846 85.74497,-28.48715 -88.23436,-20.16681 -86.85603,-31.39014 -125.35267,-42.52596 38.93505,-15.38469 88.63506,4.04985 105.42824,1.29492 -27.78595,-2.02191 -25.18796,-11.51493 -54.40143,-11.79474 38.11021,-16.03766 108.49057,12.45855 134.15298,31.58264 0.98027,-15.99779 -29.73299,-79.19929 -59.20806,-87.15484 18.66404,15.31149 12.89855,20.88217 16.9917,37.38564 -9.95123,-26.56872 -25.99913,-40.3117 -52.56177,-48.01357 -52.7365,-15.29102 -84.39632,28.1073 -120.29785,-99.61084 38.55255,48.81068 173.6492,76.85506 173.6492,76.85506 0,0 -24.86054,-4.09757 -34.95092,-29.54704 -16.63257,-41.94986 -51.02801,-35.77417 -52.44621,-86.18068 22.00398,52.33949 95.94494,51.30202 117.6645,95.44804 22.22821,45.17988 84.91332,46.07836 84.91332,46.07836 0,0 -21.83361,-37.54738 -16.96004,-71.83 4.5572,-32.05713 -15.26152,-63.32756 -36.81093,-62.95362 19.07803,8.44973 25.86173,21.70814 20.70552,57.70256 C 378.22151,382.75957 303.65647,375.67139 306.34728,317.40493 c 5.90876,20.27463 29.68043,53.59598 65.794,62.12443 -11.8894,-20.00875 -26.93391,-10.00386 -27.97594,-36.92913 1.79279,16.353 53.99449,8.37376 87.17469,33.57099 31.78903,24.14076 75.03612,27.9403 75.03612,27.9403 0,0 -26.24992,-12.04316 -29.56232,-33.50197 -6.89399,-44.66155 -19.39522,-38.23644 -38.61692,-51.98169 61.53728,-1.32389 84.73145,43.82724 101.23661,49.15372 -15.21242,-1.41224 -23.02818,-5.99791 -31.20721,-11.01132 17.01669,25.31565 57.45272,36.01999 63.3636,36.65048 0,0 -6.20571,-35.01778 8.19283,-61.53516 17.76485,-32.71702 19.56892,-47.14958 -1.77836,-78.2468 37.37283,19.87521 54.52298,106.64054 54.52298,106.64054 0,0 1.01684,-57.36921 12.56169,-89.53529 -2.05206,60.64618 29.78464,82.07063 16.18878,146.8394 -3.07513,14.64948 -31.69564,11.13738 -19.35333,-13.52134 -34.90471,17.48563 7.52734,41.44149 31.5853,45.12095 16.89402,2.5838 19.71102,9.47851 25.30042,28.69486 33.38767,-92.85639 -0.10145,-81.29372 12.0964,-137.78053 10.35688,-47.96155 13.47224,-97.71831 -7.8303,-118.62176 -17.31028,-16.98597 -28.76152,-38.53421 -29.99457,-50.24603 -1.23305,-11.71182 -1.93374,-23.311 -14.36198,-48.82015 25.95425,30.20898 25.08322,64.29664 49.22628,90.26215 50.48416,54.29496 69.75452,249.19239 69.75452,249.19239 0,0 20.64852,-40.59014 20.36784,-56.93397 -0.95456,-55.58194 -22.49628,-91.72833 -7.69547,-150.4783 4.58652,52.87587 18.49695,56.92285 18.49695,56.92285 0,0 -4.45271,-13.4687 0.71704,-22.36074 9.52608,-16.38497 10.23552,-30.26243 11.89998,-54.61844 17.35425,60.27849 -7.69542,131.97316 -2.67269,137.64381 7.26391,8.20095 34.02491,-20.15421 44.78596,-29.24038 10.96505,-9.25842 10.87386,-37.76795 20.02592,-41.55953 -19.19615,3.57895 -16.10888,29.04102 -30.9149,36.25557 14.89759,-47.23052 -2.09207,-60.69077 7.67198,-106.02102 4.04741,21.07889 10.70013,30.22158 20.95157,37.69242 4.37152,-10.16895 3.52187,-26.28606 10.20433,-33.27611 13.72049,-14.35202 8.56846,-39.71183 9.59415,-42.65428 29.76842,58.22011 26.77229,124.48602 -5.00199,159.66005 -38.41798,42.52859 -21.99223,89.70241 -21.99223,89.70241 0,0 28.73573,7.33958 46.26911,-12.66124 0.69366,29.91065 -33.98035,40.69471 -26.79872,43.70251 22.7871,9.54366 54.00134,5.97479 74.80861,-5.22126 -19.34832,40.25147 -83.49387,34.6043 -96.40928,108.51502 -8.37182,-32.19528 -24.94254,-29.52258 -22.99305,-70.4576 -12.72242,24.88476 -1.08881,157.02212 58.03874,131.11536 -18.55564,32.3023 -107.76591,45.74551 -114.71752,-2.6792 -4.75222,-33.10379 -44.3491,-35.88359 -44.3491,-35.88359 z"
       id="path927"
       sodipodi:nodetypes="cccscccccccccsccscscscccccscsccccscccscscssscscsccscssccccscsccsccccsc" />
    <path
       style="fill:#e99900;fill-opacity:1;stroke:none;stroke-width:4.23333;stroke-opacity:1"
       d="m 450.88925,174.50013 c 55.38568,4.53992 57.29354,13.44142 68.79437,24.47348 11.50084,11.03207 31.16473,21.21444 26.70108,25.16302 -6.1646,5.45325 -27.9264,-13.79545 -38.43503,-24.78273 -10.50863,-10.98729 -13.33571,-13.53549 -57.06042,-24.85377 z"
       id="path929"
       sodipodi:nodetypes="czszc" />
    <path
       style="fill:#ffdf00;fill-opacity:1;stroke:none;stroke-width:4.23333;stroke-opacity:1"
       d="m 740.86747,588.48013 c -53.25173,44.15482 -106.52716,79.80253 -176.80112,68.63512 -53.2773,-34.30909 -102.32768,-47.48362 -137.58335,8.31545 40.14825,-75.63862 -24.794,-65.3539 -48.38094,-105.07737 41.10056,16.79677 83.21679,32.46503 142.11905,29.48214 -46.19553,-14.31833 -24.89481,-86.52163 -38.55357,-140.60712 26.94836,27.66666 59.95947,55.75383 90.71428,56.69641 5.22316,-14.88692 -13.91703,-83.23993 45.35712,-125.86606 -40.6985,98.02551 36.34863,102.43148 71.8155,128.88989 36.44399,-15.69422 44.39349,-33.5611 49.85486,-65.24636 10.84798,9.10256 35.59397,41.71011 46.44195,70.95858 11.5621,-56.70667 21.82708,-110.854 64.72104,-131.95628 -18.4943,57.11522 26.19111,70.47638 21.79291,116.05904 -34.61205,-11.94852 -40.97773,-13.03722 -51.27506,3.38144 -28.80026,53.97926 18.69808,82.08718 20.03735,136.53 -17.00312,-23.49273 -31.05142,-36.73841 -100.26002,-50.19488 z"
       id="path933"
       sodipodi:nodetypes="cccccccccccccccc" />
  </g>
</svg>
