<?xml version="1.0" encoding="UTF-8" standalone="no"?>
<!-- Created with Inkscape (http://www.inkscape.org/) -->

<svg
   width="500"
   height="900"
   viewBox="0 0 132.29166 238.12499"
   version="1.1"
   id="svg5"
   xml:space="preserve"
   inkscape:version="1.2.2 (732a01da63, 2022-12-09)"
   sodipodi:docname="portrait.svg"
   inkscape:export-filename="draft_03.png"
   inkscape:export-xdpi="288"
   inkscape:export-ydpi="288"
   xmlns:inkscape="http://www.inkscape.org/namespaces/inkscape"
   xmlns:sodipodi="http://sodipodi.sourceforge.net/DTD/sodipodi-0.dtd"
   xmlns:xlink="http://www.w3.org/1999/xlink"
   xmlns="http://www.w3.org/2000/svg"
   xmlns:svg="http://www.w3.org/2000/svg"><sodipodi:namedview
     id="namedview7"
     pagecolor="#ffffff"
     bordercolor="#666666"
     borderopacity="1.0"
     inkscape:showpageshadow="2"
     inkscape:pageopacity="0.0"
     inkscape:pagecheckerboard="0"
     inkscape:deskcolor="#d1d1d1"
     inkscape:document-units="mm"
     showgrid="false"
     inkscape:zoom="1.4142136"
     inkscape:cx="114.5513"
     inkscape:cy="357.08891"
     inkscape:window-width="1920"
     inkscape:window-height="1009"
     inkscape:window-x="1912"
     inkscape:window-y="-8"
     inkscape:window-maximized="1"
     inkscape:current-layer="layer20"
     showguides="false" /><defs
     id="defs2"><linearGradient
       id="fur"
       inkscape:swatch="solid"><stop
         style="stop-color:#eff6f2;stop-opacity:1;"
         offset="0"
         id="stop19109" /></linearGradient><linearGradient
       id="coat-dark"
       inkscape:swatch="solid"><stop
         style="stop-color:#1d3a53;stop-opacity:1;"
         offset="0"
         id="stop19103" /></linearGradient><linearGradient
       id="coat"
       inkscape:swatch="solid"><stop
         style="stop-color:#4396a4;stop-opacity:1;"
         offset="0"
         id="stop19097" /></linearGradient><linearGradient
       id="skin-blush"
       inkscape:swatch="solid"><stop
         style="stop-color:#f6bfb2;stop-opacity:1;"
         offset="0"
         id="stop17515" /></linearGradient><linearGradient
       id="skin-dark"
       inkscape:swatch="solid"><stop
         style="stop-color:#cfb099;stop-opacity:1;"
         offset="0"
         id="stop17509" /></linearGradient><linearGradient
       id="skin"
       inkscape:swatch="solid"><stop
         style="stop-color:#f6e3d5;stop-opacity:1;"
         offset="0"
         id="stop17503" /></linearGradient><linearGradient
       id="eye-shine"
       inkscape:swatch="solid"><stop
         style="stop-color:#a9baba;stop-opacity:1;"
         offset="0"
         id="stop15795" /></linearGradient><linearGradient
       id="eye"
       inkscape:swatch="solid"><stop
         style="stop-color:#8a9797;stop-opacity:1;"
         offset="0"
         id="stop15789" /></linearGradient><linearGradient
       id="white"
       inkscape:swatch="solid"><stop
         style="stop-color:#ffffff;stop-opacity:1;"
         offset="0"
         id="stop15016" /></linearGradient><linearGradient
       id="hair-green-dark"
       inkscape:swatch="solid"><stop
         style="stop-color:#4a5c49;stop-opacity:1;"
         offset="0"
         id="stop14062" /></linearGradient><linearGradient
       id="hair-blue-dark"
       inkscape:swatch="solid"><stop
         style="stop-color:#496661;stop-opacity:1;"
         offset="0"
         id="stop14056" /></linearGradient><linearGradient
       id="hair-magenta-dark"
       inkscape:swatch="solid"><stop
         style="stop-color:#584969;stop-opacity:1;"
         offset="0"
         id="stop14050" /></linearGradient><linearGradient
       id="hair-blue"
       inkscape:swatch="solid"><stop
         style="stop-color:#e1fefb;stop-opacity:1;"
         offset="0"
         id="stop10927" /></linearGradient><linearGradient
       id="hair-green"
       inkscape:swatch="solid"><stop
         style="stop-color:#e8ffee;stop-opacity:1;"
         offset="0"
         id="stop10921" /></linearGradient><linearGradient
       id="hair-yellow"
       inkscape:swatch="solid"><stop
         style="stop-color:#f1ffed;stop-opacity:1;"
         offset="0"
         id="stop10915" /></linearGradient><linearGradient
       id="hair-magenta"
       inkscape:swatch="solid"><stop
         style="stop-color:#fde2ff;stop-opacity:1;"
         offset="0"
         id="stop10909" /></linearGradient><linearGradient
       id="hair"
       inkscape:swatch="solid"><stop
         style="stop-color:#a9baba;stop-opacity:1;"
         offset="0"
         id="stop8475" /></linearGradient><linearGradient
       id="black"
       inkscape:swatch="solid"><stop
         style="stop-color:#000000;stop-opacity:1;"
         offset="0"
         id="stop7763" /></linearGradient><linearGradient
       id="silver"><stop
         style="stop-color:#30baba;stop-opacity:1;"
         offset="0"
         id="stop7724" /></linearGradient><linearGradient
       inkscape:collect="always"
       xlink:href="#black"
       id="linearGradient7767"
       x1="-22.92165"
       y1="22.26355"
       x2="-3.6449375"
       y2="22.26355"
       gradientUnits="userSpaceOnUse"
       gradientTransform="translate(0.0935421,-0.51209984)" /><linearGradient
       inkscape:collect="always"
       xlink:href="#hair"
       id="linearGradient8479"
       x1="-22.828108"
       y1="44.246468"
       x2="-3.5513954"
       y2="44.246468"
       gradientUnits="userSpaceOnUse" /><linearGradient
       inkscape:collect="always"
       xlink:href="#hair-magenta"
       id="linearGradient10913"
       x1="-34.964285"
       y1="39.50601"
       x2="-25.168479"
       y2="39.50601"
       gradientUnits="userSpaceOnUse" /><linearGradient
       inkscape:collect="always"
       xlink:href="#hair-yellow"
       id="linearGradient10919"
       x1="-44.750769"
       y1="39.50601"
       x2="-34.954962"
       y2="39.50601"
       gradientUnits="userSpaceOnUse" /><linearGradient
       inkscape:collect="always"
       xlink:href="#hair-green"
       id="linearGradient10925"
       x1="-44.750769"
       y1="48.986925"
       x2="-34.954962"
       y2="48.986925"
       gradientUnits="userSpaceOnUse" /><linearGradient
       inkscape:collect="always"
       xlink:href="#hair-blue"
       id="linearGradient10931"
       x1="-34.964285"
       y1="48.986925"
       x2="-25.168479"
       y2="48.986925"
       gradientUnits="userSpaceOnUse" /><linearGradient
       inkscape:collect="always"
       xlink:href="#hair-magenta-dark"
       id="linearGradient14054"
       x1="-56.886946"
       y1="39.50601"
       x2="-47.091139"
       y2="39.50601"
       gradientUnits="userSpaceOnUse" /><linearGradient
       inkscape:collect="always"
       xlink:href="#hair-blue-dark"
       id="linearGradient14060"
       x1="-56.886946"
       y1="48.986925"
       x2="-47.091139"
       y2="48.986925"
       gradientUnits="userSpaceOnUse" /><linearGradient
       inkscape:collect="always"
       xlink:href="#hair-green-dark"
       id="linearGradient14066"
       x1="-66.673426"
       y1="48.986925"
       x2="-56.877619"
       y2="48.986925"
       gradientUnits="userSpaceOnUse" /><linearGradient
       inkscape:collect="always"
       xlink:href="#white"
       id="linearGradient15020"
       x1="-44.602642"
       y1="21.75145"
       x2="-25.32593"
       y2="21.75145"
       gradientUnits="userSpaceOnUse" /><linearGradient
       inkscape:collect="always"
       xlink:href="#eye"
       id="linearGradient15793"
       x1="-22.828108"
       y1="67.402604"
       x2="-3.5513954"
       y2="67.402604"
       gradientUnits="userSpaceOnUse" /><linearGradient
       inkscape:collect="always"
       xlink:href="#eye-shine"
       id="linearGradient15799"
       x1="-44.602642"
       y1="67.402603"
       x2="-25.32593"
       y2="67.402603"
       gradientUnits="userSpaceOnUse" /><linearGradient
       inkscape:collect="always"
       xlink:href="#skin"
       id="linearGradient17507"
       x1="-22.828108"
       y1="89.826039"
       x2="-3.5513954"
       y2="89.826039"
       gradientUnits="userSpaceOnUse" /><linearGradient
       inkscape:collect="always"
       xlink:href="#skin-dark"
       id="linearGradient17513"
       x1="-44.602642"
       y1="89.826039"
       x2="-25.32593"
       y2="89.826039"
       gradientUnits="userSpaceOnUse" /><linearGradient
       inkscape:collect="always"
       xlink:href="#skin-blush"
       id="linearGradient17519"
       x1="-66.377174"
       y1="89.826039"
       x2="-47.100462"
       y2="89.826039"
       gradientUnits="userSpaceOnUse" /><linearGradient
       inkscape:collect="always"
       xlink:href="#coat"
       id="linearGradient19101"
       x1="-22.828108"
       y1="112.24948"
       x2="-3.5513954"
       y2="112.24948"
       gradientUnits="userSpaceOnUse" /><linearGradient
       inkscape:collect="always"
       xlink:href="#coat-dark"
       id="linearGradient19107"
       x1="-44.602642"
       y1="112.24948"
       x2="-25.32593"
       y2="112.24948"
       gradientUnits="userSpaceOnUse" /><linearGradient
       inkscape:collect="always"
       xlink:href="#fur"
       id="linearGradient19113"
       x1="-66.377174"
       y1="112.24948"
       x2="-47.100462"
       y2="112.24948"
       gradientUnits="userSpaceOnUse" /></defs><g
     inkscape:groupmode="layer"
     id="layer1"
     inkscape:label="palette"><rect
       style="fill:url(#linearGradient8479);fill-opacity:1.0;stroke:#000000;stroke-width:3;stroke-linecap:round;stroke-dasharray:none;stroke-opacity:1;paint-order:stroke fill markers"
       id="rect5592"
       width="16.276712"
       height="16.276712"
       x="-21.328108"
       y="36.108112" /><rect
       style="fill:url(#linearGradient15793);fill-opacity:1;stroke:#000000;stroke-width:3;stroke-linecap:round;stroke-dasharray:none;stroke-opacity:1;paint-order:stroke fill markers"
       id="rect5592-58"
       width="16.276712"
       height="16.276712"
       x="-21.328108"
       y="59.264248" /><rect
       style="fill:url(#linearGradient17507);fill-opacity:1;stroke:#000000;stroke-width:3;stroke-linecap:round;stroke-dasharray:none;stroke-opacity:1;paint-order:stroke fill markers"
       id="rect5592-58-5"
       width="16.276712"
       height="16.276712"
       x="-21.328108"
       y="81.687683" /><rect
       style="fill:url(#linearGradient19101);fill-opacity:1;stroke:#000000;stroke-width:3;stroke-linecap:round;stroke-dasharray:none;stroke-opacity:1;paint-order:stroke fill markers"
       id="rect5592-58-5-6"
       width="16.276712"
       height="16.276712"
       x="-21.328108"
       y="104.11112" /><rect
       style="fill:url(#linearGradient19107);fill-opacity:1;stroke:#000000;stroke-width:3;stroke-linecap:round;stroke-dasharray:none;stroke-opacity:1;paint-order:stroke fill markers"
       id="rect5592-58-5-6-3"
       width="16.276712"
       height="16.276712"
       x="-43.102642"
       y="104.11112" /><rect
       style="fill:url(#linearGradient19113);fill-opacity:1;stroke:#000000;stroke-width:3;stroke-linecap:round;stroke-dasharray:none;stroke-opacity:1;paint-order:stroke fill markers"
       id="rect5592-58-5-6-3-8"
       width="16.276712"
       height="16.276712"
       x="-64.877174"
       y="104.11112" /><rect
       style="fill:url(#linearGradient17513);fill-opacity:1;stroke:#000000;stroke-width:3;stroke-linecap:round;stroke-dasharray:none;stroke-opacity:1;paint-order:stroke fill markers"
       id="rect5592-58-5-7"
       width="16.276712"
       height="16.276712"
       x="-43.102642"
       y="81.687683" /><rect
       style="fill:url(#linearGradient17519);fill-opacity:1;stroke:#000000;stroke-width:3;stroke-linecap:round;stroke-dasharray:none;stroke-opacity:1;paint-order:stroke fill markers"
       id="rect5592-58-5-7-5"
       width="16.276712"
       height="16.276712"
       x="-64.877174"
       y="81.687683" /><rect
       style="fill:url(#linearGradient15799);fill-opacity:1.0;stroke:#000000;stroke-width:3;stroke-linecap:round;stroke-dasharray:none;stroke-opacity:1;paint-order:stroke fill markers"
       id="rect5592-58-1"
       width="16.276712"
       height="16.276712"
       x="-43.102642"
       y="59.264248" /><rect
       style="fill:url(#linearGradient10913);fill-opacity:1;stroke:#000000;stroke-width:1.52451;stroke-linecap:round;stroke-dasharray:none;stroke-opacity:1;paint-order:stroke fill markers"
       id="rect5592-8"
       width="8.2712965"
       height="8.2712965"
       x="-34.20203"
       y="35.370361" /><rect
       style="fill:url(#linearGradient10919);fill-opacity:1;stroke:#000000;stroke-width:1.52451;stroke-linecap:round;stroke-dasharray:none;stroke-opacity:1;paint-order:stroke fill markers"
       id="rect5592-8-8"
       width="8.2712965"
       height="8.2712965"
       x="-43.988514"
       y="35.370361" /><rect
       style="fill:url(#linearGradient10931);fill-opacity:1;stroke:#000000;stroke-width:1.52451;stroke-linecap:round;stroke-dasharray:none;stroke-opacity:1;paint-order:stroke fill markers"
       id="rect5592-8-4"
       width="8.2712965"
       height="8.2712965"
       x="-34.20203"
       y="44.851276" /><rect
       style="fill:url(#linearGradient7767);fill-opacity:1;stroke:#000000;stroke-width:3;stroke-linecap:round;stroke-dasharray:none;stroke-opacity:1;paint-order:stroke fill markers"
       id="rect5592-5"
       width="16.276712"
       height="16.276712"
       x="-21.328108"
       y="13.613093" /><rect
       style="fill:url(#linearGradient15020);fill-opacity:1;stroke:#000000;stroke-width:3;stroke-linecap:round;stroke-dasharray:none;stroke-opacity:1;paint-order:stroke fill markers"
       id="rect5592-5-2"
       width="16.276712"
       height="16.276712"
       x="-43.102642"
       y="13.613093" /><rect
       style="fill:url(#linearGradient10925);fill-opacity:1;stroke:#000000;stroke-width:1.52451;stroke-linecap:round;stroke-dasharray:none;stroke-opacity:1;paint-order:stroke fill markers"
       id="rect5592-8-46"
       width="8.2712965"
       height="8.2712965"
       x="-43.988514"
       y="44.851276" /><rect
       style="fill:url(#linearGradient14054);fill-opacity:1;stroke:#000000;stroke-width:1.52451;stroke-linecap:round;stroke-dasharray:none;stroke-opacity:1;paint-order:stroke fill markers"
       id="rect5592-8-43"
       width="8.2712965"
       height="8.2712965"
       x="-56.124691"
       y="35.370361" /><rect
       style="fill:url(#linearGradient14060);fill-opacity:1;stroke:#000000;stroke-width:1.52451;stroke-linecap:round;stroke-dasharray:none;stroke-opacity:1;paint-order:stroke fill markers"
       id="rect5592-8-4-6"
       width="8.2712965"
       height="8.2712965"
       x="-56.124691"
       y="44.851276" /><rect
       style="fill:url(#linearGradient14066);fill-opacity:1;stroke:#000000;stroke-width:1.52451;stroke-linecap:round;stroke-dasharray:none;stroke-opacity:1;paint-order:stroke fill markers"
       id="rect5592-8-46-1"
       width="8.2712965"
       height="8.2712965"
       x="-65.911171"
       y="44.851276" /></g><g
     inkscape:groupmode="layer"
     id="layer2"
     inkscape:label="skeleton"
     sodipodi:insensitive="true"
     style="display:none"><path
       style="fill:#5d8d8e;fill-opacity:1;stroke:none;stroke-width:4;stroke-linecap:round;paint-order:stroke fill markers"
       d="m 45.297338,106.95722 -1.61218,-45.857646 6.09047,-36.72196 10.74789,-10.38963 21.31664,5.73221 13.0766,87.953556 -8.41918,-9.493969 -1.79131,-11.464407 -0.35827,11.285277 -8.06091,-0.71652 -2.68697,-9.673097 1.43305,9.673097 h -14.33052 l -1.07479,-8.598317 -0.35826,8.956577 -5.73221,3.403499 -2.50784,-10.031366 0.17913,10.389626 z"
       id="path3308" /><path
       style="fill:#878787;fill-opacity:1;stroke:none;stroke-width:4.1103;stroke-linecap:round;paint-order:stroke fill markers"
       d="m 63.892668,46.289604 13.08546,-6.75398 2.64327,-18.55723 -18.22548,-5.37739 -10.54156,9.03958 c 3.13544,8.14885 4.17134,17.91486 13.03831,21.64902 z"
       id="path1911"
       sodipodi:nodetypes="cccccc" /><path
       style="fill:#6a6a6a;fill-opacity:1;stroke:none;stroke-width:4;stroke-linecap:round;paint-order:stroke fill markers"
       d="m 74.764458,55.009094 0.75364,21.71092 4.44118,13.93625 -11.35048,9.888236 -10.50356,-7.917786 4.38872,-16.30096 -3.94089,-20.95839 z"
       id="path2047"
       sodipodi:nodetypes="cccccccc" /><path
       style="fill:#6a6a6a;fill-opacity:1;stroke:none;stroke-width:4;stroke-linecap:round;paint-order:stroke fill markers"
       d="m 66.309958,100.94645 7.09324,39.01284 -7.34657,38.25286 -9.11989,0.25333 7.5999,-40.53283 -12.15984,-36.22621 2.78663,-8.613226 z"
       id="path2104" /><path
       style="fill:#6a6a6a;fill-opacity:1;stroke:none;stroke-width:4;stroke-linecap:round;paint-order:stroke fill markers"
       d="m 71.629888,100.43979 -0.25333,36.9862 2.02664,35.46623 6.83992,0.50665 -0.76,-37.49286 4.05329,-35.21289 -3.29329,-7.853236 z"
       id="path2106" /><path
       style="fill:#6a3939;fill-opacity:1;stroke:none;stroke-width:4;stroke-linecap:round;paint-order:stroke fill markers"
       d="m 79.690578,81.699684 27.054732,69.999726 -5.55894,6.48942 -23.466232,3.04524 -6.60964,-55.76587 -3.71302,55.70409 -15.57299,-0.32753 -16.034,-8.29316 20.453,-70.078066 0.6974,-28.36009 18.27141,0.17913 z"
       id="path2108"
       sodipodi:nodetypes="cccccccccccc" /><path
       style="fill:#878787;fill-opacity:1;stroke:none;stroke-width:4;stroke-linecap:round;paint-order:stroke fill markers"
       d="m 59.448728,44.798604 -0.35826,3.04523 -10.1363,-0.78699 8.70324,33.92632 -3.04524,10.92702 7.70266,1.61218 0.53739,-13.25573 -5.19481,-26.15319 18.37635,-0.3148 2.6716,14.28706 -16.39053,0.17913 -9.6731,3.4035 c 0,0 1.43306,4.47829 1.43306,5.19481 0,0.71653 8.59831,-3.58263 8.59831,-3.58263 l 21.22707,-0.17913 -4.79944,-25.40221 -11.59108,-0.2136 0.53739,-2.32871 -4.12002,2.14958 z"
       id="path2033"
       sodipodi:nodetypes="ccccccccccccsccccccc" /><path
       style="fill:#6a3939;fill-opacity:1;stroke:none;stroke-width:4;stroke-linecap:round;paint-order:stroke fill markers"
       d="m 65.897458,59.308254 17.37576,-5.37395 -4.29916,-8.95657 -15.07074,2.51605 -17.98644,-2.78663 0.63332,10.25987 z"
       id="path2328" /><path
       style="fill:#77b4b6;fill-opacity:1;stroke:none;stroke-width:4;stroke-linecap:round;paint-order:stroke fill markers"
       d="m 61.985338,22.457564 -7.97354,19.18371 3.4316,58.038527 -8.3599,-9.373217 -1.40232,-44.73978 5.20228,-22.13939 z"
       id="path2332"
       sodipodi:nodetypes="ccccccc" /><path
       style="fill:#77b4b6;fill-opacity:1;stroke:none;stroke-width:4;stroke-linecap:round;paint-order:stroke fill markers"
       d="m 60.788488,22.765434 17.15425,11.73729 1.92698,62.781407 4.47828,-11.643547 -1.06206,-51.55759 -8.8951,-12.15175 z"
       id="path3306"
       sodipodi:nodetypes="ccccccc" /><path
       style="fill:#77b4b6;fill-opacity:1;stroke:none;stroke-width:4;stroke-linecap:round;paint-order:stroke fill markers"
       d="m 45.685733,33.548084 0.702252,14.2023 6.748803,-20.64968 10.38653,-3.92662 15.07315,4.17995 6.544208,21.02223 0.894121,-14.10002 -5.791679,-13.38213 -19.12643,-5.69993 -2.53331,2.02664 -8.23323,3.29329 z"
       id="path3423"
       sodipodi:nodetypes="cccccccccccc" /></g><g
     inkscape:groupmode="layer"
     id="layer5"
     inkscape:label="hair-back"><path
       style="fill:#000000;fill-opacity:1;stroke:none;stroke-width:4;stroke-linecap:round;paint-order:stroke fill markers"
       d="m 52.467017,48.881616 c 0,0 -1.22605,9.999174 -3.8847,15.547333 -9.78374,20.41696 -10.17992,52.105541 -8.7792,57.014981 l 18.19438,-13.21313 c 16.49498,-5.73739 28.91245,1.52148 41.62722,10.57051 -0.7636,-9.37325 -7.90485,-38.307161 -15.82893,-52.658011 -3.6154,-6.54763 -4.04924,-18.295372 -4.04924,-18.295372 z"
       id="path54478"
       sodipodi:nodetypes="cscccscc"
       inkscape:label="outline" /><path
       style="fill:url(#hair);fill-opacity:1;stroke:none;stroke-width:4;stroke-linecap:round;paint-order:stroke fill markers"
       d="m 47.936537,114.4172 -7.26284,5.26385 c -2.04144,-15.8848 3.00537,-42.511581 8.5963,-54.070441 5.59093,-11.558868 3.11369,-26.212125 4.75553,-31.521356 1.64185,-5.30923 4.87026,-8.768437 11.68446,-9.411207 6.8142,-0.642771 10.20113,0.663568 12.60331,5.560505 2.40218,4.896937 -1.34382,23.022687 4.54738,35.722158 5.89119,12.69947 14.2455,35.804181 15.66083,51.283891 l -7.73647,-5.48309 c -0.69597,-6.00963 -2.16815,-12.565961 -3.16427,-16.287741 0.833,4.853141 1.58484,10.903111 1.46372,14.970481 l -20.24206,-9.25196 -0.80609,-11.195721 -0.35826,10.927021 -18.28313,12.63535 c -0.54044,-4.01699 -0.73845,-9.18462 0.19799,-15.995551 -1.56996,5.327571 -1.82588,10.718171 -1.6564,16.853811 z"
       id="path13771"
       sodipodi:nodetypes="cczzzzzcccccccccc"
       inkscape:label="hair" /><path
       style="fill:#000000;fill-opacity:1;stroke:none;stroke-width:4;stroke-linecap:round;paint-order:stroke fill markers"
       d="m 60.692837,51.79614 0.72761,5.423958 14.02291,0.992187 0.1323,-5.027083 z"
       id="path84554" /></g><g
     inkscape:groupmode="layer"
     id="layer18"
     inkscape:label="legs"><g
       inkscape:groupmode="layer"
       id="layer22"
       inkscape:label="legs"
       transform="matrix(1,0,0,1.0282517,0.07749466,-6.7406756)"><path
         style="fill:#000000;fill-opacity:1;stroke:none;stroke-width:4;stroke-linecap:round;paint-order:stroke fill markers"
         d="m 70.159027,170.19504 1.61324,11.92729 7.0776,-0.16536 c -0.92176,-6.43819 -0.7405,-12.94654 -0.62035,-19.38474 z"
         id="path58879"
         sodipodi:nodetypes="ccccc" /><path
         style="fill:#292e34;fill-opacity:1;stroke:none;stroke-width:4;stroke-linecap:round;paint-order:stroke fill markers"
         d="m 80.337357,188.44206 c -5.73572,-15.1508 -0.2916,-26.49837 -4.91475,-42.63 5.10594,-14.17356 4.79211,-26.69281 8.11324,-38.38614 l -12.94991,-3.30398 -2.69455,42.57741 c 1.82894,13.78951 3.81552,28.16299 5.27699,41.82021 2.13843,0.0216 5.03049,-0.0752 7.16898,-0.0775 z"
         id="path33389"
         sodipodi:nodetypes="ccccccc"
         inkscape:label="left-leg" /><path
         style="fill:#000000;fill-opacity:1;stroke:none;stroke-width:4;stroke-linecap:round;paint-order:stroke fill markers"
         d="m 60.289317,173.81654 c 0.1133,4.78561 -0.18638,8.44338 -0.93544,11.99706 l 9.07381,1.40316 c 0.49459,-14.33673 4.32325,-25.41996 6.75109,-38.26657 l -0.69218,-18.07447 z"
         id="path58462"
         sodipodi:nodetypes="cccccc" /><path
         style="fill:#48515c;fill-opacity:1;stroke:none;stroke-width:4;stroke-linecap:round;paint-order:stroke fill markers"
         d="m 68.290117,103.70105 c 2.0112,13.10805 4.25465,24.21042 5.87724,43.1675 0.0748,1.21862 0.0983,2.48847 -0.22688,4.10709 -3.93832,15.72127 -7.50254,29.31865 -4.79232,41.69501 l -11.29684,-0.61801 c 6.01705,-13.9185 0.79903,-21.33934 7.29153,-42.48281 -4.20343,-14.49248 -7.49709,-23.92617 -10.15266,-38.23156 z"
         id="path32679"
         sodipodi:nodetypes="cccccccc"
         inkscape:label="right-leg" /></g><g
       inkscape:groupmode="layer"
       id="layer21"
       inkscape:label="boots"
       transform="matrix(1.136536,0,0,1.136536,-21.143752,-31.078947)"><path
         style="fill:#000000;fill-opacity:1;stroke:none;stroke-width:3.51946;stroke-linecap:round;paint-order:stroke fill markers"
         d="m 90.629125,188.70693 0.72749,6.46014 c 0,0 1.01436,9.72587 -2.15338,13.90969 -1.30336,1.72141 -7.10034,3.72477 -7.10034,3.72477 l -3.40467,-20.68993 z"
         id="path59476"
         inkscape:label="left-boot-outline"
         sodipodi:nodetypes="ccsccc" /><path
         style="fill:#69594a;fill-opacity:1;stroke:none;stroke-width:4;stroke-linecap:round;paint-order:stroke fill markers"
         d="m 89.563125,185.07912 0.005,4.0465 1.10918,6.02835 c 0,0 0.72614,11.84172 -3.36464,13.9173 -2.35071,1.1927 -7.82218,-0.46575 -7.82218,-0.46575 l -0.63613,-9.18253 c 0,0 3.31386,-7.09362 3.03918,-7.65957 -0.81586,-1.68099 -0.0644,-5.42145 -0.0644,-5.42145 z"
         id="path56621"
         sodipodi:nodetypes="cccsccscc"
         inkscape:label="left-boot" /><path
         style="fill:#000000;fill-opacity:1;stroke:none;stroke-width:3.51946;stroke-linecap:round;paint-order:stroke fill markers"
         d="m 81.593645,183.43987 -1.83328,2.37164 1.36769,6.08185 c 0,0 6.68634,0.31044 8.45347,-1.20764 1.76713,-1.51808 1.93787,-3.70291 1.73144,-5.64536 -0.12956,-1.21917 -0.51151,-2.5884 -2.16793,-2.70627 -0.52106,-0.0371 -1.97878,0.21824 -1.97878,0.21824 0,0 0.11676,1.0783 0.0727,1.73144 -0.0398,0.59013 -4.70324,1.93465 -4.87421,0.98939 -0.1051,-0.58108 -0.7711,-1.83329 -0.7711,-1.83329 z"
         id="path59473"
         sodipodi:nodetypes="ccczsscssc"
         inkscape:label="left-fur-outline" /><path
         style="fill:#edf7f7;fill-opacity:1;stroke:none;stroke-width:4;stroke-linecap:round;paint-order:stroke fill markers"
         d="m 87.591195,182.78711 c 0,0 1.90557,-0.22019 2.47155,0.57024 0.83957,1.17251 0.78946,3.72959 0.19358,4.87965 -1.4548,2.80776 -3.13976,2.76024 -5.95133,3.02887 -2.81157,0.26863 -3.98507,-1.18584 -4.19868,-2.8212 -0.28721,-2.19887 0.29592,-3.20322 1.65102,-4.5576 0.0784,0.69847 0.2171,1.42084 0.22792,1.91617 0.0184,0.84051 5.88509,-0.31395 5.72369,-1.82566 -0.0496,-0.46496 -0.10316,-0.99716 -0.11775,-1.19047 z"
         id="path56733"
         sodipodi:nodetypes="csszscssc"
         inkscape:label="left-fur" /><path
         style="fill:#000000;fill-opacity:1;stroke:none;stroke-width:3.51946;stroke-linecap:round;paint-order:stroke fill markers"
         d="m 68.563745,194.65392 c 0,0 -3.13222,7.97415 -1.64906,13.5247 2.42215,4.15626 4.65588,7.85348 8.08309,9.38622 3.42721,1.53274 6.44167,0.46201 8.8068,-1.28659 2.36513,-1.7486 3.79441,-5.69955 2.11207,-9.70975 -1.59194,-3.79473 -4.24724,-6.49181 -4.76,-13.00514 z"
         id="path59353"
         sodipodi:nodetypes="cczzscc"
         inkscape:label="right-boot-outline" /><path
         style="fill:#7e6b58;fill-opacity:1;stroke:none;stroke-width:4;stroke-linecap:round;paint-order:stroke fill markers"
         d="m 68.867265,193.78823 c 0,0 0.21996,2.16752 -0.23954,3.55874 -2.03933,6.17453 -0.61612,8.38763 -0.72208,9.89093 1.65396,3.03621 4.8137,8.92944 9.28268,9.43655 4.46897,0.50711 6.57607,-0.64963 7.6894,-2.83475 1.24034,-2.43442 1.29946,-6.01765 -0.48809,-9.11258 -2.20472,-3.81718 -3.35943,-6.3534 -3.47921,-7.18887 -0.22402,-1.56266 0.25778,-4.6137 0.25778,-4.6137 z"
         id="path55114"
         sodipodi:nodetypes="csczssscc"
         inkscape:label="right-boot" /><path
         style="fill:#000000;fill-opacity:1;stroke:none;stroke-width:3.51946;stroke-linecap:round;paint-order:stroke fill markers"
         d="m 67.779335,187.60131 c -1.238,2.96656 -1.51565,5.51081 0.49634,7.79337 1.66533,1.88929 5.19494,2.20017 8.2718,1.79017 3.07686,-0.41 5.42599,-1.40021 5.78203,-3.4363 0.31571,-1.80542 0.50212,-4.31999 0.22799,-5.9976 -0.36478,-1.71796 -3.69872,-2.92138 -3.84418,-1.73744 -0.16142,1.31393 -0.12474,3.40469 -0.12474,3.40469 -2.04245,0.38722 -4.61891,0.34149 -6.84453,-0.3473 0.1726,-1.11574 0.17145,-2.13182 0.36083,-3.29195 -1.02296,-0.23052 -3.26005,-0.73081 -4.32554,1.82236 z"
         id="path59233"
         sodipodi:nodetypes="sszscscccs"
         inkscape:label="right-fur-outline" /><path
         style="fill:#edf7f7;fill-opacity:1;stroke:none;stroke-width:4;stroke-linecap:round;paint-order:stroke fill markers"
         d="m 71.153225,189.11122 c 0.30058,-0.87507 0.57776,-2.28879 0.40089,-2.7982 -2.33888,-0.33701 -3.99688,2.23261 -3.89153,4.8454 0.0658,1.63194 0.33622,3.52198 1.51985,4.08488 2.4929,1.18557 5.98327,1.83958 9.2046,0.97086 3.22133,-0.86872 3.8658,-2.293 3.89377,-5.51876 0.028,-3.22576 -0.14512,-4.64728 -3.1446,-4.27963 -0.08,1.25529 -0.11346,2.02857 -0.0158,3.11595 -0.65723,0.96244 -8.24434,0.38639 -7.96718,-0.4205 z"
         id="path55112"
         sodipodi:nodetypes="scsszzccs"
         inkscape:label="right-fur" /></g></g><g
     inkscape:groupmode="layer"
     id="layer6"
     inkscape:label="body"><path
       style="fill:#000000;fill-opacity:1;stroke:none;stroke-width:4;stroke-linecap:round;paint-order:stroke fill markers"
       d="m 63.900917,53.879733 -0.11575,1.852084 5.24205,1.868619 3.42305,-0.810286 0.19843,-1.521354 z"
       id="path34109"
       inkscape:label="neck-outline"
       sodipodi:nodetypes="cccccc" /><path
       style="display:inline;fill:#cfb099;fill-opacity:1;stroke:none;stroke-width:4;stroke-linecap:round;paint-order:stroke fill markers"
       d="m 72.250477,55.438043 -7.888,-1.892575 -0.38496,5.407084 c -4.09978,-0.463084 -8.70823,-1.337088 -10.24123,1.594477 -1.53301,2.93157 3.03144,17.91343 3.03144,17.91343 l 6.56222,-0.68075 -3.01092,-14.68226 16.07746,1.10514 0.72157,11.94361 4.78627,0.32249 c 0,0 -0.77486,-12.50324 -1.63493,-14.98649 -0.86007,-2.483247 -6.23165,-1.23464 -8.66314,-1.73182 z"
       id="path14748"
       sodipodi:nodetypes="ccczcccccczcc"
       inkscape:label="neck" /><g
       inkscape:groupmode="layer"
       id="layer20"
       inkscape:label="coat"
       style="display:inline"><path
         style="fill:#000000;fill-opacity:1;stroke:none;stroke-width:4;stroke-linecap:round;paint-order:stroke fill markers"
         d="m 56.996007,102.64554 c -8.57024,14.52196 -19.70085,31.11685 -24.76192,47.35917 l 2.15346,1.15852 23.70348,-46.58066 z"
         id="path54353"
         sodipodi:nodetypes="ccccc"
         inkscape:label="coat-outline-1" /><path
         style="fill:#000000;fill-opacity:1;stroke:none;stroke-width:4;stroke-linecap:round;paint-order:stroke fill markers"
         d="m 81.727207,93.666449 c 8.37484,20.407241 16.60213,34.440711 20.204243,58.198651 l -1.81569,1.13416 -20.135353,-59.174291 z"
         id="path54356"
         inkscape:label="coat-outline-2"
         sodipodi:nodetypes="ccccc" /><path
         style="fill:url(#coat);fill-opacity:1;stroke:none;stroke-width:4;stroke-linecap:round;paint-order:stroke fill markers"
         d="m 31.080377,153.41537 c 14.59936,-34.93816 23.45655,-38.88939 31.32296,-62.704771 l -3.73259,-25.77954 20.77925,1.79132 2.99188,7.3608 -2.44812,15.4901 c 0.41264,9.9995 15.03745,27.523861 21.127033,63.662961 l -5.911343,5.73221 -14.13162,2.78688 -7.34103,-54.7142 -5.34155,56.58224 c -13.45134,-1.68049 -26.34041,-4.31683 -37.31487,-10.208 z"
         id="path15884"
         sodipodi:nodetypes="cccccccccccc"
         inkscape:label="coat" /><path
         style="display:inline;fill:#000000;fill-opacity:1;stroke:none;stroke-width:4;stroke-linecap:round;paint-order:stroke fill markers"
         d="m 34.168817,145.141 c 0,0 -5.75574,6.63446 -6.07812,9.86804 -0.64246,6.44419 8.75707,14.93826 18.55696,16.8272 9.7999,1.88895 23.46954,3.63601 24.63313,-3.40967 1.69262,-10.24907 2.61864,-38.97173 2.666,-38.96121 0.4947,0.0609 0.61431,29.82233 5.31128,40.32839 2.3287,5.20877 21.844433,-1.26237 24.810003,-9.36521 0.97991,-6.93367 -1.41456,-9.56965 -3.5854,-12.44805 -1.816763,8.68187 -10.224883,9.85306 -17.301003,11.29342 -2.80945,-9.83466 -7.6973,-57.69741 -9.95015,-58.35612 -2.04666,1.16363 -6.02086,38.09105 -10.46327,57.87372 -12.80831,2.70515 -28.96258,-6.52599 -28.59943,-13.65051 z"
         id="path54369"
         sodipodi:nodetypes="cszscscccccc"
         inkscape:label="fur-outline" /><path
         style="fill:url(#fur);fill-opacity:1;stroke:none;stroke-width:4;stroke-linecap:round;paint-order:stroke fill markers"
         d="m 73.315927,102.26589 c 1.40498,-0.401 7.32333,57.15123 9.08012,57.92144 1.60921,0.70551 10.13286,-1.91369 13.46864,-3.37011 3.33578,-1.45642 4.196113,-3.53378 4.686583,-5.97475 1.57913,-0.91149 3.1099,5.26159 2.70274,9.24431 -0.65778,6.43414 -17.958543,11.90559 -21.984903,10.15694 -5.11192,-2.22011 -6.8784,-45.44472 -7.22869,-51.23486 -0.63933,1.83502 -2.07187,48.96289 -5.09959,51.17486 -3.70869,2.70948 -22.02668,2.01048 -28.83354,-2.14811 -6.80686,-4.15856 -11.14369,-8.80725 -11.10336,-11.03439 0.0499,-2.757 4.02094,-9.89479 4.67714,-8.86201 1.71993,8.73619 26.37665,14.83175 29.78468,11.08438 2.18678,-2.40452 8.33105,-56.52412 9.85018,-56.9577 z"
         id="path15606"
         sodipodi:nodetypes="sszcsscszscss"
         inkscape:label="coat-fur" /></g><g
       inkscape:groupmode="layer"
       id="layer19"
       inkscape:label="sleeves"><path
         style="fill:#000000;fill-opacity:1;stroke:none;stroke-width:4;stroke-linecap:round;paint-order:stroke fill markers"
         d="m 52.095547,63.036919 c 2.5415,14.1094 4.08557,23.25692 4.48742,33.58715 0.33604,8.638301 -2.19587,19.044121 -3.52997,25.056531 -0.67646,3.39893 7.57951,2.17862 9.34107,2.59305 l 8.93016,-3.67895 -4.21524,-29.507941 c -1.13186,-9.09272 -4.01793,-18.92578 -6.95803,-28.08465 z"
         id="path38475"
         inkscape:label="right-sleeve-outline"
         sodipodi:nodetypes="cscccccc" /><path
         style="fill:url(#coat);fill-opacity:1;stroke:none;stroke-width:4;stroke-linecap:round;paint-order:stroke fill markers"
         d="m 52.492237,60.612819 c 1.85286,8.81857 2.79745,20.67115 5.54722,29.91119 0,0 -0.44337,10.437211 -0.45078,14.341321 -0.003,1.75704 -4.50457,18.51833 -4.50457,18.51833 1.94994,2.64781 16.87978,1.76743 17.51889,-1.96409 0,0 -2.08757,-17.14498 -2.42642,-18.42307 -1.50824,-5.688871 -2.44438,-17.996341 -2.44438,-17.996341 l -4.68808,-19.32381 z"
         id="path16801"
         sodipodi:nodetypes="ccsccsccc"
         inkscape:label="right-sleeve" /><path
         style="fill:#000000;fill-opacity:1;stroke:none;stroke-width:4;stroke-linecap:round;paint-order:stroke fill markers"
         d="m 49.303537,88.166509 1.2104,7.10839 4.93184,6.496641 c 0,0 7.10017,-6.226921 10.82138,-8.933491 1.73798,-1.26409 11.95704,2.37079 17.62647,0.79885 1.1357,-0.31489 2.5145,-0.26816 2.78322,-1.84251 1.35507,-7.93884 -4.10508,-26.4069 -4.10508,-26.4069 l -2.49782,1.12253 c -0.20299,5.92999 0.46017,11.73472 -0.93309,17.58536 0,0 -10.09335,-1.29384 -13.58185,-0.66989 -5.38834,0.96375 -16.25547,4.74102 -16.25547,4.74102 z"
         id="path38737"
         inkscape:label="left-sleeve-outline"
         sodipodi:nodetypes="cccssscccsc" /><path
         style="fill:url(#coat);fill-opacity:1;stroke:none;stroke-width:4;stroke-linecap:round;paint-order:stroke fill markers"
         d="m 81.667147,62.861319 c 0,0 6.29276,24.41406 3.8211,29.09844 -1.65917,3.14449 -16.71067,-0.7406 -18.99069,-0.23049 -1.40944,0.31534 -10.31375,8.920561 -10.31375,8.920561 -3.51384,-2.861821 -6.20614,-6.439871 -6.30237,-12.281151 0,0 13.24373,-4.29566 15.63804,-4.51286 1.85761,-0.16851 12.09129,0.36323 14.10702,1.16876 0.42392,0.16941 0.83126,-6.22712 1.38067,-10.61881 0.27112,-2.16722 -1.26763,-7.63039 -1.26763,-7.63039 z"
         id="path17505"
         sodipodi:nodetypes="cssccssscc"
         inkscape:label="left-sleeve" /><path
         style="fill:#000000;fill-opacity:1;stroke:none;stroke-width:4;stroke-linecap:round;paint-order:stroke fill markers"
         d="m 50.398887,87.862159 c 0,0 -4.84817,-0.0179 -5.11803,1.73632 -0.50171,3.26135 0.37381,6.27922 1.91824,9.22735 1.54443,2.948121 5.60224,6.661031 8.10286,5.060151 1.16518,-0.74593 1.9513,-4.208521 1.9513,-4.208521 0,0 -3.51016,-2.97099 -4.7625,-4.78731 -1.80007,-2.61073 -2.09187,-7.02799 -2.09187,-7.02799 z"
         id="path38843"
         sodipodi:nodetypes="cszscsc"
         inkscape:label="left-sleeve-fur-otline" /><path
         style="fill:#000000;fill-opacity:1;stroke:none;stroke-width:4;stroke-linecap:round;paint-order:stroke fill markers"
         d="m 53.367047,120.85928 c 0,0 -1.2793,0.29795 -1.55518,0.77174 -0.77485,1.33067 -1.3598,4.29859 -0.24555,4.91108 2.18088,1.19881 6.87106,2.62872 11.78659,2.64263 4.91552,0.0139 7.47465,-1.64903 9.20062,-4.38123 1.21732,-1.92701 -1.49491,-5.8385 -1.49491,-5.8385 0,0 -3.89831,2.56156 -8.31376,2.89988 -4.41544,0.33832 -9.37781,-1.0056 -9.37781,-1.0056 z"
         id="path38846"
         inkscape:label="right-sleeve-fur-ioutline"
         sodipodi:nodetypes="csszsczc" /><path
         style="fill:url(#fur);fill-opacity:1;stroke:none;stroke-width:4;stroke-linecap:round;paint-order:stroke fill markers"
         d="m 53.309557,121.27273 c 0,0 -0.92841,0.22554 -1.24404,0.85305 -0.51264,1.01918 -0.82133,3.2264 0.0735,4.04963 1.0459,0.96224 6.30328,2.62799 11.13921,2.26964 4.83593,-0.35835 8.3243,-1.96836 8.99583,-3.8575 0.23006,-0.64721 0.27012,-4.26502 -2.05218,-4.39395 0,0 -4.45999,2.29201 -7.96891,2.49681 -3.50893,0.20479 -8.94339,-1.41768 -8.94339,-1.41768 z"
         id="path31649"
         sodipodi:nodetypes="csszsczcc"
         inkscape:label="right-sleeve-fur" /><path
         style="fill:url(#fur);fill-opacity:1;stroke:none;stroke-width:4;stroke-linecap:round;paint-order:stroke fill markers"
         d="m 50.010287,88.077129 c 0,0 -3.10499,0.26404 -3.77032,0.82679 -1.67228,1.41449 -0.35119,5.73961 1.15756,8.56589 1.50875,2.826281 4.52322,5.680791 6.44922,6.449221 1.03213,0.4118 2.8112,-4.101051 2.8112,-4.101051 0,0 -2.87862,-2.1041 -4.75614,-4.76485 -1.87752,-2.66075 -1.89152,-6.976 -1.89152,-6.976 z"
         id="path32500"
         sodipodi:nodetypes="cszsczc"
         inkscape:label="left-sleeve-fur" /></g><g
       inkscape:groupmode="layer"
       id="layer9"
       inkscape:label="cape"><path
         style="fill:#000000;fill-opacity:1;stroke:none;stroke-width:4;stroke-linecap:round;paint-order:stroke fill markers"
         d="m 52.846527,59.259757 c 3.30583,-1.052163 6.63957,-2.070209 10.33529,-2.645833 l 0.22302,0.738465 -10.03763,2.38125 z"
         id="path34102"
         sodipodi:nodetypes="ccccc"
         inkscape:label="mantle-outline-left" /><path
         style="fill:#000000;fill-opacity:1;stroke:none;stroke-width:4;stroke-linecap:round;paint-order:stroke fill markers"
         d="m 73.186757,57.225748 c 2.45757,0.741856 4.56399,1.843916 6.61825,3.192191 l -0.152,0.32742 -6.54811,-3.028503 z"
         id="path34105"
         inkscape:label="mantle-outline-right"
         sodipodi:nodetypes="ccccc" /><path
         style="display:inline;fill:url(#coat);fill-opacity:1;stroke:none;stroke-width:4;stroke-linecap:round;paint-order:stroke fill markers"
         d="m 52.277427,59.631839 c 4.31468,-0.869436 7.64476,-2.339342 11.37465,-2.605944 l 5.52357,2.08479 4.01863,-1.51734 c 2.69533,0.706921 4.74388,2.226874 6.91334,3.084374 l 0.95456,3.17856 -3.00045,3.22436 -7.92656,2.55263 -8.46397,-3.44829 z"
         id="path14913"
         sodipodi:nodetypes="cccccccccc"
         inkscape:label="mantle" /><path
         style="fill:#000000;fill-opacity:1;stroke:none;stroke-width:4;stroke-linecap:round;paint-order:stroke fill markers"
         d="m 73.557867,67.772029 c 3.29533,-0.51755 5.99846,-2.61352 6.47242,-4.40203 0.43827,-1.65381 -0.45104,-2.33411 -1.25483,-3.30563 0,0 2.46627,0.59952 3.24022,1.4552 0.64405,0.71207 1.5703,1.75495 1.43133,2.89389 -0.55815,4.57461 -5.23034,8.32612 -11.65571,8.43075 -6.42537,0.10464 -17.91149,-9.0426 -17.91149,-9.0426 -0.0786,1.35182 -0.24588,2.94479 -0.0374,4.63423 0,0 -3.30716,-4.54062 -3.27789,-6.97209 0.0134,-1.1139 1.10103,-2.989447 2.15009,-2.643141 6.09857,2.013211 15.49121,9.590151 20.84326,8.951421 z"
         id="path33574"
         sodipodi:nodetypes="cscsszccssc"
         inkscape:label="fur-outline" /><path
         style="fill:#eff6f2;fill-opacity:1;stroke:none;stroke-width:4;stroke-linecap:round;paint-order:stroke fill markers"
         d="m 53.089187,59.49068 c 3.58356,0.566319 12.78994,9.077549 19.36669,8.829259 6.57675,-0.24829 8.1097,-5.32105 8.1097,-5.32105 0.14209,-1.21191 -0.55449,-1.84724 -1.0805,-2.59982 0,0 3.29146,1.21415 3.42112,3.91016 0.12967,2.69602 -3.85043,7.61669 -10.77542,8.03369 -6.92498,0.41701 -18.03905,-9.47703 -18.54298,-9.204 -0.50393,0.27303 -0.13447,4.17329 -0.13447,4.17329 0,0 -2.25002,-4.19827 -2.31744,-5.46125 -0.0674,-1.26298 0.51971,-2.586833 1.9533,-2.360279 z"
         id="path14750"
         sodipodi:nodetypes="szcczzzczs"
         inkscape:label="fur" /><path
         style="fill:#000000;fill-opacity:1;stroke:none;stroke-width:4;stroke-linecap:round;paint-order:stroke fill markers"
         d="m 64.241157,55.101425 c 0,0 -0.55805,0.02848 -0.80327,0.349271 -0.5893,0.770817 -0.85083,2.132186 -0.21497,2.893881 0.91496,1.096035 3.84138,1.503792 5.92005,1.554422 2.07868,0.0506 4.29382,-0.28484 4.77077,-1.306375 0.17409,-0.372885 0.13675,-1.178573 -0.20672,-1.653646 -0.25857,-0.357636 -0.63947,-1.469403 -1.05834,-1.330455 -0.87478,0.290183 -2.27285,0.964757 -3.93568,0.950117 -1.3567,-0.219714 -4.25076,-0.612891 -4.47184,-1.457215 z"
         id="path34112"
         inkscape:label="neckoutline"
         sodipodi:nodetypes="csszssscc" /><path
         style="fill:#eff6f2;fill-opacity:1;stroke:none;stroke-width:4;stroke-linecap:round;paint-order:stroke fill markers"
         d="m 64.185467,55.367984 c 0.22054,0.807785 2.92482,1.450494 4.9111,1.593122 1.98628,0.142628 3.11917,-0.805752 3.49792,-0.781864 0.83883,-0.06514 1.60627,2.108975 0.86391,2.553434 -1.05837,0.601749 -2.55731,0.952783 -4.43072,0.874363 -1.87341,-0.0784 -5.47136,-0.708659 -5.79247,-1.665202 -0.28401,-1.082435 0.0329,-2.651326 0.95026,-2.573853 z"
         id="path28552"
         sodipodi:nodetypes="czcczcc"
         inkscape:label="neck" /><g
         inkscape:groupmode="layer"
         id="layer23"
         inkscape:label="cape-pattern"><path
           style="fill:url(#coat-dark);fill-opacity:1;stroke-width:4;stroke-linecap:round;paint-order:stroke fill markers"
           d="m 70.249067,59.863629 3.72194,3.07811 -1.38244,4.86419 -3.40017,-4.29067 z"
           id="path103813"
           sodipodi:nodetypes="ccccc" /><path
           style="fill:url(#coat-dark);fill-opacity:1;stroke-width:4;stroke-linecap:round;paint-order:stroke fill markers"
           d="m 69.187017,63.513769 -1.31977,-2.32423 -1.3563,1.66682 1.55332,2.58147 z"
           id="path105327"
           sodipodi:nodetypes="ccccc" /><path
           style="fill:url(#coat-dark);fill-opacity:1;stroke-width:4;stroke-linecap:round;paint-order:stroke fill markers"
           d="m 73.968517,62.942749 0.0692,-2.39882 1.67018,1.28984 0.0115,3.15683 z"
           id="path105329"
           sodipodi:nodetypes="ccccc" /><path
           style="fill:url(#coat-dark);fill-opacity:1;stroke-width:4;stroke-linecap:round;paint-order:stroke fill markers"
           d="m 66.515867,62.855949 -1.22192,-3.455297 -1.91766,2.198287 1.19269,3.32083 z"
           id="path105331"
           sodipodi:nodetypes="ccccc" /><path
           style="fill:url(#coat-dark);fill-opacity:1;stroke-width:4;stroke-linecap:round;paint-order:stroke fill markers"
           d="m 75.704207,61.832809 -1.71071,-3.507586 4.00604,1.487526 0.96609,5.44407 z"
           id="path105333"
           sodipodi:nodetypes="ccccc" /></g><g
         inkscape:groupmode="layer"
         id="layer27"
         inkscape:label="fluff-bottom"
         style="display:inline"><path
           style="fill:#000000;fill-opacity:1;stroke-width:4;stroke-linecap:round;paint-order:stroke fill markers"
           d="m 64.456297,71.853199 1.39173,-0.046 -0.4798,0.48558 2.09771,-0.0595 -0.50436,0.58705 2.20762,-0.10749 -0.45475,0.4713 2.40605,-0.15711 0.0744,0.91778 1.92168,-1.05064 2.17491,0.69574 -0.27479,-0.90037 2.2626,0.26894 -0.59634,-0.69573 1.44994,0.0643 -0.79513,-1.47917 -4.44336,1.12253 -7.69402,-1.61364 z"
           id="path113693"
           sodipodi:nodetypes="ccccccccccccccccccc" /><path
           style="fill:#000000;fill-opacity:1;stroke-width:4;stroke-linecap:round;paint-order:stroke fill markers"
           d="m 80.986007,61.119529 1.99951,-0.10521 -0.40926,0.93544 1.5201,0.47942 -0.77174,1.14592 1.11084,1.42655 -1.25116,0.67819 0.63142,1.95275 -1.85919,-0.23386 0.39757,-1.50841 -0.0351,-2.88818 z"
           id="path115814"
           sodipodi:nodetypes="cccccccccccc" /><path
           style="fill:#000000;fill-opacity:1;stroke-width:4;stroke-linecap:round;paint-order:stroke fill markers"
           d="m 56.591797,60.461239 -1.93393,-1.872972 -0.16757,0.556221 -2.11366,-1.245564 -0.15835,0.872591 -1.7821,-0.05345 0.40156,0.975474 -1.40945,0.58279 0.65379,0.78507 -0.82666,-0.0784 1.09383,1.7685 -0.95911,0.22325 1.77047,1.90453 -0.74414,0.33757 2.93415,2.57001 0.0827,-0.26459 -1.25677,-4.0349 -0.6945,-2.74505 c 1.70326,-0.99738 3.58841,-0.52327 5.10976,-0.28112 z"
           id="path115620"
           sodipodi:nodetypes="ccccccccccccccccccc" /><path
           style="fill:#000000;fill-opacity:1;stroke-width:4;stroke-linecap:round;paint-order:stroke fill markers"
           d="m 72.623887,67.687669 2.14974,-0.84336 -0.033,0.57878 1.51308,-1.30637 -0.0661,0.58704 1.11544,-1.11725 0.5961,1.18076 -0.49111,0.98222 -4.81753,1.35639 -8.5827,-3.01681 0.15201,-1.77734 0.38446,0.49228 0.0399,-0.6665 1.95725,1.77524 0.003,-0.82468 1.83404,1.40317 0.0679,-0.53304 1.84514,1.16387 -0.12542,-0.63367 z"
           id="path115472"
           sodipodi:nodetypes="cccccccccccccccccccc" /><path
           style="fill:#000000;fill-opacity:1;stroke-width:4;stroke-linecap:round;paint-order:stroke fill markers"
           d="m 57.577487,66.497739 -3.93637,-1.69591 0.31501,-0.44933 -1.27916,-0.62391 0.89983,-0.58643 z"
           id="path115615"
           sodipodi:nodetypes="cccccc" /><path
           style="fill:#eff6f2;fill-opacity:1;stroke-width:4;stroke-linecap:round;paint-order:stroke fill markers"
           d="m 73.169587,71.474529 c 2.22705,-0.0347 4.54237,-1.1058 4.54237,-1.1058 l 0.8688,0.60378 -1.59488,0.30225 0.56473,0.66225 -1.95363,-0.0838 0.73378,0.63318 -2.07481,-0.32031 0.36635,0.77007 -1.54372,-0.64003 -1.41702,0.90237 0.0123,-0.78177 -2.08855,0.38421 0.61973,-0.59635 -2.41462,0.28648 0.68989,-0.67234 -2.24506,0.16955 1.12837,-0.56712 -2.59,0.0935 0.62558,-0.9179 -0.86529,0.0526 0.31571,-0.83021 c 2.17897,0.94918 6.09293,1.69013 8.31997,1.65539 z"
           id="path113690"
           sodipodi:nodetypes="zcccccccccccccccccccccz" /><path
           style="fill:#eff6f2;fill-opacity:1;stroke-width:4;stroke-linecap:round;paint-order:stroke fill markers"
           d="m 72.654377,68.197129 1.69841,-0.74346 -0.0416,0.62687 1.54274,-1.27261 -0.18474,0.92901 1.42781,-1.50447 0.21068,1.64229 c 0.0241,0.5853 -3.17795,0.86876 -4.75292,1.39591 l -8.19087,-2.57518 -0.69453,-2.74505 1.12912,1.5813 0.0319,-0.72057 2.03048,1.72723 0.0248,-0.87644 1.91822,1.67845 0.0496,-0.71107 1.94304,1.24024 -0.11375,-0.71156 z"
           id="path115470"
           sodipodi:nodetypes="ccccccccccccccccccc" /><path
           style="fill:#eff6f2;fill-opacity:1;stroke-width:4;stroke-linecap:round;paint-order:stroke fill markers"
           d="m 58.441617,65.959419 -3.781,-1.41527 0.50765,-0.415 -1.80675,-0.51649 1.39969,-0.8965 z"
           id="path115544"
           sodipodi:nodetypes="cccccc" /><path
           style="fill:#eff6f2;fill-opacity:1;stroke-width:4;stroke-linecap:round;paint-order:stroke fill markers"
           d="m 56.647427,60.894029 -1.62175,-1.43466 -0.14438,0.65192 -2.14469,-1.507215 -0.0467,0.607979 -1.51679,-0.03072 0.37802,0.733036 -1.1256,0.60617 0.74194,1.52087 -0.75363,-0.26967 1.07516,1.72267 -0.79071,0.0184 1.51679,1.70554 -0.56694,0.20422 1.74226,1.74227 -0.44433,-1.76566 -0.60804,-1.69549 -0.44261,-2.43216 1.45521,-0.85989 3.30729,1.24023 z"
           id="path115618"
           sodipodi:nodetypes="ccccccccccccccccccccc" /><path
           style="fill:#eff6f2;fill-opacity:1;stroke-width:4;stroke-linecap:round;paint-order:stroke fill markers"
           d="m 81.231557,61.563869 1.11084,-0.10524 -0.35078,0.68988 1.3213,0.46773 -0.5028,1.01729 0.90037,1.15761 -0.91205,0.59635 0.38586,1.6838 -1.4967,-0.0468 0.43264,-2.12814 z"
           id="path115812"
           sodipodi:nodetypes="ccccccccccc" /></g><g
         inkscape:groupmode="layer"
         id="layer26"
         inkscape:label="fluff-top"><path
           style="fill:#000000;fill-opacity:1;stroke-width:4;stroke-linecap:round;paint-order:stroke fill markers"
           d="m 63.122037,58.165141 -0.11408,0.785329 1.61949,0.257248 -0.65482,0.532031 2.50227,-0.0736 -0.13348,0.50339 1.85174,-0.29864 -0.18058,0.46226 1.80262,-0.42711 1.78714,0.27218 -0.11692,-0.41511 2.1117,-0.06 -0.34606,-0.413388 1.37979,-0.198782 -0.54958,-0.432642 0.6665,-0.456029 -0.78927,-0.286479 c -3.22899,2.46365 -6.84731,1.177364 -10.46232,0.404376 z"
           id="path109671"
           sodipodi:nodetypes="ccccccccccccccccccc" /><path
           style="fill:#000000;fill-opacity:1;stroke-width:4;stroke-linecap:round;paint-order:stroke fill markers"
           d="m 73.701237,58.105648 0.95884,-0.222167 -0.56419,-0.499878 0.27771,-0.2514 -0.4268,-0.415105 0.23971,-0.467719 -1.33301,-0.198782 -0.22217,-0.409257 -1.28039,0.654809 -0.15785,0.549574 1.47332,-0.409258 0.74836,0.77759 z"
           id="path116089"
           sodipodi:nodetypes="ccccccccccccc" /><path
           style="fill:#000000;fill-opacity:1;stroke-width:4;stroke-linecap:round;paint-order:stroke fill markers"
           d="m 64.201657,55.204112 0.28847,-0.05546 0.29089,0.413038 0.40202,-0.237608 0.91929,0.65371 0.20257,-0.316261 1.12079,0.681005 0.17939,-0.251057 1.04477,0.882864 -0.94129,0.0058 -1.46748,-0.409255 -2.14129,-0.958831 z"
           id="path116015"
           sodipodi:nodetypes="ccccccccccccc" /><path
           style="fill:#000000;fill-opacity:1;stroke-width:4;stroke-linecap:round;paint-order:stroke fill markers"
           d="m 64.198567,55.144772 -1.39733,-0.115755 0.31419,0.454753 -1.17408,0.37207 0.56224,0.51263 -0.84336,0.595313 1.00045,0.37207 -0.38861,0.686263 0.81856,0.454753 0.26458,-1.256771 0.38034,-1.480013 z"
           id="path116010" /><path
           style="fill:#eff6f2;fill-opacity:1;stroke-width:4;stroke-linecap:round;paint-order:stroke fill markers"
           d="m 63.181507,57.703743 c 0,0 4.3168,1.427164 6.49272,1.371854 2.17593,-0.05531 3.95686,-0.984565 3.95686,-0.984565 l 0.58133,0.13841 -0.6281,0.422855 0.3391,0.280631 -1.29209,0.204628 0.32156,0.344946 -2.19245,0.08186 0.28659,0.341277 -1.30305,-0.27697 -1.24063,0.39566 0.30028,-0.439339 -2.04191,0.293349 0.3762,-0.487825 -2.41035,0.09724 0.60788,-0.440368 -2.05223,-0.254997 0.25389,-0.497412 z"
           id="path107874"
           sodipodi:nodetypes="czcccccccccccccccccc" /><path
           style="fill:#eff6f2;fill-opacity:1;stroke-width:4;stroke-linecap:round;paint-order:stroke fill markers"
           d="m 64.173767,55.334942 -1.30247,0.107832 0.78983,0.115411 -1.20474,0.58597 0.75827,0.224904 -0.88471,0.561652 0.81855,0.33616 -0.7524,0.796587 1.14101,0.231511 0.24805,-1.107943 z"
           id="path116008"
           sodipodi:nodetypes="ccccccccccc" /><path
           style="fill:#eff6f2;fill-opacity:1;stroke-width:4;stroke-linecap:round;paint-order:stroke fill markers"
           d="m 69.152647,57.026965 -1.69549,-0.888671 0.3391,0.68989 -1.40316,-0.923751 -0.10527,0.561268 -1.09914,-0.865287 -0.46772,0.315713 -0.31571,-0.561268 -0.39757,0.210476 0.6782,0.724969 2.8648,0.783434 z"
           id="path116013"
           sodipodi:nodetypes="cccccccccccc" /><path
           style="fill:#eff6f2;fill-opacity:1;stroke-width:4;stroke-linecap:round;paint-order:stroke fill markers"
           d="m 70.205027,56.980192 1.0056,-0.643117 0.0256,0.325501 1.36833,-0.78471 0.0442,0.319237 1.18359,0.178619 -0.52017,0.307301 0.79371,0.454752 -0.51224,0.118695 0.6656,0.469069 -0.56763,0.358613 -0.77382,-1.343667 -0.82436,-0.05262 -1.08186,0.557035 z"
           id="path116087"
           sodipodi:nodetypes="ccccccccccccccc" /></g></g></g><g
     inkscape:groupmode="layer"
     id="layer3"
     inkscape:label="face"
     transform="translate(-0.08956574,-0.44782871)"><path
       style="fill:#000000;fill-opacity:1;stroke:none;stroke-width:4;stroke-linecap:round;paint-order:stroke fill markers"
       d="m 69.215997,57.866364 8.88154,-4.319423 1.2057,-8.545941 0.95382,-4.329108 -1.18533,-7.279486 -15.27969,-2.116667 -5.68854,8.069792 1.98438,12.468489 z"
       id="path26256"
       sodipodi:nodetypes="ccccccccc"
       inkscape:label="head-outline" /><path
       style="fill:url(#skin);fill-opacity:1;stroke:none;stroke-width:3.88902;stroke-linecap:round;paint-order:stroke fill markers"
       d="m 69.346437,57.263714 c 3.82443,-2.03313 7.5776,-3.014153 9.0581,-6.737245 1.48049,-3.723092 -0.1325,-4.168804 0.91462,-7.024018 1.0471,-2.855213 1.92309,-3.591965 0.37452,-7.878194 -1.54858,-4.286229 -4.86105,-8.594368 -12.40579,-9.236114 -7.54474,-0.641744 -10.98166,3.57644 -12.79552,8.232772 -1.81385,4.656331 0.23939,9.77689 4.25097,14.167559 4.01154,4.390663 4.97636,4.719334 10.6031,8.47524 z"
       id="path3928"
       sodipodi:nodetypes="czzzzzzc"
       inkscape:label="head" /><path
       style="fill:url(#skin-dark);fill-opacity:1;stroke:none;stroke-width:4;stroke-linecap:round;paint-order:stroke fill markers"
       d="m 61.146207,43.049698 c 5.12526,-5.053699 13.73912,-5.94966 18.3224,-0.661459 l 1.35599,-7.441406 -19.08308,-2.546615 z"
       id="path84279"
       sodipodi:nodetypes="ccccc" /><path
       style="fill:url(#skin-dark);fill-opacity:1;stroke:none;stroke-width:4;stroke-linecap:round;paint-order:stroke fill markers"
       d="m 62.518737,41.26376 c -0.71327,3.314612 -0.74675,7.141058 -0.56224,10.83138 l -1.37253,-1.273307 0.56224,-8.797396 z"
       id="path84405"
       sodipodi:nodetypes="ccccc" /><path
       style="fill:#000000;fill-opacity:1;stroke:none;stroke-width:4;stroke-linecap:round;paint-order:stroke fill markers"
       d="m 73.245607,49.151765 0.49261,0.671743 -1.16435,0.537395 0.80609,-0.626962 z"
       id="path9560"
       inkscape:label="nose" /><path
       style="fill:#000000;fill-opacity:1;stroke:none;stroke-width:5.30819;stroke-linecap:round;paint-order:stroke fill markers"
       d="m 73.093067,52.286792 c 0,0 -0.1187,0.407553 -0.79906,0.419746 -0.33827,0.0061 -0.72309,-5.98e-4 -1.12653,-0.02633 -0.58682,-0.03743 -1.15614,-0.62119 -1.15614,-0.62119 0.41805,0.325415 1.49811,0.636368 1.81798,0.643161 0.31988,0.0068 1.019,-0.1742 1.26375,-0.415387 z"
       id="path9782"
       sodipodi:nodetypes="cssczc"
       inkscape:label="mouth" /><g
       inkscape:groupmode="layer"
       id="layer17"
       inkscape:label="eyes"
       transform="translate(-0.06445,1.2599788)"><g
         inkscape:groupmode="layer"
         id="layer12"
         inkscape:label="right-eye"
         transform="translate(0,0.18708867)"><path
           style="fill:url(#white);fill-opacity:1;stroke:none;stroke-width:4;stroke-linecap:round;paint-order:stroke fill markers"
           d="m 63.502212,40.846902 c 0.86557,-0.994784 1.07966,-0.980292 2.6614,-0.92189 l 2.23933,1.324936 c 0,0 0.66405,1.162013 0.41706,2.485914 -0.24699,1.323901 -1.45322,2.852336 -3.07035,2.764547 -1.61713,-0.08779 -2.67689,-1.526213 -2.81383,-2.995486 -0.13693,-1.469273 0.56639,-2.658021 0.56639,-2.658021 z"
           id="path9528"
           sodipodi:nodetypes="ccczzzc"
           inkscape:label="white" /><g
           inkscape:groupmode="layer"
           id="layer13"
           inkscape:label="iris"
           transform="translate(-0.06617965,-0.77523389)"
           style="display:inline"><path
             style="fill:#000000;fill-opacity:1;stroke:none;stroke-width:5.68953;stroke-linecap:round;paint-order:stroke fill markers"
             d="m 65.729647,40.895333 c 1.41802,-0.0054 2.10219,1.543381 2.05897,2.814887 -0.0432,1.271511 -0.742,3.073516 -2.42579,2.995077 -1.68379,-0.07845 -2.25959,-1.764361 -2.21628,-2.992032 0.0432,-1.227668 1.16508,-2.812638 2.5831,-2.817932 z"
             id="path6565-8-8"
             sodipodi:nodetypes="zzzzz"
             inkscape:label="iris-outline" /><path
             style="fill:url(#eye);fill-opacity:1;stroke:none;stroke-width:5.02184;stroke-linecap:round;paint-order:stroke fill markers"
             d="m 65.688997,41.213833 c 1.24134,-0.0048 1.84027,1.373518 1.80244,2.505085 -0.0378,1.131569 -0.64955,2.735248 -2.12356,2.665441 -1.47401,-0.06981 -1.97806,-1.570177 -1.94015,-2.662733 0.0378,-1.092551 1.01993,-2.503082 2.26127,-2.507793 z"
             id="path6565-8"
             sodipodi:nodetypes="zzzzz"
             inkscape:label="iris" /><path
             style="display:inline;fill:url(#eye-shine);fill-opacity:1;stroke:none;stroke-width:4.63357;stroke-linecap:round;paint-order:stroke fill markers"
             d="m 64.427367,46.089475 c 0.78484,0.512654 1.56408,0.28224 1.96854,0.02179 0.10113,-0.06914 0.13113,-0.136954 0.16662,-0.257329 0.0743,-0.252054 0.0261,-0.486064 -0.26874,-0.79543 -0.2948,-0.309367 -1.00135,-0.411233 -1.46538,-0.07898 -0.46402,0.332258 -0.54978,0.81216 -0.46317,0.994918 0.0429,0.09045 0.0229,0.06485 0.0621,0.115041 z"
             id="path21011"
             sodipodi:nodetypes="ccszzscc" /><path
             style="display:inline;fill:#000000;fill-opacity:1;stroke:none;stroke-width:4;stroke-linecap:round;paint-order:stroke fill markers"
             d="m 63.636367,42.633935 1.96783,1.513085 2.02572,-0.611848 c -0.2635,-1.325996 -0.68526,-2.346761 -1.56269,-2.488737 -0.89246,0.195324 -1.87217,0.03622 -2.43086,1.5875 z"
             id="path34347"
             sodipodi:nodetypes="ccccc"
             inkscape:label="iris-shadow" /><path
             style="fill:#000000;fill-opacity:1;stroke:none;stroke-width:5.64438;stroke-linecap:round;paint-order:stroke fill markers"
             d="m 65.570867,42.715852 c -0.47909,0.0367 -0.86318,0.668042 -0.83121,1.181452 0.0319,0.513399 0.21519,1.013696 0.7852,0.97693 0.57004,-0.03677 0.88787,-0.726542 0.84596,-1.287541 -0.0418,-0.561009 -0.32089,-0.907528 -0.79995,-0.870841 z"
             id="path20955"
             sodipodi:nodetypes="zzzzz"
             inkscape:label="pupil" /><path
             style="fill:#dbdbdb;fill-opacity:1;stroke:none;stroke-width:4.12245;stroke-linecap:round;paint-order:stroke fill markers"
             d="m 65.280797,41.596747 c -0.3448,-0.01002 -0.67157,0.426569 -0.69172,0.808319 -0.0201,0.38175 0.0687,0.765536 0.47838,0.782576 0.40969,0.01704 0.69409,-0.467868 0.71113,-0.885545 0.017,-0.41768 -0.15299,-0.695303 -0.49779,-0.70535 z"
             id="path20955-4-5"
             sodipodi:nodetypes="zzzzz" /><path
             style="fill:url(#white);fill-opacity:1;stroke:none;stroke-width:3.36258;stroke-linecap:round;paint-order:stroke fill markers"
             d="m 65.265197,41.704549 c -0.27149,-0.0085 -0.52878,0.360448 -0.54464,0.683024 -0.0159,0.322577 0.0541,0.646874 0.37667,0.661272 0.32258,0.01439 0.5465,-0.395345 0.55991,-0.74828 0.0134,-0.352937 -0.12045,-0.587526 -0.39194,-0.596016 z"
             id="path20955-4"
             sodipodi:nodetypes="zzzzz" /></g><path
           style="fill:#000000;fill-opacity:1;stroke:none;stroke-width:4.43828;stroke-linecap:round;paint-order:stroke fill markers"
           d="m 62.894272,43.358894 c 0.0953,-1.535508 0.98977,-3.228126 3.25293,-2.890856 2.26316,0.33727 3.75978,2.672654 3.75978,2.672654 -0.0757,-0.492608 -0.27868,-1.076168 -0.67703,-1.593581 l 0.65742,0.518839 c 0,0 -0.43785,-2.878756 -3.67208,-2.889622 -2.19442,0.07935 -4.43034,1.596126 -3.32102,4.182566 z"
           id="path7757"
           sodipodi:nodetypes="czccccc"
           inkscape:label="eyelashes" /><path
           style="fill:#000000;fill-opacity:1;stroke:none;stroke-width:4.60752;stroke-linecap:round;paint-order:stroke fill markers"
           d="m 64.267987,45.987487 c 0,0 1.05724,0.432832 1.58816,0.437548 0.53091,0.0047 1.17146,-0.201559 1.17146,-0.201559 0,0 -0.40308,0.29725 -1.15595,0.30095 -0.75287,0.0037 -1.60367,-0.536939 -1.60367,-0.536939 z"
           id="path26911"
           sodipodi:nodetypes="czczc" /><path
           style="fill:#000000;fill-opacity:1;stroke:none;stroke-width:8.47703;stroke-linecap:round;paint-order:stroke fill markers"
           d="m 64.836027,46.22013 -0.35349,0.323522 0.66361,-0.200415 z"
           id="path26913"
           sodipodi:nodetypes="cccc" /><path
           style="fill:#000000;fill-opacity:1;stroke:none;stroke-width:7.80401;stroke-linecap:round;paint-order:stroke fill markers"
           d="m 64.460237,46.071226 -0.35188,0.266928 0.66854,-0.129086 z"
           id="path26913-0"
           sodipodi:nodetypes="cccc" /></g><g
         inkscape:groupmode="layer"
         id="layer14"
         inkscape:label="left-eye"><path
           style="fill:url(#white);fill-opacity:1;stroke:none;stroke-width:3.88827;stroke-linecap:round;paint-order:stroke fill markers"
           d="m 78.475812,43.067594 c -0.13718,-1.070836 -0.32639,-0.842551 -0.95576,-1.450568 l -2.51969,0.539343 c 0,0 -0.65124,0.895929 -0.65726,2.449328 -0.006,1.5534 0.89142,2.374498 1.7612,2.559112 0.8698,0.184614 1.91658,-0.736359 2.2223,-2.09837 0.30572,-1.362012 0.14918,-1.998848 0.14918,-1.998848 z"
           id="path9255"
           sodipodi:nodetypes="ccczzzcc"
           inkscape:label="white" /><g
           inkscape:groupmode="layer"
           id="layer15"
           inkscape:label="iris"
           transform="matrix(0.97912831,-0.03668438,0.03594291,0.9993269,0.54432775,5.63008)"><path
             style="fill:#000000;fill-opacity:1;stroke:none;stroke-width:4.58573;stroke-linecap:round;paint-order:stroke fill markers"
             d="m 76.084687,38.745519 c 1.05117,0.09393 1.44429,1.488492 1.31879,2.591429 -0.12556,1.102935 -0.77577,2.621735 -2.01773,2.436501 -1.24195,-0.185236 -1.54467,-1.691636 -1.42232,-2.75644 0.1223,-1.064801 1.07012,-2.365427 2.12126,-2.27149 z"
             id="path6565-4"
             sodipodi:nodetypes="zzzzz"
             inkscape:label="iris-outline" /><path
             style="fill:url(#eye);fill-opacity:1;stroke:none;stroke-width:4.05312;stroke-linecap:round;paint-order:stroke fill markers"
             d="m 76.065647,39.006703 c 0.91612,0.0842 1.25874,1.334222 1.14935,2.322847 -0.10943,0.988623 -0.6761,2.350012 -1.75849,2.183975 -1.0824,-0.166037 -1.34623,-1.516311 -1.23961,-2.470754 0.10659,-0.954443 0.93265,-2.120267 1.84875,-2.036068 z"
             id="path6565"
             sodipodi:nodetypes="zzzzz"
             inkscape:label="iris" /><path
             style="display:inline;fill:url(#eye-shine);fill-opacity:1;stroke:none;stroke-width:3.76896;stroke-linecap:round;paint-order:stroke fill markers"
             d="m 76.265817,43.319054 c 0.0621,-0.07386 0.0675,-0.07869 0.1073,-0.182042 0.0312,-0.08121 0.0316,-0.478165 -0.20943,-0.687115 -0.24102,-0.20895 -0.62932,-0.261884 -0.95268,-0.08152 -0.32334,0.180363 -0.41231,0.620844 -0.3399,0.796527 0.0311,0.0755 0.0427,0.0867 0.0922,0.166071 0.47827,0.285636 0.9881,0.236786 1.30254,-0.01192 z"
             id="path21011-7"
             sodipodi:nodetypes="cszzscc" /><path
             style="display:inline;fill:#000000;fill-opacity:1;stroke:none;stroke-width:4.04105;stroke-linecap:round;paint-order:stroke fill markers"
             d="m 74.286047,40.408278 1.46319,1.087937 1.58524,-0.396866 c -0.0564,-1.253491 -0.39645,-2.071538 -1.16803,-2.22716 -0.61809,0.274803 -1.20776,-0.224788 -1.8804,1.536089 z"
             id="path34350"
             sodipodi:nodetypes="ccccc"
             inkscape:label="iris-shadow" /><path
             style="display:inline;fill:#000000;fill-opacity:1;stroke:none;stroke-width:4.8662;stroke-linecap:round;paint-order:stroke fill markers"
             d="m 75.751867,40.331885 c -0.38868,-0.01297 -0.75,0.526363 -0.76672,0.998438 -0.0167,0.472076 0.0894,0.946865 0.55131,0.968653 0.46185,0.02179 0.77468,-0.577399 0.78732,-1.093912 0.0128,-0.516517 -0.1834,-0.860146 -0.57191,-0.873179 z"
             id="path20955-8"
             sodipodi:nodetypes="zzzzz"
             inkscape:label="pupil" /><path
             style="display:inline;fill:#dbdbdb;fill-opacity:1;stroke:none;stroke-width:3.42158;stroke-linecap:round;paint-order:stroke fill markers"
             d="m 75.563677,39.274388 c -0.27282,-0.0061 -0.52631,0.376741 -0.53793,0.709357 -0.0116,0.33262 0.063,0.666157 0.38724,0.677794 0.32423,0.01163 0.54365,-0.412882 0.55239,-0.776763 0.009,-0.363885 -0.12889,-0.604332 -0.4017,-0.610388 z"
             id="path20955-4-5-5"
             sodipodi:nodetypes="zzzzz" /><path
             style="display:inline;fill:url(#white);fill-opacity:1;stroke:none;stroke-width:2.7909;stroke-linecap:round;paint-order:stroke fill markers"
             d="m 75.552557,39.368393 c -0.21482,-0.0052 -0.41414,0.31804 -0.42301,0.59909 -0.009,0.281053 0.0501,0.562929 0.30541,0.572949 0.25528,0.01001 0.42774,-0.348572 0.43435,-0.656042 0.007,-0.30747 -0.10193,-0.510725 -0.31675,-0.515997 z"
             id="path20955-4-2"
             sodipodi:nodetypes="zzzzz" /></g><path
           style="fill:#000000;fill-opacity:1;stroke:none;stroke-width:4;stroke-linecap:round;paint-order:stroke fill markers"
           d="m 78.375422,44.714668 c 0.27761,-1.713031 0.11268,-2.467481 -0.97823,-2.838981 -1.09091,-0.3715 -3.98396,1.464289 -3.98396,1.464289 0.38122,-0.402577 0.59519,-0.815113 1.13643,-1.117676 l -0.78675,0.190827 c 0,0 1.81495,-2.178399 3.82379,-1.534016 2.00884,0.644383 1.24137,2.929346 0.78872,3.835557 z"
           id="path7593"
           sodipodi:nodetypes="czccczc"
           inkscape:label="lashes" /><path
           style="fill:#000000;fill-opacity:1;stroke:none;stroke-width:4;stroke-linecap:round;paint-order:stroke fill markers"
           d="m 77.819477,41.54607 c 0.81534,0.121532 1.4257,-0.06725 2.00918,-0.33165 -0.3929,0.610968 -0.82744,1.160197 -1.3957,1.511152 z"
           id="path26877"
           sodipodi:nodetypes="cccc" /><path
           style="fill:#000000;fill-opacity:1;stroke:none;stroke-width:4;stroke-linecap:round;paint-order:stroke fill markers"
           d="m 75.349957,46.854019 c 0,0 0.36844,0.216057 0.87356,0.23303 0.50511,0.01697 0.92717,-0.174565 0.92717,-0.174565 0,0 -0.42467,0.313442 -0.92717,0.291495 -0.5025,-0.02195 -0.87356,-0.34996 -0.87356,-0.34996 z"
           id="path26883"
           sodipodi:nodetypes="czczc" /><path
           style="fill:#000000;fill-opacity:1;stroke:none;stroke-width:6.18988;stroke-linecap:round;paint-order:stroke fill markers"
           d="m 77.104547,46.949441 0.23909,0.154377 -0.71943,-0.0335 z"
           id="path26887"
           sodipodi:nodetypes="cccc" /><path
           style="fill:#000000;fill-opacity:1;stroke:none;stroke-width:6.18988;stroke-linecap:round;paint-order:stroke fill markers"
           d="m 76.766827,47.096799 0.20463,0.191382 -0.70055,-0.151597 z"
           id="path26887-7"
           sodipodi:nodetypes="cccc" /></g></g><path
       style="fill:#000000;fill-opacity:1;stroke:none;stroke-width:4;stroke-linecap:round;paint-order:stroke fill markers"
       d="m 71.264117,53.075714 c 0,0 0.22948,0.04429 0.49527,0.04588 0.26578,0.0016 0.49318,-0.0017 0.49318,-0.0017 0,0 -0.20864,0.160194 -0.50149,0.145595 -0.29284,-0.0146 -0.48696,-0.189779 -0.48696,-0.189779 z"
       id="path27788"
       sodipodi:nodetypes="czczcc"
       inkscape:label="mouth-shadow" /></g><g
     inkscape:groupmode="layer"
     id="layer10"
     inkscape:label="hair-top"
     style="display:inline"><path
       style="display:inline;fill:#000000;fill-opacity:1;stroke:none;stroke-width:4;stroke-linecap:round;paint-order:stroke fill markers"
       d="m 61.651957,41.460853 c 0,0 -0.94994,9.674511 0.32117,13.730304 0.37879,1.208647 0.90113,2.08794 1.333,3.578072 1.47188,5.07855 2.09676,16.55878 2.09676,16.55878 l -7.9148,7.83163 c 0,0 -0.43856,-16.35414 -1.22117,-21.8881 -0.34105,-2.411568 -0.61695,-1.42466 -1.8475,-3.975634 -1.5356,-3.18333 -2.81056,-11.870826 -2.41914,-16.475555 0.39142,-4.604729 1.21357,-9.889796 3.81927,-12.750401 2.6057,-2.860605 5.46931,-4.08263 9.3648,-4.463703 3.89549,-0.381073 9.32467,0.587622 12.15413,2.636263 2.82946,2.048641 4.18541,6.638325 4.18541,6.638325 0,0 -0.82317,11.828605 -1.21608,16.066239 -0.39291,4.237635 -0.75576,7.89789 -0.17622,9.611681 0.31899,0.943304 1.12394,1.768775 1.25198,2.759555 0.91129,7.05171 2.21394,20.01287 2.21394,20.01287 l -6.23591,-6.85496 c 0,0 0.31543,-8.45548 -1.31891,-13.45772 -0.38401,-1.17535 -1.18634,-2.538679 -1.31019,-3.923357 -0.0972,-1.086845 -0.0739,-2.734677 -0.0739,-2.734677 2.18164,-0.888246 3.024,-2.718878 4.16511,-4.433427 l 0.35875,-5.292934 0.89113,-4.81036 -1.91727,-10.263733 -10.14957,-4.022407 -9.86892,3.461142 -3.60146,10.944685 0.93544,14.639689 2.38538,6.080379 1.07576,17.25893 3.92887,-4.11595 -1.40317,-14.592915 -2.43215,-5.986838 1.02899,-10.734212 z"
       id="path26567"
       sodipodi:nodetypes="cssccsszzzzczssccsscccccccccccccccc"
       inkscape:label="outline" /><path
       id="path20695"
       style="display:inline;fill:url(#hair);fill-opacity:1;stroke:none;stroke-width:4;stroke-linecap:round;paint-order:stroke fill markers"
       d="m 65.831367,24.379534 c -2.98061,0.09173 -7.24528,1.966147 -9.22511,4.27674 -2.64218,3.083598 -3.76084,9.48827 -3.80984,13.949066 -0.049,4.460796 1.07663,12.655476 2.7541,14.946522 0.66324,0.90583 0.92483,1.483358 1.1374,2.439127 0.88903,3.99749 1.29967,21.57348 1.29967,21.57348 l 6.88484,-6.47883 c 0,0 -0.66163,-12.41302 -2.12338,-16.266154 -0.38054,-1.003091 -0.7903,-1.823148 -1.20265,-2.513289 -1.40909,-2.358343 -1.31518,-15.326086 -0.18176,-22.667603 l 5.86906,-6.78936 c 2.46892,0.243506 5.75227,1.838364 8.27553,2.119259 l 3.11689,6.302559 c -0.18794,0.617588 1.40296,4.730754 0.37305,8.407227 -0.19002,0.678326 -0.0899,1.140655 0.0681,2.381513 0.32257,2.532783 0.27302,5.379091 -3.84982,7.795108 -0.26928,3.150494 -0.22288,3.307209 0.0167,3.940358 0,0 0.43221,1.316698 0.97366,2.227502 1.34992,2.27079 1.81655,14.29706 1.81655,14.29706 l 4.90101,5.46551 c 0,0 -1.18976,-13.50939 -2.33972,-19.35861 -0.11523,-0.58614 -0.49341,-1.088315 -0.75846,-1.623649 -1.16946,-2.362048 1.48927,-24.540743 1.48927,-24.540743 0,0 -1.83587,-5.798078 -5.0083,-7.717469 -3.17243,-1.919391 -7.49612,-2.257059 -10.47672,-2.165324 z"
       sodipodi:nodetypes="zssscccssccccsscssccssczzz"
       inkscape:label="main-hair" /><path
       style="display:inline;fill:url(#hair-green-dark);fill-opacity:1;stroke-width:4;stroke-linecap:round;paint-order:stroke fill markers"
       d="m 75.557667,58.673053 c -0.53217,-3.051618 2.87088,-6.981968 3.39969,-9.026653 0.52881,-2.044686 1.31666,-5.41496 1.31666,-5.41496 l 0.2295,-2.29103 -0.89297,0.06615 -1.05833,8.301302 -3.47266,4.001823 c 0.0167,1.417005 -0.39911,2.693619 0.47811,4.363368 z"
       id="path93559"
       inkscape:label="face-shadow"
       sodipodi:nodetypes="czcccccc" /><path
       style="display:inline;fill:url(#hair-magenta-dark);fill-opacity:1;stroke-width:4;stroke-linecap:round;paint-order:stroke fill markers"
       d="m 55.740737,38.014078 c -0.10586,2.385239 0.15093,6.397645 1.1693,8.968566 l 3.62778,-2.747807 c 0.008,-1.192937 0.0701,-1.602391 0.11831,-2.775322 z"
       id="path92867"
       sodipodi:nodetypes="ccccc"
       inkscape:label="bang-shadow" /><path
       style="display:inline;fill:#000000;fill-opacity:1;stroke:none;stroke-width:4;stroke-linecap:round;paint-order:stroke fill markers"
       d="m 56.994357,46.10095 7.53494,-7.300116 0.94375,-3.478616 1.17928,2.58427 5.42749,5.747754 c 0.85838,-0.718044 3.57552,-3.568484 4.80222,-4.42581 l 0.57878,-2.017449 0.27993,2.674894 5.68972,6.32094 c 0,0 0.0431,-5.444104 -0.57212,-8.79482 -0.61526,-3.350716 -2.02234,-8.325312 -8.14818,-9.329625 l 6.48788,6.61507 1.12448,8.73125 -3.83646,-4.266407 -0.66146,-6.217708 -1.65364,5.754688 -3.15283,2.354783 -0.15641,-7.772378 -2.11472,7.137386 -3.37344,-2.745052 -2.21588,-5.986198 -1.62058,6.515365 -6.2177,6.151562 -0.092,-12.580232 c 0,0 -1.58835,2.562769 -1.49548,6.70979 0.10217,2.257823 0.51593,5.979661 1.26243,7.616659 z"
       id="path26411"
       sodipodi:nodetypes="ccccccccczcccccccccccccccc"
       inkscape:label="bang-outline" /><path
       style="display:inline;fill:url(#hair);fill-opacity:1;stroke:none;stroke-width:4;stroke-linecap:round;paint-order:stroke fill markers"
       d="m 71.845147,42.92797 -4.89679,-5.241814 -1.55607,-4.87188 -1.27597,5.643378 -6.96079,6.605764 c 0,0 -2.87699,-11.534602 1.34667,-15.202835 4.22365,-3.668233 9.09263,-3.066174 9.09263,-3.066174 l 5.02011,7.764262 c 0.006,2.809205 0.0974,5.620729 -0.76979,8.369299 z"
       id="path20689"
       sodipodi:nodetypes="ccccczccc"
       inkscape:label="right-bangs" /><path
       style="display:inline;fill:url(#hair);fill-opacity:1;stroke:none;stroke-width:4;stroke-linecap:round;paint-order:stroke fill markers"
       d="m 72.574837,42.833014 4.00332,-4.036681 1.0865,-4.688788 0.45748,5.52206 4.81078,5.411837 c 0,0 0.29292,-11.260801 -3.39393,-14.081546 -3.68685,-2.820745 -5.88661,-4.362607 -12.29787,-4.065577 l 5.349,7.837181 c 0.1722,2.676328 0.46788,5.335818 -0.0153,8.101514 z"
       id="path20691"
       sodipodi:nodetypes="ccccczccc"
       inkscape:label="left-bangs" /><path
       style="display:inline;fill:#000000;fill-opacity:1;stroke:none;stroke-width:4;stroke-linecap:round;paint-order:stroke fill markers"
       d="m 75.068877,54.515634 c 0,0 2.21185,-1.655142 3.49382,-3.737081 1.28198,-2.081939 0.9266,-6.228062 0.9266,-6.228062 l 0.39189,-2.964276 -0.52695,-0.530505 c 0,0 -0.32769,1.269016 -0.45476,3.232878 -0.12707,1.963862 0.50788,3.994914 -0.97856,6.397984 -1.48644,2.403071 -2.50773,2.954861 -2.84756,3.202462 z"
       id="path26259"
       sodipodi:nodetypes="czccczzcc"
       inkscape:label="face-outline" /><g
       inkscape:groupmode="layer"
       id="layer16"
       inkscape:label="horns"><g
         inkscape:groupmode="layer"
         id="layer8"
         inkscape:label="left-horn"
         style="display:inline"
         transform="rotate(2.6192499,170.51344,67.336677)"><path
           style="display:inline;fill:url(#hair-blue-dark);fill-opacity:1;stroke-width:4;stroke-linecap:round;paint-order:stroke fill markers"
           d="m 75.394245,33.122728 c -1.812747,-0.234221 -2.496701,-0.788067 -5.557394,-0.668923 0.534367,0.13193 1.118738,0.21816 1.572248,0.423986 l -0.710744,0.274379 c 3.740535,0.405209 5.227358,1.152039 6.933686,2.107322 -0.352674,-1.220495 -1.475645,-1.448257 -2.237796,-2.136764 z"
           id="path92301"
           sodipodi:nodetypes="cccccc"
           inkscape:label="shadow" /><path
           style="display:inline;fill:#000000;fill-opacity:1;stroke:none;stroke-width:4;stroke-linecap:round;paint-order:stroke fill markers"
           d="m 75.848562,33.845534 c 1.31849,0.779732 2.12946,0.955569 2.12946,0.955569 l 3.79663,-6.142095 0.20575,-1.993233 -1.22033,0.480061 -0.64597,-4.555721 -3.5585,1.234453 -5.00663,8.83726 c 0,0 2.98111,0.403975 4.29959,1.183706 z"
           id="path74497"
           inkscape:label="left-horn-outline"
           sodipodi:nodetypes="zcccccccz" /><path
           style="display:inline;fill:#444d52;fill-opacity:1;stroke:none;stroke-width:8.67427;stroke-linecap:round;paint-order:stroke fill markers"
           d="m 72.405832,32.387346 4.67157,-8.2214 2.75657,-0.825272 0.65101,4.431104 1.17635,-0.695625 -0.25553,1.516088 -3.31904,5.164597 c -0.41921,-0.691213 -0.37432,-0.08196 -0.82313,0.270039 -0.763,-0.532707 -3.99435,-1.544311 -4.85776,-1.639531 z"
           id="path59838"
           sodipodi:nodetypes="cccccccccc"
           inkscape:label="left-horn" /><path
           style="display:inline;fill:#000000;fill-opacity:1;stroke-width:4;stroke-linecap:round;paint-order:stroke fill markers"
           d="m 80.561282,27.594006 -3.51074,6.879915 0.38121,0.306268 4.26742,-7.769575 z"
           id="path70865"
           sodipodi:nodetypes="ccccc" /><path
           style="fill:#1e2424;fill-opacity:1;stroke-width:4;stroke-linecap:round;paint-order:stroke fill markers"
           d="m 78.804632,24.257994 -1.73257,-0.09457 -4.67122,8.224475 c 0.91715,0.24464 1.87051,0.429184 2.7422,0.74927 z"
           id="path70941"
           sodipodi:nodetypes="ccccc" /><path
           style="fill:#869197;fill-opacity:1;stroke-width:4;stroke-linecap:round;paint-order:stroke fill markers"
           d="m 78.800052,24.262284 1.68074,3.485265 -3.21295,6.287344 c -0.76404,-0.365028 -1.53705,-0.740449 -2.12506,-0.901371 z"
           id="path71227"
           sodipodi:nodetypes="ccccc" /><path
           style="fill:#e2f8f8;fill-opacity:1;stroke-width:4;stroke-linecap:round;paint-order:stroke fill markers"
           d="m 78.799892,24.260534 1.03374,-0.923603 0.6499,4.413917 z"
           id="path71490"
           sodipodi:nodetypes="cccc" /></g><g
         inkscape:groupmode="layer"
         id="layer4"
         inkscape:label="right-horn"
         style="display:inline"
         transform="translate(0.06614583,-0.46302083)"><path
           style="display:inline;fill:url(#hair-magenta-dark);fill-opacity:1;stroke-width:4;stroke-linecap:round;paint-order:stroke fill markers"
           d="m 58.874467,29.793871 c -0.039,0.986106 -0.40455,1.808928 -0.11693,2.958339 0.69311,-0.885678 1.7044,-1.668969 2.92326,-2.069667 l -0.8126,0.810831 c 2.21983,-1.229948 4.94413,-2.168251 7.19699,-2.295848 l -1.88091,-0.200202 1.30655,-0.278275 c -1.73457,-0.592693 -3.21288,-0.388984 -4.82781,-0.702517 z"
           id="path73821"
           sodipodi:nodetypes="ccccccccc"
           inkscape:label="shadow" /><path
           style="display:inline;fill:#000000;fill-opacity:1;stroke:none;stroke-width:4;stroke-linecap:round;paint-order:stroke fill markers"
           d="m 61.751177,30.36489 c 1.44572,-0.604729 3.93567,-1.289844 3.93567,-1.289844 l -4.56406,-9.260417 -5.32474,-2.910416 -1.38906,4.597135 -1.52136,-1.719791 -4.69635,-1.488282 0.16537,3.274219 10.5075,10.285333 c 0,0 0.7324,-1.031088 1.13288,-1.418432 0.21273,0.266633 0.24722,0.381307 0.42235,0.577269 0.28404,-0.169016 0.97037,-0.495592 1.3318,-0.646774 z"
           id="path74331"
           inkscape:label="right-horn-outline"
           sodipodi:nodetypes="sccccccccccs" /><path
           style="display:inline;fill:#e2f8f8;fill-opacity:1;stroke:none;stroke-width:6.52818;stroke-linecap:round;paint-order:stroke fill markers"
           d="m 64.781487,28.925208 -4.2164,-8.686809 -4.29093,-2.381357 -1.1632,3.753578 2.93583,4.292193 -5.21543,-5.383152 -3.99937,-1.59896 0.14532,2.248642 9.85154,10.003983 c 0.23863,-0.371988 0.23758,-0.840054 1.33076,-1.245568 1.09318,-0.405514 3.72706,-0.847695 4.62188,-1.00255 z"
           id="path59836"
           sodipodi:nodetypes="ccccccccccc"
           inkscape:label="right-horn" /><path
           style="display:inline;fill:#869197;fill-opacity:1;stroke:none;stroke-width:4;stroke-linecap:round;paint-order:stroke fill markers"
           d="m 57.921127,20.070813 2.6956,0.158149 4.19579,8.729861 -1.90395,0.554415 z"
           id="path75784"
           sodipodi:nodetypes="ccccc" /><path
           style="display:inline;fill:#000000;fill-opacity:1;stroke:none;stroke-width:4;stroke-linecap:round;paint-order:stroke fill markers"
           d="m 57.928127,20.076133 -1.66706,-2.204537 -1.20603,3.890849 z"
           id="path78600"
           sodipodi:nodetypes="cccc" /><path
           style="display:inline;fill:#788389;fill-opacity:1;stroke:none;stroke-width:4;stroke-linecap:round;paint-order:stroke fill markers"
           d="m 49.633877,20.131627 3.20149,0.387009 3.61971,3.727334 2.9683,3.629473 0.99298,1.793884 -1.24262,1.04088 z"
           id="path85837"
           sodipodi:nodetypes="ccccccc" /><path
           style="display:inline;fill:#000000;fill-opacity:1;stroke:none;stroke-width:4;stroke-linecap:round;paint-order:stroke fill markers"
           d="m 57.200637,24.740488 2.38426,3.358907 -3.42305,-4.20026 z"
           id="path85559"
           sodipodi:nodetypes="cccc" /><path
           style="display:inline;fill:#1e2424;fill-opacity:1;stroke-width:4;stroke-linecap:round;paint-order:stroke fill markers"
           d="m 49.637997,20.131681 -0.66641,1.034806 9.86005,10.015824 c 0.11329,-0.154484 0.21123,-0.329044 0.34417,-0.473701 z"
           id="path573"
           sodipodi:nodetypes="ccccc" /><path
           style="display:inline;fill:#1e2424;fill-opacity:1;stroke:none;stroke-width:4;stroke-linecap:round;paint-order:stroke fill markers"
           d="m 55.097617,21.725673 2.82552,-1.65176 4.98941,9.441599 c -0.61622,0.256859 -1.89515,0.698911 -2.47302,0.994127 z"
           id="path74624"
           sodipodi:nodetypes="ccccc" /><path
           style="fill:#000000;fill-opacity:1;stroke-width:4;stroke-linecap:round;paint-order:stroke fill markers"
           d="m 48.812607,18.890109 0.83898,1.248232 -0.6782,1.052375 z"
           id="path15389"
           sodipodi:nodetypes="cccc" /><path
           style="fill:#000000;fill-opacity:1;stroke-width:4;stroke-linecap:round;paint-order:stroke fill markers"
           d="m 55.540487,23.269699 4.26765,7.078654 0.34727,-0.338997 -3.56361,-5.862174 z"
           id="path15391"
           sodipodi:nodetypes="ccccc" /></g></g><g
       inkscape:groupmode="layer"
       id="layer7"
       inkscape:label="shine"><path
         style="display:inline;fill:url(#hair-yellow);fill-opacity:1;stroke-width:4;stroke-linecap:round;paint-order:stroke fill markers"
         d="m 57.339937,31.315535 c 0.11047,0.385277 0.0157,0.770554 0.3456,1.155831 l 6.18065,1.685602 -6.38782,-0.318623 c -0.71395,1.350218 -0.92365,2.912753 -1.24196,4.429556 -0.26329,-2.282463 -0.0422,-4.210425 1.10353,-6.952366 z"
         id="path13462"
         sodipodi:nodetypes="cccccc" /><path
         style="display:inline;fill:url(#hair-magenta);fill-opacity:1;stroke-width:4;stroke-linecap:round;paint-order:stroke fill markers"
         d="m 82.520967,38.500827 c -0.40964,-1.876806 -0.86154,-3.346521 -2.2904,-5.142637 l -7.23461,0.446283 6.47226,-2.175821 -0.48997,-1.079733 c 0.76747,0.355327 2.01817,1.933404 2.55821,3.275272 0.54004,1.341868 0.98451,4.676636 0.98451,4.676636 z"
         id="path14279"
         sodipodi:nodetypes="ccccczc" /><path
         style="display:inline;fill:url(#hair-blue);fill-opacity:1;stroke-width:4;stroke-linecap:round;paint-order:stroke fill markers"
         d="m 67.906427,24.390858 c 2.37468,0.121924 4.09376,0.360587 6.46434,1.209414 l -2.99358,-0.06286 z"
         id="path14281"
         sodipodi:nodetypes="cccc" /><path
         style="fill:url(#hair-magenta);fill-opacity:1;stroke-width:4;stroke-linecap:round;paint-order:stroke fill markers"
         d="m 61.224767,55.588722 c 0.29145,0.569149 0.52534,1.03613 0.87697,1.718876 0.70231,1.363648 1.05666,2.717591 1.34471,4.174411 l -1.24532,-2.414609 0.0702,1.631179 -1.0816,-1.759801 -2.64263,-0.502803 2.49647,-0.327405 -0.0585,-0.941289 0.91206,1.023141 z"
         id="path40861"
         sodipodi:nodetypes="csccccccccc" /><path
         style="fill:url(#hair-blue);fill-opacity:1;stroke-width:4.31592;stroke-linecap:round;paint-order:stroke fill markers"
         d="m 79.680457,58.315549 c 0.009,0.136519 0.58355,1.124699 0.78914,1.71232 0.25253,0.72183 0.44708,2.25854 0.46338,2.48615 l -0.86387,-2.37725 -0.031,1.32376 -0.3392,-1.17209 -1.97531,-0.38024 1.83216,-0.26782 -0.21592,-0.880983 0.60059,0.860093 z"
         id="path40863"
         sodipodi:nodetypes="csccccccccc" /><path
         style="fill:url(#hair-green);fill-opacity:1;stroke-width:4;stroke-linecap:round;paint-order:stroke fill markers"
         d="m 67.588197,34.265001 1.60439,-0.146331 1.91823,-0.07442 -1.8769,0.388608 z"
         id="path60726"
         sodipodi:nodetypes="ccccc" /><path
         style="display:inline;fill:url(#hair-green);fill-opacity:1;stroke-width:5.43542;stroke-linecap:round;paint-order:stroke fill markers"
         d="m 58.818217,70.589459 0.002,-1.68181 0.62256,1.3406 -0.014,-4.11779 1.19067,4.19419 -0.0999,4.05503 -0.98342,-3.61001 0.0704,2.21578 z"
         id="path96634"
         sodipodi:nodetypes="ccccccccc" /><path
         style="fill:url(#hair-blue);fill-opacity:1;stroke-width:4;stroke-linecap:round;paint-order:stroke fill markers"
         d="m 58.321287,70.693729 -0.26022,-0.69446 -0.0556,0.7428 0.29579,0.88579 z"
         id="path97603" /><path
         style="display:inline;fill:url(#hair-yellow);fill-opacity:1;stroke-width:4;stroke-linecap:round;paint-order:stroke fill markers"
         d="m 81.181507,64.281169 0.033,4.08037 -0.40101,-1.49242 0.124,1.76941 -1.52549,0.38033 1.55856,0.0372 0.2439,1.11207 0.0786,-1.13274 1.09554,5.16764 c -0.31988,-3.32104 -0.70066,-6.63193 -1.2071,-9.92187 z"
         id="path98106"
         sodipodi:nodetypes="cccccccccc" /><path
         style="fill:url(#hair-magenta);fill-opacity:1;stroke-width:4.73818;stroke-linecap:round;paint-order:stroke fill markers"
         d="m 80.181057,62.974789 0.30671,0.70279 0.13603,1.61432 -0.33684,-1.48202 z"
         id="path98178"
         sodipodi:nodetypes="ccccc" /><path
         style="fill:url(#hair-blue-dark);fill-opacity:1;stroke-width:4;stroke-linecap:round;paint-order:stroke fill markers"
         d="m 62.611067,77.225079 1.02113,-0.95911 c -0.12935,-3.37033 -0.67134,-6.59061 -1.48601,-9.71172 0.43471,3.28347 0.80629,7.2463 0.46488,10.67083 z"
         id="path98510"
         sodipodi:nodetypes="cccc" /><path
         style="fill:url(#hair-magenta-dark);fill-opacity:1;stroke-width:4;stroke-linecap:round;paint-order:stroke fill markers"
         d="m 81.689297,78.421849 -1.06135,-1.19264 c 0.22061,-2.23099 0.32473,-4.08305 0.15371,-6.09026 0.61365,2.45092 0.71833,4.8926 0.90764,7.2829 z"
         id="path99133"
         sodipodi:nodetypes="cccc" /><path
         style="fill:url(#hair-blue);fill-opacity:1;stroke-width:4;stroke-linecap:round;paint-order:stroke fill markers"
         d="m 55.046597,31.187328 c -1.46713,3.021008 -1.83862,6.254921 -2.12589,8.85139 0.56782,-2.25202 1.01311,-4.544885 1.79236,-6.726427 0.037,-0.496521 0.17118,-1.424799 0.33353,-2.124963 z"
         id="path99879"
         sodipodi:nodetypes="cccc" /><path
         style="fill:url(#hair-yellow);fill-opacity:1;stroke-width:4;stroke-linecap:round;paint-order:stroke fill markers"
         d="m 55.682267,47.333434 0.36249,3.811932 1.74226,2.338606 0.53788,1.566869 -0.26899,-1.835808 -1.69548,-2.221677 z"
         id="path100809"
         sodipodi:nodetypes="ccccccc" /><path
         style="display:inline;fill:url(#hair-magenta);fill-opacity:1;stroke-width:4;stroke-linecap:round;paint-order:stroke fill markers"
         d="m 67.482797,25.24777 1.08521,0.605545 1.43823,0.309866 -1.55517,0.0059 z"
         id="path101294"
         sodipodi:nodetypes="ccccc" /><path
         style="fill:url(#hair-green);fill-opacity:1;stroke-width:4;stroke-linecap:round;paint-order:stroke fill markers"
         d="m 77.560027,54.450241 -0.81855,2.811198 0.78431,1.175679 0.16469,0.60199 0.0265,-0.628213 -0.65301,-1.116383 z"
         id="path101367"
         sodipodi:nodetypes="ccccccc" /></g><path
       style="fill:url(#hair);fill-opacity:1;stroke-width:4;stroke-linecap:round;paint-order:stroke fill markers"
       d="m 52.431597,55.00407 c 0.3776,-2.697912 0.76197,-6.470694 0.51235,-8.970168 0.76063,3.4231 0.92709,8.966596 2.20808,12.509632 L 54.110447,58.709 Z"
       id="path95717"
       sodipodi:nodetypes="ccccc"
       inkscape:label="right-shoulder-overlay" /><path
       style="fill:url(#hair-green-dark);fill-opacity:1;stroke-width:4;stroke-linecap:round;paint-order:stroke fill markers"
       d="m 55.150227,58.54706 -0.93794,0.30485 c 0,0 -0.67623,-5.187192 -0.70493,-6.981576 -0.0287,-1.794384 0.5145,-4.723991 0.5145,-4.723991 0,0 0.0503,4.750865 0.44433,6.220699 0.39399,1.469834 0.96762,2.543468 1.57991,3.522327 0.61228,0.97886 0.86895,1.280011 1.10794,2.61276 0.23898,1.33275 0.0575,2.18509 0.1819,4.29948 0.12442,2.11439 0.1956,6.49054 0.1956,6.49054 0,0 -0.1655,-7.12643 -1.01055,-10.58002 -0.27453,-1.121986 -0.34081,-1.149849 -1.18039,-2.465301 -0.77552,-1.215074 -1.27888,-3.689576 -1.27888,-3.689576 0.26349,1.704707 0.54881,3.459191 1.08851,4.989808 z"
       id="path96287"
       sodipodi:nodetypes="cczczzzzcsscc"
       inkscape:label="right-shoulder-overlay-shadow" /></g><g
     inkscape:groupmode="layer"
     id="layer11"
     inkscape:label="brows"><path
       style="fill:#000000;fill-opacity:1;stroke:none;stroke-width:4.9776;stroke-linecap:round;paint-order:stroke fill markers"
       d="m 64.041577,41.330441 c -0.87717,-0.03615 -2.20526,-0.505189 -3.04511,-0.891618 0.51967,0.920981 1.10849,1.638453 1.79905,2.056439 z"
       id="path26879"
       sodipodi:nodetypes="cccc"
       inkscape:label="right-eyelash" /><path
       style="fill:#000000;fill-opacity:1;stroke:none;stroke-width:4.60044;stroke-linecap:round;paint-order:stroke fill markers"
       d="m 74.552697,36.19687 c 0,0 2.15173,1.547844 3.04384,2.04205 0.89211,0.494206 2.23962,1.002479 2.23962,1.002479 0,0 -1.837,-0.321859 -2.71949,-0.719794 -0.88249,-0.397935 -2.49134,-1.66268 -2.49134,-1.66268 z"
       id="path9784"
       inkscape:label="left-brow"
       sodipodi:nodetypes="czczcc" /><path
       style="fill:#000000;fill-opacity:1;stroke:none;stroke-width:4;stroke-linecap:round;paint-order:stroke fill markers"
       d="m 69.701387,35.501061 -0.095,0.949989 c 0,0 -2.17501,0.775276 -3.45163,1.01332 -1.27662,0.238044 -4.17995,0.348329 -4.17995,0.348329 0,0 2.98714,-0.65264 4.27495,-1.044988 1.28781,-0.392348 3.45163,-1.26665 3.45163,-1.26665 z"
       id="path9786"
       inkscape:label="right-brow"
       sodipodi:nodetypes="cczczc" /><path
       style="fill:#000000;fill-opacity:1;stroke:none;stroke-width:4;stroke-linecap:round;paint-order:stroke fill markers"
       d="m 69.956577,42.120937 c 0,0 -0.50303,-0.781683 -1.14713,-1.332758 -0.64412,-0.551075 -2.10414,-0.832351 -2.10414,-0.832351 0,0 1.34936,0.0508 2.10511,0.64356 0.75576,0.592766 1.14616,1.521549 1.14616,1.521549 z"
       id="path25589"
       sodipodi:nodetypes="czczc"
       inkscape:label="eyelid-right" /><path
       style="fill:#000000;fill-opacity:1;stroke:none;stroke-width:4;stroke-linecap:round;paint-order:stroke fill markers"
       d="m 73.868087,42.428864 c 0,0 0.67004,-0.486635 1.30902,-0.752986 0.639,-0.26635 1.38122,-0.404976 1.38122,-0.404976 0,0 -0.76244,-0.05592 -1.47921,0.26569 -0.71677,0.321659 -1.21103,0.892272 -1.21103,0.892272 z"
       id="path25660"
       sodipodi:nodetypes="czczc"
       inkscape:label="eyelid-left" /></g><g
     inkscape:groupmode="layer"
     id="layer24"
     inkscape:label="blush"><path
       style="fill:url(#skin-blush);fill-opacity:1;stroke-width:4;stroke-linecap:round;paint-order:stroke fill markers"
       d="m 67.968317,49.506718 c 0,0 -0.79893,-0.485214 -1.50961,-0.818764 -0.7107,-0.333551 -1.78069,-0.747349 -1.78069,-0.747349 0,0 1.02833,0.225052 1.85435,0.580175 0.82603,0.355124 1.43595,0.985934 1.43595,0.985934 z"
       id="path105682"
       sodipodi:nodetypes="czczcc" /><path
       style="fill:url(#skin-blush);fill-opacity:1;stroke-width:4;stroke-linecap:round;paint-order:stroke fill markers"
       d="m 66.835997,49.444047 c 0,0 -0.79893,-0.485214 -1.50961,-0.818764 -0.71069,-0.333551 -1.78069,-0.747349 -1.78069,-0.747349 0,0 1.02833,0.225051 1.85435,0.580175 0.82603,0.355123 1.43595,0.985934 1.43595,0.985934 z"
       id="path105682-5"
       sodipodi:nodetypes="czczcc" /><path
       style="fill:url(#skin-blush);fill-opacity:1;stroke-width:4;stroke-linecap:round;paint-order:stroke fill markers"
       d="m 65.942937,49.470343 c 0,0 -0.79893,-0.485214 -1.50961,-0.818764 -0.71069,-0.333551 -1.78069,-0.747349 -1.78069,-0.747349 0,0 1.02833,0.225051 1.85435,0.580175 0.82603,0.355123 1.43595,0.985934 1.43595,0.985934 z"
       id="path105682-5-8"
       sodipodi:nodetypes="czczcc" /><path
       style="fill:url(#skin-blush);fill-opacity:1;stroke-width:4;stroke-linecap:round;paint-order:stroke fill markers"
       d="m 79.292817,50.011419 c 0,0 -0.79893,-0.485214 -1.50961,-0.818764 -0.7107,-0.333551 -1.78069,-0.747349 -1.78069,-0.747349 0,0 1.02833,0.225052 1.85435,0.580175 0.82603,0.355124 1.43595,0.985934 1.43595,0.985934 z"
       id="path105682-7"
       sodipodi:nodetypes="czczcc" /><path
       style="fill:url(#skin-blush);fill-opacity:1;stroke-width:4;stroke-linecap:round;paint-order:stroke fill markers"
       d="m 78.160497,49.948748 c 0,0 -0.79893,-0.485214 -1.50961,-0.818764 -0.71069,-0.333551 -1.78069,-0.747349 -1.78069,-0.747349 0,0 1.02833,0.225051 1.85435,0.580175 0.82603,0.355123 1.43595,0.985934 1.43595,0.985934 z"
       id="path105682-5-1"
       sodipodi:nodetypes="czczcc" /><path
       style="fill:url(#skin-blush);fill-opacity:1;stroke-width:4;stroke-linecap:round;paint-order:stroke fill markers"
       d="m 77.267437,49.975044 c 0,0 -0.79893,-0.485214 -1.50961,-0.818764 -0.71069,-0.333551 -1.78069,-0.747349 -1.78069,-0.747349 0,0 1.02833,0.225051 1.85435,0.580175 0.82603,0.355123 1.43595,0.985934 1.43595,0.985934 z"
       id="path105682-5-8-7"
       sodipodi:nodetypes="czczcc" /></g></svg>
