<?xml version="1.0" encoding="UTF-8" standalone="no"?>
<!-- Created with Inkscape (http://www.inkscape.org/) -->

<svg
   width="1200"
   height="1200"
   viewBox="0 0 317.5 317.5"
   version="1.1"
   id="svg5"
   xml:space="preserve"
   inkscape:version="1.2.2 (732a01da63, 2022-12-09)"
   sodipodi:docname="portrait.svg"
   inkscape:export-filename="sketch-3.png"
   inkscape:export-xdpi="96"
   inkscape:export-ydpi="96"
   xmlns:inkscape="http://www.inkscape.org/namespaces/inkscape"
   xmlns:sodipodi="http://sodipodi.sourceforge.net/DTD/sodipodi-0.dtd"
   xmlns="http://www.w3.org/2000/svg"
   xmlns:svg="http://www.w3.org/2000/svg"><sodipodi:namedview
     id="namedview7"
     pagecolor="#ffffff"
     bordercolor="#666666"
     borderopacity="1.0"
     inkscape:showpageshadow="2"
     inkscape:pageopacity="0.0"
     inkscape:pagecheckerboard="0"
     inkscape:deskcolor="#d1d1d1"
     inkscape:document-units="mm"
     showgrid="false"
     inkscape:zoom="0.37282198"
     inkscape:cx="528.40232"
     inkscape:cy="844.90727"
     inkscape:window-width="1920"
     inkscape:window-height="1009"
     inkscape:window-x="1912"
     inkscape:window-y="-8"
     inkscape:window-maximized="1"
     inkscape:current-layer="svg5" /><defs
     id="defs2" /><g
     inkscape:groupmode="layer"
     id="layer5"
     inkscape:label="hair-behind"
     style="display:inline"><path
       style="display:none;fill:#b2962b;fill-opacity:1;stroke-width:0.467539;stroke-linecap:round;paint-order:stroke fill markers"
       d="m 183.63717,26.648893 c 17.93544,6.748961 33.09294,13.616843 43.79762,37.551099 10.70469,23.934256 2.11641,65.671718 -0.11296,80.614108 -2.22937,14.94239 -7.19924,52.81843 21.8468,95.72352 -3.16547,1.24848 -17.71482,-8.65102 -14.19715,-8.36431 5.26236,0.42885 -18.16401,57.81227 -19.73366,56.62073 2.99899,-15.36719 5.41349,-23.65968 4.57961,-51.20075 -7.61927,18.50508 -19.27572,32.50192 -35.23612,41.69266 23.81941,-24.13162 17.8518,-53.10392 22.36577,-80.37285 L 131.0208,179.93034 85.433542,219.98749 120.39976,163.30418 c -16.2332,11.04077 -19.84063,15.81552 -46.753449,13.36979 14.858971,-7.11327 24.717048,-13.73879 30.242889,-25.14933 -6.732542,3.27308 -17.936135,2.74759 -24.453176,-13.84217 5.502795,6.605 19.537367,3.94588 21.906716,-0.25047 2.36937,-4.19641 11.50089,-62.66673 24.93888,-85.63145 13.43798,-22.964718 39.42011,-31.900617 57.35555,-25.151657 z"
       id="path11259"
       sodipodi:nodetypes="zzzcscccccccccczzz" /><path
       style="display:inline;fill:#010101;fill-opacity:1;stroke-width:0.674502;stroke-linecap:round;paint-order:stroke fill markers"
       d="m 109.14818,253.54314 c 13.36077,-2.89281 24.13103,-14.80132 24.8406,-20.63367 0.70956,-5.83234 2.3775,-18.27916 -2.00536,-25.59262 -4.38287,-7.31346 -2.68023,-17.66391 -2.68023,-17.66391 l -8.99463,-9.4953 -18.90787,22.49797 c 0,0 13.99489,14.77065 14.48009,20.46357 0.48519,5.69294 -2.00494,19.35466 -6.7326,30.42396 z"
       id="path25918"
       sodipodi:nodetypes="czzccczc" /><path
       style="display:inline;fill:#643d30;fill-opacity:1;stroke-width:0.674502;stroke-linecap:round;paint-order:stroke fill markers"
       d="m 116.50759,140.07441 7.27435,33.4272 c 0,0 -0.36992,28.85634 6.74844,38.31167 7.11835,9.45533 -3.04518,34.2885 -18.39251,39.35555 3.99672,-8.96869 10.96152,-25.62726 3.58161,-36.55273 -7.3799,-10.92546 -10.86081,-22.11322 -11.21789,-39.2265 -0.35709,-17.11327 -4.09722,-34.6494 -4.09722,-34.6494 l 4.50288,-31.5154 26.43943,5.0021 z"
       id="path25379"
       sodipodi:nodetypes="cczczzcccc" /><path
       style="fill:#000000;fill-opacity:1;stroke-width:0.674502;stroke-linecap:round;paint-order:stroke fill markers"
       d="m 127.16965,190.67688 0.67696,10.66205 4.06173,11.00053 24.53966,-6.43108 -1.86163,-10.66205 z"
       id="path30581" /></g><g
     inkscape:groupmode="layer"
     id="layer7"
     inkscape:label="clothes"
     style="display:inline"><path
       style="display:inline;fill:#000000;fill-opacity:1;stroke-width:0.674502;stroke-linecap:round;paint-order:stroke fill markers"
       d="m 79.025919,260.22541 c 0,0 18.037104,-32.35985 21.111491,-37.46523 3.07439,-5.10538 72.63971,-9.27618 72.63971,-9.27618 0,0 76.39468,3.39991 78.6898,11.43024 2.29512,8.03033 14.70428,39.03359 14.70428,39.03359 l -26.23615,18.10813 -21.49706,-15.73588 -71.80202,20.58324 -26.80609,-33.9863 z"
       id="path28379"
       sodipodi:nodetypes="czczcccccc" /><path
       style="display:inline;fill:#000000;fill-opacity:1;stroke-width:0.668839;stroke-linecap:round;paint-order:stroke fill markers"
       d="m 196.86386,181.28412 3.07856,19.9702 -47.93992,7.19265 -4.60879,-11.84673 z"
       id="path28214"
       sodipodi:nodetypes="ccccc" /><path
       style="display:inline;fill:#d3d3d3;fill-opacity:1;stroke-width:0.674502;stroke-linecap:round;paint-order:stroke fill markers"
       d="m 204.79561,219.88811 c 0,0 37.87029,3.21256 41.96914,5.05516 4.09885,1.84261 15.95115,42.09483 15.95115,42.09483 l -22.25861,19.86522 -20.77905,-16.54349 -74.06767,20.3128 -27.05745,-34.74418 -35.688651,4.51929 c 0,0 17.980361,-33.239 21.509931,-35.59406 3.52957,-2.35504 25.02909,-5.20491 25.02909,-5.20491 z"
       id="path26349"
       sodipodi:nodetypes="czcccccczcc" /><path
       style="display:inline;fill:#fee7d5;fill-opacity:1;stroke-width:0.674502;stroke-linecap:round;paint-order:stroke fill markers"
       d="m 149.60468,193.65244 c 5.12013,9.62017 8.55509,23.03172 -0.96434,34.39737 -5.35663,3.54569 -1.38825,17.53228 3.18908,28.21641 14.8895,-11.52657 25.25533,-24.67053 36.05227,-28.67063 10.79695,-4.00009 18.89408,0.0436 19.93805,0.0452 -6.29001,-11.93864 -16.95203,-37.89083 -11.10848,-58.41671 z"
       id="path27449"
       inkscape:label="neck"
       sodipodi:nodetypes="ccccccc" /><path
       style="display:inline;fill:#ab7b6b;fill-opacity:1;stroke-width:0.674502;stroke-linecap:round;paint-order:stroke fill markers"
       d="m 194.18829,207.43153 3.29269,-6.1712 -2.33886,-18.51715 -43.00139,16.40079 1.31458,4.02742 c 13.35933,-0.80609 27.06029,0.49666 40.73298,4.26014 z"
       id="path29493"
       inkscape:label="neck-shadow"
       sodipodi:nodetypes="cccccc" /><path
       style="display:none;fill:#fee7d5;fill-opacity:1;stroke-width:0.445498;stroke-linecap:round;paint-order:stroke fill markers"
       d="m 141.82758,173.08081 c 9.98195,-9.2874 32.08182,-6.20956 32.08182,-6.20956 0,0 28.90313,-3.43146 41.15111,2.68488 12.24798,6.11633 23.41106,27.71871 23.41106,27.71871 L 224.6336,211.7802 c -21.01585,-22.20151 -82.35315,-29.59656 -91.52627,1.14226 -6.59789,-4.31806 -9.35539,-8.68907 -16.63585,-8.77289 0,0 15.37414,-21.78135 25.3561,-31.06876 z"
       id="path11728"
       sodipodi:nodetypes="zczccccz"
       inkscape:label="shoulder-outline" /><path
       style="display:inline;fill:#000000;fill-opacity:1;stroke-width:0.674502;stroke-linecap:round;paint-order:stroke fill markers"
       d="m 136.28452,275.35516 -2.21514,8.99578 8.31831,8.41622 12.97519,-3.4747 1.28908,-9.51252 c -6.6881,-1.10457 -13.82415,-4.38359 -20.36744,-4.42478 z"
       id="path29904"
       sodipodi:nodetypes="cccccc"
       inkscape:label="tie-bottom-outline" /><path
       style="display:inline;fill:#8c4d90;fill-opacity:1;stroke-width:0.674502;stroke-linecap:round;paint-order:stroke fill markers"
       d="m 139.09676,276.49203 -3.11142,10.17195 6.22285,6.70153 10.29161,-3.11143 0.71802,-10.77031 z"
       id="path29167"
       sodipodi:nodetypes="cccccc"
       inkscape:label="tie-bottom" /><path
       style="display:inline;fill:#000000;fill-opacity:1;stroke-width:0.674502;stroke-linecap:round;paint-order:stroke fill markers"
       d="m 136.31443,261.9222 c 1.29419,-3.67325 3.27098,-3.78955 6.4921,-3.67985 l 7.59905,3.88927 10.71048,0.77787 1.0471,5.14581 -5.91128,13.5898 c -12.22887,0.6578 -20.29462,-3.78413 -20.22123,-5.04066 z"
       id="path29908"
       sodipodi:nodetypes="cccccccc" /><path
       style="display:inline;fill:#8c4d90;fill-opacity:1;stroke-width:0.628894;stroke-linecap:round;paint-order:stroke fill markers"
       d="m 148.00243,260.08833 5.23376,4.21569 c 2.42463,0.19939 6.08428,-0.68644 6.4253,2.48206 0.341,3.16851 -4.11187,7.99535 -5.4784,13.48731 -7.67711,0.64785 -13.66153,-0.0108 -15.48149,-3.88458 0.8084,-5.04658 -0.42228,-13.30195 0.27636,-14.7753 0.69865,-1.47335 4.04336,-1.4554 9.02447,-1.52518 z"
       id="path22332"
       sodipodi:nodetypes="cczcczc"
       inkscape:label="tie-knot" /><path
       style="fill:#000000;fill-opacity:1;stroke-width:0.674502;stroke-linecap:round;paint-order:stroke fill markers"
       d="m 151.78179,253.63505 20.46357,-27.40444 c 0.79862,-2.60388 1.59726,-5.30185 2.39589,-7.14515 7.42732,-7.24814 15.07659,-11.83281 22.61514,-17.74621 l -0.29918,-4.36797 7.95807,2.33357 9.69326,20.46359 c -9.29966,9.84996 -17.86415,24.84413 -24.87933,36.52736 l -10.08734,-24.18684 -28.40638,25.87402 -15.60916,-29.83764 -21.36111,14.8989 c 1.65415,-10.56562 5.52815,-21.96453 9.57361,-32.37073 l 29.49867,-7.24005 c 0.91876,4.92472 2.81995,8.67911 1.91472,16.03581 l -7.06054,13.82188 c 1.01063,4.38959 3.4802,17.71604 3.59011,20.3439 z"
       id="path22329"
       sodipodi:nodetypes="ccccccccccccccccc" /><path
       style="fill:#d3d3d3;fill-opacity:1;stroke-width:0.674502;stroke-linecap:round;paint-order:stroke fill markers"
       d="m 190.09464,250.2928 c 6.3181,-11.58469 15.55481,-20.76787 22.21115,-31.29548 -4.06841,-7.07745 -6.05831,-16.92789 -8.70937,-18.79275 -2.65106,-1.86487 -5.88188,-1.1714 -5.88188,-1.1714 l 0.53426,2.3486 c -8.6304,7.28541 -16.51126,12.15401 -22.53156,20.25679 -3.38168,14.45653 -18.39898,22.85 -24.47429,36.67212 l 32.25139,-25.25888 c 1.4538,5.97436 3.77923,11.69953 6.6003,17.241 z"
       id="path21858"
       sodipodi:nodetypes="cczcccccc" /><path
       style="display:inline;fill:#000000;fill-opacity:1;stroke-width:0.674502;stroke-linecap:round;paint-order:stroke fill markers"
       d="m 150.44001,260.99568 15.48537,-11.32626 15.47511,-24.18064 3.73352,13.67507 -3.51295,6.37726 c -3.90042,6.08358 -5.75857,12.23231 -12.62885,18.45731 -6.81729,1.87339 -10.3219,1.59203 -13.5672,2.06769 l -2.89944,-1.85816 -6.29246,-2.21587 z"
       id="path30007"
       sodipodi:nodetypes="cccccccccc" /><path
       style="display:inline;fill:#000000;fill-opacity:1;stroke-width:0.674502;stroke-linecap:round;paint-order:stroke fill markers"
       d="m 151.2439,260.91105 c -3.90661,-5.2182 -3.09969,-3.45319 -11.16977,-16.37386 -0.91556,-3.22062 -0.38374,-6.92372 -0.38079,-10.45051 l -5.66951,-11.67749 -2.70783,3.72326 -1.94801,4.73868 c -0.22564,5.21821 -1.26233,9.8617 -0.13843,16.55214 2.73866,6.47568 5.41198,8.75769 8.55507,13.41343 l 8.5184,1.26539 z"
       id="path30010"
       sodipodi:nodetypes="cccccccccc" /><path
       style="display:inline;fill:#8c4d90;fill-opacity:1;stroke-width:0.674502;stroke-linecap:round;paint-order:stroke fill markers"
       d="m 149.43546,262.58127 c 5.43022,-3.07353 10.75721,-5.61567 16.03683,-9.98219 5.58649,-5.80422 11.16131,-17.13791 16.02271,-24.75489 0.33132,2.67114 0.62712,8.59562 1.87967,10.6526 -6.35261,8.2075 -7.12909,15.40321 -15.77012,22.75257 -9.07742,3.51636 -8.22162,2.34208 -11.84586,3.6189 l -2.21778,-1.20731 z"
       id="path25300"
       inkscape:label="tie-left"
       sodipodi:nodetypes="cccccccc" /><path
       style="fill:#d3d3d3;fill-opacity:1;stroke-width:0.674502;stroke-linecap:round;paint-order:stroke fill markers"
       d="m 151.3031,258.42185 -5.14581,-25.37005 7.10461,-14.19593 c 1.28532,-4.0829 0.17347,-9.4393 -0.76633,-13.87095 -9.0869,2.69649 -15.68255,3.3079 -25.8845,7.49112 -4.98579,8.45161 -7.4678,17.38705 -9.89009,26.67292 6.61603,-4.80517 13.22801,-9.59408 19.6234,-13.5167 z"
       id="path21860"
       sodipodi:nodetypes="cccccccc" /><path
       style="display:inline;fill:#8c4d90;fill-opacity:1;stroke-width:0.674502;stroke-linecap:round;paint-order:stroke fill markers"
       d="m 138.20173,238.48944 c -0.94726,10.94867 6.79152,13.70627 10.56776,22.56515 l -4.32616,0.43513 c -18.04174,-12.14088 -12.25244,-22.94318 -13.09433,-28.36159 -0.84189,-5.4184 3.23023,-10.36796 3.23023,-10.36796 1.16519,1.74326 1.92618,7.12686 3.33953,9.68859 1.15907,2.15783 0.75659,0.56635 0.28297,6.04068 z"
       id="path25298"
       sodipodi:nodetypes="scczccs"
       inkscape:label="tie-right" /><path
       style="fill:#000000;fill-opacity:1;stroke-width:0.674502;stroke-linecap:round;paint-order:stroke fill markers"
       d="m 126.40807,211.74713 c 3.51798,4.94604 8.83479,9.71071 12.19812,18.95242 l -0.68721,1.58386 c -1.46689,-4.23169 -7.78105,-15.39976 -11.61005,-19.83029 z"
       id="path28465"
       sodipodi:nodetypes="ccccc" /><path
       style="fill:#000000;fill-opacity:1;stroke-width:0.674502;stroke-linecap:round;paint-order:stroke fill markers"
       d="m 183.01851,240.2639 0.59234,-6.34646 -3.55401,-13.53912 z"
       id="path28467"
       sodipodi:nodetypes="cccc" /><path
       style="fill:#000000;fill-opacity:1;stroke-width:0.674502;stroke-linecap:round;paint-order:stroke fill markers"
       d="m 151.58239,281.17743 -4.27329,8.08116 2.70783,-8.2504 z"
       id="path29913" /><path
       style="fill:#000000;fill-opacity:1;stroke-width:0.674502;stroke-linecap:round;paint-order:stroke fill markers"
       d="m 147.81681,283.67371 -2.2001,2.41165 -0.0846,3.63864 0.93081,-3.42709 z"
       id="path29915" /><path
       style="fill:#000000;fill-opacity:1;stroke-width:0.674502;stroke-linecap:round;paint-order:stroke fill markers"
       d="m 128.95473,231.40634 2.63273,-7.09045 1.58564,-2.63274 1.37619,2.33357 c -2.25068,2.0537 -2.4446,5.57651 -3.23109,8.67607 z"
       id="path30382"
       sodipodi:nodetypes="cccccc" /><path
       style="fill:#000000;fill-opacity:1;stroke-width:0.674502;stroke-linecap:round;paint-order:stroke fill markers"
       d="m 157.68151,264.81206 -3.8925,1.43853 -0.4231,6.64263 1.60778,-5.58489 5.41564,-2.6232 z"
       id="path30479" /><path
       style="fill:#000000;fill-opacity:1;stroke-width:0.674502;stroke-linecap:round;paint-order:stroke fill markers"
       d="m 144.41665,253.92615 -7.60747,-9.08295 0.39954,-10.90631 0.16062,10.7233 6.96054,8.35478 z"
       id="path30481" /><path
       style="fill:#000000;fill-opacity:1;stroke-width:0.674502;stroke-linecap:round;paint-order:stroke fill markers"
       d="m 160.3405,261.63032 6.72724,-2.45395 6.26184,-7.95424 -5.88105,8.54656 z"
       id="path30483" /></g><g
     inkscape:groupmode="layer"
     id="layer2"
     inkscape:label="head"
     style="display:inline"><path
       style="display:inline;fill:#010101;fill-opacity:1;stroke-width:0.674502;stroke-linecap:round;paint-order:stroke fill markers"
       d="m 136.65987,201.8505 c 0,0 51.76418,-4.32406 67.05285,-26.00794 15.28867,-21.6839 33.21773,-66.56454 33.21773,-66.56454 L 150.41446,49.849261 95.700389,90.440358 c 0,0 12.453071,50.924032 10.641141,67.231052 -1.81195,16.30701 30.31834,44.17909 30.31834,44.17909 z"
       id="path27783"
       inkscape:label="face-outline"
       sodipodi:nodetypes="czccczc" /><path
       style="display:inline;fill:#fee7d5;fill-opacity:1;stroke-width:0.674502;stroke-linecap:round;paint-order:stroke fill markers"
       d="m 137.64741,197.34423 c -9.5698,-14.01221 -22.94572,-21.57554 -26.65586,-34.07823 -3.71012,-12.5027 -0.12532,-15.03228 -0.14669,-26.20574 -0.0215,-11.17347 -12.557287,-27.0856 -2.24781,-47.851707 10.30948,-20.766111 31.37702,-44.083732 61.40763,-42.034378 30.03059,2.049349 56.23365,20.520283 64.47442,43.872684 8.24078,23.352391 -2.53593,43.230261 -18.52991,64.841301 -15.99399,21.61105 -46.4255,43.96562 -78.30178,41.45607 z"
       id="path357"
       sodipodi:nodetypes="czzzzzzc"
       inkscape:label="face" /><path
       style="display:inline;fill:#ab7b6b;fill-opacity:1;stroke-width:0.674502;stroke-linecap:round;paint-order:stroke fill markers"
       d="m 108.34155,119.60461 95.01802,40.44847 20.10456,-26.32741 -102.67689,-40.687811 -11.96701,28.242121 z"
       id="path7059"
       inkscape:label="face-shadow" /><path
       style="display:inline;fill:#7f6281;fill-opacity:1;stroke-width:0.851507;stroke-linecap:round;paint-order:stroke fill markers"
       d="m 157.9174,142.14958 c 0,0 9.16749,7.63167 12.42685,9.07522 3.25936,1.44354 16.03022,1.65591 16.03022,1.65591 -0.24749,1.00495 -0.54977,1.4397 -1.18992,1.85349 1.00948,0.80549 1.45114,1.11589 2.51824,1.42087 -0.41786,0.5414 -12.41553,-0.0418 -17.0714,-1.58592 -4.65587,-1.54406 -12.71434,-12.4213 -12.71434,-12.4213 z"
       id="path22974"
       sodipodi:nodetypes="czccczcc"
       inkscape:label="eye-bag-left" /><path
       style="display:inline;fill:#7f6281;fill-opacity:1;stroke-width:0.913427;stroke-linecap:round;paint-order:stroke fill markers"
       d="m 115.12493,133.6671 c 0.35034,0.66907 7.42163,3.86721 9.03603,4.85311 1.61438,0.98587 9.48517,-0.60316 9.48517,-0.60316 0,0 -7.79459,3.96787 -10.23272,3.00824 -2.43815,-0.95962 -10.16908,-5.16156 -10.16908,-5.16156 0.65189,0.003 1.49616,-0.7326 1.99694,-0.84589 -0.16391,-0.46679 -0.15049,-0.86283 -0.11629,-1.25082 z"
       id="path17338"
       sodipodi:nodetypes="czczcccc"
       inkscape:label="eye-bag-right" /><path
       style="fill:#000000;fill-opacity:1;stroke-width:0.674502;stroke-linecap:round;paint-order:stroke fill markers"
       d="m 156.70159,137.42471 c 0,0 10.20929,7.23358 18.6889,9.59962 8.47962,2.36605 22.80236,0.1295 22.80236,0.1295 0,0 -15.58679,8.91153 -25.61492,5.65647 -10.02815,-3.25507 -15.87634,-15.38555 -15.87634,-15.38555 z"
       id="path11664"
       inkscape:label="left-eyelash"
       sodipodi:nodetypes="czczc" /><path
       style="fill:#000000;fill-opacity:1;stroke-width:0.674502;stroke-linecap:round;paint-order:stroke fill markers"
       d="m 135.2475,134.11984 c 0,0 -8.14147,-4.96817 -14.72971,-7.02338 -6.58827,-2.05523 -19.2896,-1.7624 -19.2896,-1.7624 0,0 13.51447,-7.52254 21.0558,-4.64316 7.54135,2.87936 12.96351,13.42894 12.96351,13.42894 z"
       id="path11882"
       sodipodi:nodetypes="czczc"
       inkscape:label="right-eyelash" /><path
       style="display:inline;fill:#000000;fill-opacity:1;stroke-width:0.674502;stroke-linecap:round;paint-order:stroke fill markers"
       d="m 115.45357,134.96225 c 3.04908,2.13401 10.11829,4.5402 13.85147,4.26446 2.88675,-1.40246 3.4099,-4.7617 3.49474,-8.03344 l -16.16686,-7.31287 -4.61551,0.54135 c -0.70116,3.12137 0.47002,7.48462 3.43616,10.5405 z"
       id="path12311"
       sodipodi:nodetypes="cccccc" /><path
       style="display:inline;fill:#ffffff;fill-opacity:1;stroke-width:0.674502;stroke-linecap:round;paint-order:stroke fill markers"
       d="m 114.77792,134.21369 c 6.45699,3.2055 9.42892,2.55645 14.19113,3.85476 l 2.53271,-3.06726 -1.69114,-0.31363 -0.84619,1.14587 -2.19887,1.41058 -3.68816,-1.47251 -3.84491,-3.48337 -2.00802,-1.19486 -4.77781,-1.0349 c 0.43059,1.21864 1.16368,2.81489 2.33126,4.15532 z"
       id="path31795"
       sodipodi:nodetypes="ccccccccccc"
       inkscape:label="eye-whight" /><path
       style="fill:#c65fdc;fill-opacity:1;stroke-width:0.674502;stroke-linecap:round;paint-order:stroke fill markers"
       d="m 117.22448,131.09326 5.55762,1.24119 c 0,0 -0.22469,3.06258 2.44068,3.85871 2.66537,0.79613 4.09301,-2.21386 4.09301,-2.21386 l 2.5762,0.8058 c -0.70248,1.6801 -1.33377,3.21949 -2.66487,3.58044 -3.92475,0.14075 -7.28102,-1.22005 -10.25423,-2.41758 -1.41006,-1.04124 -2.0865,-2.97634 -1.74841,-4.8547 z"
       id="path12702"
       sodipodi:nodetypes="cczccccc" /><path
       style="fill:#000000;fill-opacity:1;stroke-width:0.674502;stroke-linecap:round;paint-order:stroke fill markers"
       d="m 121.45412,133.01983 c 0,0 0.12816,1.13415 0.74738,2.08372 0.61923,0.94958 1.37122,1.42612 1.37122,1.42612 0,0 -1.12175,-0.27161 -1.77611,-1.25225 -0.65437,-0.9806 -0.34249,-2.25759 -0.34249,-2.25759 z"
       id="path13622"
       sodipodi:nodetypes="czczc" /><path
       style="fill:#000000;fill-opacity:1;stroke-width:0.674502;stroke-linecap:round;paint-order:stroke fill markers"
       d="m 127.10405,137.34107 c 0,0 0.80947,-0.32371 1.58825,-0.82858 0.7788,-0.50488 1.4461,-1.63709 1.4461,-1.63709 0,0 -0.34993,1.22351 -1.18405,1.80627 -0.83411,0.58277 -1.8503,0.6594 -1.8503,0.6594 z"
       id="path13786"
       sodipodi:nodetypes="czczc" /><path
       style="fill:#ffffff;fill-opacity:1;stroke-width:0.850261;stroke-linecap:round;paint-order:stroke fill markers"
       d="m 119.62855,131.49317 3.6391,-1.84579 0.16764,4.51354 z"
       id="path13788" /><path
       style="fill:#000000;fill-opacity:1;stroke-width:0.556583;stroke-linecap:round;paint-order:stroke fill markers"
       d="m 127.46854,162.58814 -4.63229,-6.25049 4.09983,-1.57396 -1.88433,2.38711 z"
       id="path17174"
       sodipodi:nodetypes="ccccc" /><path
       style="fill:#000000;fill-opacity:1;stroke-width:0.674502;stroke-linecap:round;paint-order:stroke fill markers"
       d="m 164.01804,146.97913 c -2.2931,-2.36718 -5.51681,-5.55002 -8.5564,-7.59904 2.93005,0.34695 5.18321,2.22221 6.76136,3.47043 z"
       id="path5930"
       sodipodi:nodetypes="cccc" /><path
       style="fill:#000000;fill-opacity:1;stroke-width:0.674502;stroke-linecap:round;paint-order:stroke fill markers"
       d="m 131.56774,128.57705 c 1.31907,1.0916 2.81765,2.83969 3.8525,4.67098 l -2.56293,-1.8172 z"
       id="path5936"
       sodipodi:nodetypes="cccc" /><path
       style="fill:#000000;fill-opacity:1;stroke-width:0.674502;stroke-linecap:round;paint-order:stroke fill markers"
       d="m 174.93736,152.5558 -11.75786,-3.19382 -0.80015,-4.20244 z"
       id="path41053"
       sodipodi:nodetypes="cccc" /><path
       style="fill:#000000;fill-opacity:1;stroke-width:0.674502;stroke-linecap:round;paint-order:stroke fill markers"
       d="m 130.60374,127.48194 -4.85187,-8.03777 0.076,4.25377 z"
       id="path41055"
       sodipodi:nodetypes="cccc" /></g><g
     inkscape:groupmode="layer"
     id="layer8"
     inkscape:label="mouth"><path
       style="fill:#000000;fill-opacity:1;stroke-width:0.679564;stroke-linecap:round;paint-order:stroke fill markers"
       d="m 145.56982,169.71218 c 3.08779,0.95008 5.75368,2.70082 7.78475,5.14893 2.03106,2.44809 3.24077,5.29534 2.92682,8.31053 -0.31397,3.0152 -1.27162,5.35023 -3.89236,6.92546 -2.62076,1.57523 -6.67362,1.87312 -9.98739,0.78287 -3.31377,-1.09024 -6.04723,-3.36375 -7.96577,-6.41356 -1.91854,-3.04981 -3.51969,-7.94839 -2.92682,-10.74951 0.59284,-2.80111 1.56823,-3.63334 4.10357,-4.75748 2.53535,-1.12414 6.86943,-0.19732 9.9572,0.75276 z"
       id="path40281"
       sodipodi:nodetypes="zzzzzzzzz" /><path
       style="display:inline;fill:#5b1e1e;fill-opacity:1;stroke-width:0.748293;stroke-linecap:round;paint-order:stroke fill markers"
       d="m 145.78197,170.37829 c 3.26013,1.50426 5.97966,3.56945 7.55669,5.49176 1.57703,1.9223 3.18683,5.01832 2.4146,8.17492 -0.77218,3.15658 -3.84958,8.97612 -12.89478,6.22711 -9.04518,-2.74899 -11.84835,-13.70645 -10.17352,-17.86504 1.67484,-4.1586 9.15734,-3.59488 13.09701,-2.02875 z"
       id="path15120"
       sodipodi:nodetypes="czzzzc"
       inkscape:label="back" /><path
       id="path15120-3"
       style="display:inline;fill:#e680a1;fill-opacity:1;stroke-width:0.748293;stroke-linecap:round;paint-order:stroke fill markers"
       d="m 144.83579,180.52452 c -0.6683,0.003 -1.32663,0.0676 -1.96657,0.21332 -4.28433,0.97561 -5.87002,3.97867 -5.52454,6.25443 1.49236,1.67699 3.26241,2.5983 5.5161,3.28323 9.04521,2.74901 12.12243,-3.07078 12.89462,-6.22736 0.18345,-0.74989 0.24086,-1.48151 0.19729,-2.18268 -2.53808,0.0325 -6.69658,-1.35795 -11.1169,-1.34094 z"
       sodipodi:nodetypes="cscsscc"
       inkscape:label="tongue" /></g><g
     inkscape:groupmode="layer"
     id="layer10"
     inkscape:label="hair-mess-behind"><path
       style="fill:#000000;fill-opacity:1;stroke-width:0.674502;stroke-linecap:round;paint-order:stroke fill markers"
       d="m 248.02303,107.13237 c 4.59015,13.03781 10.59803,26.96219 16.24859,35.68822 -8.33694,-2.7764 -13.86942,-8.05023 -19.01904,-13.37649 z"
       id="path31812"
       sodipodi:nodetypes="cccc" /><path
       style="fill:#000000;fill-opacity:1;stroke-width:0.674502;stroke-linecap:round;paint-order:stroke fill markers"
       d="m 82.490559,124.50444 c 0,0 -8.21513,16.06545 -12.862172,17.60085 -4.647042,1.5354 -9.223522,-1.10006 -9.223522,-1.10006 -3.144862,5.91974 2.922194,13.83364 10.577435,13.36988 7.655239,-0.46376 15.316139,-5.16179 15.316139,-5.16179 z"
       id="path31809"
       sodipodi:nodetypes="czczcc" /><path
       style="fill:#9f804f;fill-opacity:1;stroke-width:0.674502;stroke-linecap:round;paint-order:stroke fill markers"
       d="m 242.50001,95.48098 c 6.39551,8.81879 2.96421,19.36437 16.55079,41.51914 -18.00183,-7.8141 -14.4852,-22.78099 -19.59709,-33.05719 z"
       id="path31486"
       sodipodi:nodetypes="cccc" /><path
       style="fill:#9f804f;fill-opacity:1;stroke-width:0.674502;stroke-linecap:round;paint-order:stroke fill markers"
       d="m 89.402819,113.77663 c 0,0 -9.2284,25.73258 -16.888559,30.11596 -7.660153,4.3834 -10.971469,0.58818 -10.971469,0.58818 0,0 -0.475683,4.86985 9.01517,7.66309 9.490848,2.79325 22.899118,-20.93991 22.899118,-20.93991 z"
       id="path31077"
       sodipodi:nodetypes="czczcc" /></g><g
     inkscape:groupmode="layer"
     id="layer4"
     inkscape:label="hair-front"
     style="display:inline"><path
       style="fill:#000000;fill-opacity:1;stroke-width:0.674502;stroke-linecap:round;paint-order:stroke fill markers"
       d="m 123.85975,147.4723 c 7.0017,1.37197 16.00606,-1.67688 21.03052,-3.47341 3.10654,2.66154 4.39249,4.58351 10.15146,8.32253 -1.46313,-4.43048 -2.59901,-7.14139 -2.82606,-10.96325 7.69382,-3.42493 18.29694,-7.9543 23.80219,-15.2831 2.48268,3.3939 10.10265,17.49253 13.54772,19.77204 -0.76551,3.53863 -1.49389,6.98159 -3.11376,9.67078 3.0516,-0.96714 5.89649,-1.33547 8.43161,-2.96217 1.24585,1.09561 1.55116,1.64427 5.05001,3.60233 -0.32397,-2.48741 -0.68227,-5.16204 -0.74072,-6.52938 l 4.07241,-3.58061 c 0,0 -0.37133,1.79216 -6.67763,13.5535 -6.30635,11.76129 -12.74134,34.7855 -13.14155,47.81773 -0.40021,13.03224 3.3366,24.24657 6.47041,29.21605 3.1338,4.96946 4.49276,19.90888 2.28289,30.39773 -2.20988,10.48884 -17.91286,15.78111 -17.91286,15.78111 1.42241,3.99445 14.12749,9.57441 26.1663,6.16383 12.03882,-3.41059 16.0622,-22.40703 16.94205,-28.54879 0.87985,-6.14175 -1.30472,-10.27077 -1.55166,-18.98977 -0.24694,-8.71902 -0.39548,-9.57136 -0.39548,-9.57136 0,0 11.01735,3.77438 17.24396,3.96715 6.2266,0.19277 14.774,0.43022 20.8805,6.08535 6.10652,5.65512 9.6696,17.40402 9.6696,17.40402 0,0 2.98499,-13.97854 -0.51124,-24.81118 -3.49625,-10.83264 -15.07815,-14.22301 -24.71451,-23.96421 -9.63637,-9.7412 3.19426,-55.22025 8.38949,-81.09835 5.19522,-25.87811 4.98825,-41.514621 -5.31227,-58.954949 -10.30053,-17.440326 -29.23045,-33.564219 -52.81409,-41.835909 -23.58363,-8.271697 -47.57451,-1.133349 -65.32296,4.447218 -17.74845,5.580565 -30.083141,43.017844 -39.193571,71.57638 -9.11044,28.55855 6.64985,80.83551 6.72604,97.57483 0.0762,16.73931 -23.471135,43.04237 -23.471135,43.04237 3.852128,3.50193 14.164075,3.31274 20.050645,-0.18873 5.88657,-3.50147 16.828661,-13.96362 19.358681,-21.56201 2.53004,-7.5984 3.45833,-29.53539 1.26333,-44.54439 -2.19499,-15.00898 -5.77874,-39.9729 -0.76136,-58.99386 l -0.7875,2.74442 12.0505,6.03179 0.52035,-9.43574 6.10689,-3.14912 c 3.68764,6.38843 7.16275,13.07364 12.47762,18.95894 -2.58575,3.17853 -9.76587,9.61915 -13.43682,12.31019 z"
       id="path31587"
       sodipodi:nodetypes="ccccccccccczzzzczzzczzczzzzzzzzczzzccccccc" /><path
       style="display:inline;fill:#9f804f;fill-opacity:1;stroke-width:0.674502;stroke-linecap:round;paint-order:stroke fill markers"
       d="m 178.99527,283.5155 c 8.06876,-1.63113 16.41255,-12.72897 18.57479,-24.04246 2.16226,-11.3135 -9.24611,-29.1291 -9.3964,-49.88101 -0.15031,-20.75192 1.02094,-34.45174 16.00943,-55.37439 14.9885,-20.92267 -2.34324,-74.302954 -2.34324,-74.302954 l 32.64993,-7.865527 c 0,0 16.14288,44.332681 -0.89387,82.818041 -17.03678,38.48537 -22.69174,57.17358 -22.11052,77.87103 0.58123,20.69743 6.3993,21.69876 1.67742,36.79119 -4.72189,15.09243 -20.45968,21.4396 -34.16754,13.98608 z"
       id="path7612"
       sodipodi:nodetypes="czzzcczzzc" /><path
       style="fill:#9f804f;fill-opacity:1;stroke-width:0.674502;stroke-linecap:round;paint-order:stroke fill markers"
       d="m 161.3728,38.795669 c 0,0 -8.98159,-9.877949 -31.05433,-5.00015 -22.07275,4.877799 -38.205191,48.499405 -43.400241,77.900221 -5.19506,29.4008 9.736214,77.5482 5.23685,95.85371 -4.49935,18.30552 -15.95594,35.47728 -21.593477,37.6715 6.769437,3.8989 26.048781,-5.10184 34.077878,-26.24637 8.02912,-21.1445 -5.214437,-47.19287 -2.36574,-76.43519 2.84865,-29.24234 24.44973,-85.3238 34.22655,-85.229857 9.77691,0.09399 22.17153,-2.867753 22.17153,-2.867753 z"
       id="path11233"
       sodipodi:nodetypes="czzzczzccc" /><path
       style="fill:#9f804f;fill-opacity:1;stroke-width:0.674502;stroke-linecap:round;paint-order:stroke fill markers"
       d="m 129.14488,146.08867 c 0,0 32.46682,-8.15283 44.33883,-20.4411 11.87202,-12.28827 12.4307,-48.447573 12.4307,-48.447573 L 161.22456,65.525166 c 0,0 0.81922,38.904484 -7.1662,52.496034 -7.98544,13.59155 -24.91348,28.06747 -24.91348,28.06747 z"
       id="path23712"
       sodipodi:nodetypes="czcczc"
       inkscape:label="bang-middle-upper" /><path
       style="display:inline;fill:#643d30;fill-opacity:1;stroke-width:0.674502;stroke-linecap:round;paint-order:stroke fill markers"
       d="m 138.93176,136.77425 13.95973,-16.7757 -1.56298,18.80657 c -3.37068,1.21288 -4.15325,2.0891 -8.03886,3.17324 -0.27747,-0.2475 -11.11401,3.75291 -14.10865,4.0774 2.11328,-2.37098 8.47816,-7.94162 9.75076,-9.28151 z"
       id="path39331"
       sodipodi:nodetypes="cccccc" /><path
       style="display:inline;fill:#9f804f;fill-opacity:1;stroke-width:0.674502;stroke-linecap:round;paint-order:stroke fill markers"
       d="m 151.61458,147.3662 c 0,0 -26.13808,-20.11629 -25.99389,-38.90866 0.14421,-18.792348 20.79264,-46.147226 20.79264,-46.147226 l 33.83889,14.3375 c 0,0 -20.76539,20.867955 -26.14983,32.351366 -5.38446,11.48342 -5.47105,28.27878 -2.48781,38.36702 z"
       id="path23710"
       sodipodi:nodetypes="czcczc" /><path
       style="fill:#9f804f;fill-opacity:1;stroke-width:0.639648;stroke-linecap:round;paint-order:stroke fill markers"
       d="m 117.77214,127.62994 c 0,0 -3.01107,-22.79436 1.39748,-32.68395 4.40854,-9.889575 31.69317,-24.339819 31.69317,-24.339819 L 130.83652,54.46246 c 0,0 -38.084041,11.15202 -39.015491,35.750847 -0.93143,24.598833 25.951111,37.416633 25.951111,37.416633 z"
       id="path23714"
       sodipodi:nodetypes="czcczc" /><path
       style="fill:#9f804f;fill-opacity:1;stroke-width:0.589294;stroke-linecap:round;paint-order:stroke fill markers"
       d="m 107.32185,124.86416 c 0,0 15.43807,-9.06417 25.54383,-17.2227 10.10576,-8.158541 18.51529,-37.456109 18.51529,-37.456109 l -18.85693,-10.60342 c 0,0 -2.30653,26.863179 -9.93909,37.180539 -7.63253,10.31736 -15.2631,28.10169 -15.2631,28.10169 z"
       id="path23716"
       sodipodi:nodetypes="czcczc" /><path
       style="fill:#9f804f;fill-opacity:1;stroke-width:0.674502;stroke-linecap:round;paint-order:stroke fill markers"
       d="m 198.46018,153.8537 c 0,0 -20.75934,-23.33868 -22.93816,-34.60091 -2.17883,-11.26225 7.68177,-38.707022 7.68177,-38.707022 l 26.35508,2.99938 c 0,0 -15.17817,26.885262 -14.94321,35.935202 0.23497,9.04994 3.84452,34.37335 3.84452,34.37335 z"
       id="path23866"
       sodipodi:nodetypes="czcczc"
       inkscape:label="bang-left-bottom" /><path
       style="display:inline;fill:#643d30;fill-opacity:1;stroke-width:0.674502;stroke-linecap:round;paint-order:stroke fill markers"
       d="m 198.39326,153.7704 c -4.00895,-4.32007 -4.54747,-4.42516 -8.55641,-10.2617 l 4.74735,-24.28269 c 2.03439,12.3659 2.87344,21.07973 3.80906,34.54439 z"
       id="path39211"
       sodipodi:nodetypes="cccc" /><path
       style="fill:#9f804f;fill-opacity:1;stroke-width:0.674502;stroke-linecap:round;paint-order:stroke fill markers"
       d="m 189.22603,153.20352 c 0,0 20.37815,-9.55093 26.83824,-21.26091 6.46009,-11.70998 -4.1099,-40.244679 -4.1099,-40.244679 l -18.44308,-1.312126 c 0,0 5.5314,19.297545 3.25779,30.844885 -2.27362,11.54733 -7.54305,31.97283 -7.54305,31.97283 z"
       id="path23868"
       sodipodi:nodetypes="czcczc" /><path
       style="fill:#9f804f;fill-opacity:1;stroke-width:0.674502;stroke-linecap:round;paint-order:stroke fill markers"
       d="m 138.43948,36.641753 c -8.57641,0.49469 17.37707,-16.642851 51.10447,-3.650797 33.72742,12.992051 43.28339,29.744007 48.00794,50.06547 4.72456,20.321474 -14.92443,20.547194 -19.54285,22.552174 -1.28014,0.55575 -104.30436,-38.77237 -104.30436,-38.77237 -13.2654,-2.990648 33.31121,-30.689168 24.7348,-30.194477 z"
       id="path23870"
       sodipodi:nodetypes="zzzscz" /><path
       style="display:inline;fill:#643d30;fill-opacity:1;stroke-width:0.674502;stroke-linecap:round;paint-order:stroke fill markers"
       d="m 230.28532,63.180182 -5.68432,-9.154758 -9.21459,-0.718019 c -7.84553,0.691261 -15.791,-1.713685 -21.83329,1.582257 12.34348,-0.542497 15.91279,-1.808447 29.13316,5.717615 z"
       id="path39616"
       sodipodi:nodetypes="cccccc" /><path
       style="fill:#9f804f;fill-opacity:1;stroke-width:0.674502;stroke-linecap:round;paint-order:stroke fill markers"
       d="m 215.22781,58.473794 c 52.30124,10.049803 18.92022,94.478856 16.3209,117.599956 -2.59931,23.1211 -1.07177,30.94113 3.91352,37.19523 4.98532,6.2541 7.33689,3.96704 17.94341,12.8462 10.60652,8.87916 10.14956,28.00149 7.67792,28.54341 0,0 -0.23968,-13.21693 -9.43393,-18.11638 -9.19422,-4.89948 -26.05234,-2.68779 -33.21262,-9.83835 -7.16026,-7.15058 -22.53342,-14.22883 -22.83273,-20.40666 -0.29934,-6.1778 15.38246,-56.55541 15.38246,-56.55541 z"
       id="path31265"
       sodipodi:nodetypes="czzzczzzcc"
       inkscape:label="path31265" /><path
       style="display:inline;fill:#643d30;fill-opacity:1;stroke-width:0.674502;stroke-linecap:round;paint-order:stroke fill markers"
       d="m 216.04459,186.85918 c 0.42888,9.37428 0.68275,18.39851 2.96184,31.47321 l 1.67537,5.68433 2.78233,3.7696 c 3.72417,1.54252 7.51495,2.28573 11.39858,1.91472 5.31471,1.15941 10.7567,0.79798 17.33445,7.15814 -3.00165,-2.22247 -22.84236,-5.1674 -27.16719,-5.88077 -4.32484,-0.71339 -10.75865,-7.97111 -10.75865,-7.97111 l -2.22832,-16.84505 1.18467,-14.21609 z"
       id="path39891"
       sodipodi:nodetypes="cccccczcccc" /><path
       style="display:inline;fill:#643d30;fill-opacity:1;stroke-width:0.674502;stroke-linecap:round;paint-order:stroke fill markers"
       d="m 221.68962,124.8429 c 0,0 -2.90132,11.58533 -6.26184,17.347 -3.36052,5.76167 -15.48535,17.85471 -15.48535,17.85471 l 8.03884,-16.83927 c 5.93977,-5.43565 11.33725,-11.14244 13.70835,-18.36244 z"
       id="path39473"
       sodipodi:nodetypes="czccc" /><path
       style="display:inline;fill:#000000;fill-opacity:1;stroke-width:0.674502;stroke-linecap:round;paint-order:stroke fill markers"
       d="m 152.46788,148.8584 c 0,0 -3.59052,-18.31829 -2.29284,-25.20741 1.29766,-6.88912 8.90137,-21.48516 8.90137,-21.48516 l 3.00991,-5.44781 c 0,0 -12.07183,13.69503 -13.24014,26.50242 -1.16831,12.80735 3.62168,25.63794 3.62168,25.63794 z"
       id="path335"
       sodipodi:nodetypes="czcczc" /><path
       style="display:inline;fill:#000000;fill-opacity:1;stroke-width:0.674502;stroke-linecap:round;paint-order:stroke fill markers"
       d="m 146.08671,142.59626 -8.24556,-8.37905 -0.32303,0.72511 7.20896,8.73126 z"
       id="path1204"
       sodipodi:nodetypes="ccccc" /><path
       style="display:inline;fill:#000000;fill-opacity:1;stroke-width:0.674502;stroke-linecap:round;paint-order:stroke fill markers"
       d="m 110.98453,123.58785 c -0.431,-0.8228 -22.557401,-19.24102 -18.053341,-37.700339 4.504044,-18.459315 19.513771,-34.473994 19.513771,-34.473994 0,0 -21.836211,21.851401 -23.283901,37.680815 -1.44769,15.829418 19.031871,33.773538 18.210321,36.156028 z"
       id="path3589"
       sodipodi:nodetypes="czczcc" /><path
       style="fill:#000000;fill-opacity:1;stroke-width:0.674502;stroke-linecap:round;paint-order:stroke fill markers"
       d="m 176.75668,125.266 c 0,0 7.31625,-11.21469 10.0021,-18.35319 2.68586,-7.138505 3.28316,-23.364208 3.28316,-23.364208 0,0 -3.43118,18.235358 -6.26787,24.975498 -2.83669,6.74014 -8.79441,15.47261 -8.79441,15.47261 z"
       id="path2625"
       sodipodi:nodetypes="czczcc" /><path
       style="fill:#000000;fill-opacity:1;stroke-width:0.674502;stroke-linecap:round;paint-order:stroke fill markers"
       d="m 126.77075,116.37352 c 0,0 -2.52007,-10.17969 -0.11966,-20.104571 2.40039,-9.92488 23.81433,-33.387942 23.81433,-33.387942 0,0 -23.32338,19.174779 -26.20774,29.199489 -2.88435,10.024714 0.59836,23.814344 0.59836,23.814344 z"
       id="path2627"
       sodipodi:nodetypes="czczcc" /><path
       style="fill:#000000;fill-opacity:1;stroke-width:0.674502;stroke-linecap:round;paint-order:stroke fill markers"
       d="m 118.41013,119.6185 -1.38503,0.16561 c -0.28004,-5.99989 -0.3718,-13.64848 0.2543,-17.0455 l 1.4662,-0.0483 c -0.91752,4.32496 -0.66473,11.78251 -0.33547,16.92812 z"
       id="path3592"
       sodipodi:nodetypes="ccccc" /><path
       style="fill:#000000;fill-opacity:1;stroke-width:0.674502;stroke-linecap:round;paint-order:stroke fill markers"
       d="m 140.11643,32.480726 c 0,0 3.27098,-0.638202 8.12347,-0.126928 4.85249,0.511274 9.77356,4.781002 9.77356,4.781002 0,0 -4.38538,-2.409728 -11.04286,-3.384782 -6.65747,-0.975053 -20.50533,1.118329 -24.60726,3.36777 l 7.26028,-5.398636 z"
       id="path4289"
       sodipodi:nodetypes="czczccc" /><path
       style="fill:#000000;fill-opacity:1;stroke-width:0.674502;stroke-linecap:round;paint-order:stroke fill markers"
       d="m 122.82164,46.785384 c 0,0 5.01705,-3.378573 11.78749,-4.008943 6.77046,-0.63037 16.03578,3.649935 16.03578,3.649935 0,0 -10.51924,-2.334662 -15.97595,-2.034392 -5.45671,0.300269 -11.84732,2.3934 -11.84732,2.3934 z"
       id="path5305"
       sodipodi:nodetypes="czczc" /><path
       style="fill:#000000;fill-opacity:1;stroke-width:0.674502;stroke-linecap:round;paint-order:stroke fill markers"
       d="m 190.80863,146.88628 c 6.25137,-19.97814 7.91225,-29.83335 6.41358,-49.316173 l -1.55431,22.130513 c 0.32017,6.43586 -3.9795,18.94085 -6.2183,27.3126 z"
       id="path5405"
       sodipodi:nodetypes="ccccc" /><path
       style="fill:#000000;fill-opacity:1;stroke-width:0.674502;stroke-linecap:round;paint-order:stroke fill markers"
       d="m 194.60082,150.38741 4.18867,-2.49627 0.4654,1.2693 -4.3579,2.75013 z"
       id="path5407" /><path
       style="fill:#000000;fill-opacity:1;stroke-width:0.674502;stroke-linecap:round;paint-order:stroke fill markers"
       d="m 211.65433,226.97811 c 1.11716,-4.9333 -2.37505,-22.36112 0.38867,-34.10113 2.76373,-11.74001 15.65725,-36.87872 16.22995,-58.65642 0.5727,-21.77771 -5.39762,-44.30309 -5.39762,-44.30309 0,0 6.04047,13.88101 7.10102,25.68002 2.30979,25.69723 -4.5258,49.23322 -13.31329,70.87186 -5.2344,12.95261 -4.05182,38.31855 2.27508,43.48476 z"
       id="path5661"
       sodipodi:nodetypes="czzcsccc" /><path
       style="fill:#000000;fill-opacity:1;stroke-width:0.674502;stroke-linecap:round;paint-order:stroke fill markers"
       d="m 125.90036,123.19284 c -2.42548,-2.34547 -3.81832,-5.04686 -4.86864,-7.35546 -0.79844,2.49163 -1.05727,4.1596 -0.0393,5.87461 z"
       id="path5938"
       sodipodi:nodetypes="cccc" /><path
       style="fill:#000000;fill-opacity:1;stroke-width:0.674502;stroke-linecap:round;paint-order:stroke fill markers"
       d="m 176.18408,148.26164 c 2.70815,2.66427 4.08582,4.3843 8.50384,7.56933 -5.53626,-0.75933 -11.09067,-2.11532 -12.14357,-3.73439 z"
       id="path5942"
       sodipodi:nodetypes="cccc" /><path
       style="fill:#000000;fill-opacity:1;stroke-width:0.674502;stroke-linecap:round;paint-order:stroke fill markers"
       d="m 208.62981,140.6926 c 1.31694,-1.38877 6.9337,-5.15106 9.56927,-11.70333 2.63557,-6.55227 5.56278,-13.77671 5.56278,-13.77671 0,0 -0.99488,7.68615 -3.0466,14.10741 -2.05173,6.42125 -13.99389,15.9488 -13.99389,15.9488 z"
       id="path6125"
       sodipodi:nodetypes="czczcc" /><path
       style="fill:#000000;fill-opacity:1;stroke-width:0.674502;stroke-linecap:round;paint-order:stroke fill markers"
       d="m 233.39674,67.548139 c -4.69208,-4.458642 -8.66137,-6.232735 -14.06122,-7.718717 0,0 5.95101,0.725883 8.49656,2.094224 2.54557,1.36834 6.88104,3.350761 6.88104,3.350761 z"
       id="path6236"
       sodipodi:nodetypes="cczcc" /><path
       style="fill:#000000;fill-opacity:1;stroke-width:0.729658;stroke-linecap:round;paint-order:stroke fill markers"
       d="m 180.93916,153.10177 c 3.95665,1.05773 7.16621,1.26984 11.63415,1.45865 -2.81476,-1.17602 -5.43677,-2.32682 -5.92765,-4.62494 z"
       id="path6298"
       sodipodi:nodetypes="cccc" /><path
       style="fill:#643d30;fill-opacity:1;stroke-width:0.674502;stroke-linecap:round;paint-order:stroke fill markers"
       d="m 118.27417,118.03393 c 1.94337,-1.27504 3.99753,-2.61865 6.163,-4.14357 l -0.88256,-18.616169 c -1.88047,2.312765 -3.49907,4.812599 -5.0411,7.576609 -0.55697,4.96157 -0.63899,10.06214 -0.23934,15.18313 z"
       id="path39339"
       sodipodi:nodetypes="ccccc" /><path
       style="fill:#643d30;fill-opacity:1;stroke-width:0.674502;stroke-linecap:round;paint-order:stroke fill markers"
       d="m 157.71729,63.578391 14.74493,-3.189097 7.08689,-9.41921 -15.14688,0.930814 z"
       id="path39614"
       sodipodi:nodetypes="ccccc" /></g><g
     inkscape:groupmode="layer"
     id="layer11"
     inkscape:label="hairlight"><path
       style="fill:#ffe89e;fill-opacity:1;stroke-width:0.705002;stroke-linecap:round;paint-order:stroke fill markers"
       d="m 203.78027,80.493125 10.27525,2.58251 2.53814,-2.641813 4.57336,6.100997 -7.03749,-1.649985 -8.70086,1.65932 z"
       id="path38338" /><path
       style="fill:#ffe89e;fill-opacity:1;stroke-width:0.849501;stroke-linecap:round;paint-order:stroke fill markers"
       d="m 192.92855,83.458555 -4.35039,0.435541 -4.28324,-0.702972 -5.35379,0.1953 -5.27876,-1.07716 4.87321,2.202556 6.13102,-0.433679 4.24773,1.305705 z"
       id="path38673" /><path
       style="fill:#ffe89e;fill-opacity:1;stroke-width:0.693112;stroke-linecap:round;paint-order:stroke fill markers"
       d="m 229.14224,65.674211 5.27171,3.451838 4.55128,6.003556 -5.00883,-3.385855 -1.35478,3.140342 -2.97807,2.215098 1.07651,-3.382764 1.85694,-2.295188 z"
       id="path38675" /><path
       style="fill:#ffe89e;fill-opacity:1;stroke-width:0.674502;stroke-linecap:round;paint-order:stroke fill markers"
       d="m 114.18288,50.086345 -5.16677,5.596424 -5.03875,7.224986 4.82821,-5.194925 5.08016,3.111791 -3.0881,-3.965559 z"
       id="path38677"
       sodipodi:nodetypes="ccccccc" /><path
       style="fill:#ffe89e;fill-opacity:1;stroke-width:0.674502;stroke-linecap:round;paint-order:stroke fill markers"
       d="m 123.0624,67.634538 5.63935,3.342913 8.83666,0.832259 -2.43375,1.543745 -6.57598,-1.312969 -3.2113,-2.334192 z"
       id="path38679"
       sodipodi:nodetypes="ccccccc" /><path
       style="fill:#643d30;fill-opacity:1;stroke-width:0.674502;stroke-linecap:round;paint-order:stroke fill markers"
       d="m 171.76667,44.092812 -12.20633,-10.291625 23.45532,9.573602 20.32586,-4.302106 13.53372,7.953806 -23.92697,5.084214 z"
       id="path38808"
       sodipodi:nodetypes="ccccccc" /><path
       style="fill:#643d30;fill-opacity:1;stroke-width:0.674502;stroke-linecap:round;paint-order:stroke fill markers"
       d="m 179.50681,50.25082 7.57345,0.16924 8.58888,3.934805 -1.86163,6.64263 -7.48883,-5.838742 -13.8776,5.246408 z"
       id="path39209" /></g><g
     inkscape:groupmode="layer"
     id="layer9"
     inkscape:label="hair-mess"><path
       style="fill:#000000;fill-opacity:1;stroke-width:0.674502;stroke-linecap:round;paint-order:stroke fill markers"
       d="m 92.898759,163.26016 c 0,0 3.50363,40.50792 16.077701,41.7174 12.57406,1.20948 12.35444,-10.49281 12.35444,-10.49281 0,0 -2.16943,3.08259 -7.02342,0.25386 -4.85398,-2.82872 -8.20809,-17.26238 -8.20809,-17.26238 l 0.59234,21.57798 z"
       id="path31821"
       sodipodi:nodetypes="czczccc" /><path
       style="fill:#000000;fill-opacity:1;stroke-width:0.674502;stroke-linecap:round;paint-order:stroke fill markers"
       d="m 232.57988,161.0533 c 0,0 10.55111,23.43646 11.83734,30.70062 1.28622,7.26413 0.33666,6.29755 0.83769,11.22534 0.50104,4.92778 6.09234,19.78092 6.09234,19.78092 l -15.67677,-10.88997 c 0,0 2.56425,-6.46401 3.53027,-10.65064 0.96603,-4.18664 -6.76136,-12.08667 -6.76136,-12.08667 l -2.43624,-10.59308 2.79524,4.90875 2.43036,-9.23019 c -0.89303,-4.35816 -1.96842,-8.16923 -2.64887,-13.16508 z"
       id="path31818"
       sodipodi:nodetypes="czzcczccccc" /><path
       style="fill:#000000;fill-opacity:1;stroke-width:0.674502;stroke-linecap:round;paint-order:stroke fill markers"
       d="m 236.98684,117.33087 c 0,0 7.88915,30.26958 17.10079,36.51741 9.21165,6.24784 16.22731,4.11058 16.22731,4.11058 0,0 -3.1117,10.11835 -14.24073,11.48831 -11.12902,1.36997 -20.5234,-11.36864 -20.5234,-11.36864 -1.5754,-4.18602 -0.8288,-9.22789 -2.15405,-17.95051 l 5.80398,14.12106 2.52936,-13.20902 c -2.51375,-8.784 -3.42992,-14.71208 -4.74326,-23.70919 z"
       id="path31815"
       sodipodi:nodetypes="czczccccc" /><path
       style="fill:#000000;fill-opacity:1;stroke-width:0.674502;stroke-linecap:round;paint-order:stroke fill markers"
       d="m 191.33272,52.589383 c 0,0 -3.33736,-13.201229 2.0822,-17.684621 5.41956,-4.483392 30.75594,-1.294477 44.0506,5.478279 0,0 -10.89352,-14.462013 -25.37004,-17.591497 -14.47653,-3.129485 -35.90773,1.671702 -39.73045,7.060531 -3.82273,5.38883 10.65063,21.1816 10.65063,21.1816 z"
       id="path31799"
       sodipodi:nodetypes="czczzcc" /><path
       style="fill:#000000;fill-opacity:1;stroke-width:0.674502;stroke-linecap:round;paint-order:stroke fill markers"
       d="m 157.21118,36.96945 c 0,0 -1.72743,-14.669048 -20.55417,-11.977549 -18.82675,2.691498 -32.70293,2.333717 -45.027551,10.662056 -12.32461,8.328338 -19.784284,19.678939 -19.859036,29.398017 -0.07475,9.719078 11.735566,18.327381 11.735566,18.327381 0,0 4.12182,-20.639348 11.83324,-30.738445 7.711431,-10.099095 37.196501,-21.366633 37.196501,-21.366633 4.24192,1.710709 5.45013,-1.553843 12.72573,5.132129 0.18164,-3.015152 -1.08209,-5.86709 -0.48599,-7.360012 2.36124,0.780808 9.20292,5.138779 12.43571,7.923056 z"
       id="path31805"
       sodipodi:nodetypes="czzzczcccc" /><path
       style="fill:#000000;fill-opacity:1;stroke-width:0.674502;stroke-linecap:round;paint-order:stroke fill markers"
       d="m 186.18691,50.435324 c 0,0 -22.84386,-15.41128 -34.40512,-9.453935 -11.56127,5.957345 -12.3271,27.443891 -11.12932,37.217381 1.19779,9.773498 6.10317,20.702916 6.22284,21.181598 0.11966,0.478682 10.98892,-38.927307 16.09562,-43.679564 5.10668,-4.752257 17.83083,-4.248286 17.83083,-4.248286 z"
       id="path31802"
       sodipodi:nodetypes="czzszcc" /><path
       style="fill:#000000;fill-opacity:1;stroke-width:0.674502;stroke-linecap:round;paint-order:stroke fill markers"
       d="m 188.16146,51.153343 6.88104,3.889277 c 0,0 29.63256,-3.244523 36.55918,1.735213 6.92665,4.979736 5.38516,11.248984 5.38516,11.248984 l 6.70154,9.932615 c 0,0 6.87377,-22.140654 -1.91473,-30.396188 -8.78849,-8.255535 -26.03874,-3.833455 -33.38793,-2.393403 -7.34921,1.440052 -20.22426,5.983502 -20.22426,5.983502 z"
       id="path31796"
       sodipodi:nodetypes="cczcczzc" /><path
       style="fill:#9f804f;fill-opacity:1;stroke-width:0.674502;stroke-linecap:round;paint-order:stroke fill markers"
       d="m 238.64305,127.92776 c 0,0 3.81428,14.52311 9.09601,23.91884 5.28172,9.39571 18.47051,8.4044 18.47051,8.4044 0,0 -7.36192,11.76144 -20.91423,3.2548 -13.55232,-8.50664 -11.16354,-27.95777 -11.16354,-27.95777 z"
       id="path31071"
       sodipodi:nodetypes="czczcc" /><path
       style="fill:#9f804f;fill-opacity:1;stroke-width:0.674502;stroke-linecap:round;paint-order:stroke fill markers"
       d="m 233.32313,165.05019 c 1.17439,12.2545 10.22467,22.46691 9.63725,30.81152 -0.58741,8.3446 4.51636,22.59182 4.51636,22.59182 l -9.30699,-7.60313 c 0,0 5.05577,-14.09851 0.91132,-17.76839 -4.14445,-3.66988 -7.93178,-11.58936 -9.85825,-17.91193 z"
       id="path31073"
       sodipodi:nodetypes="czcczcc" /><path
       style="fill:#9f804f;fill-opacity:1;stroke-width:0.7383;stroke-linecap:round;paint-order:stroke fill markers"
       d="m 184.88015,50.448 c 0,0 -15.82626,-15.705318 -7.60724,-21.059345 8.21901,-5.354029 33.5056,-11.998795 54.97715,6.858672 -16.58201,-7.557092 -30.27001,-8.204474 -40.14925,-3.692942 -9.87924,4.511532 -2.29074,18.917406 -2.29074,18.917406 z"
       id="path31075"
       sodipodi:nodetypes="czczcc" /><path
       style="fill:#9f804f;fill-opacity:1;stroke-width:0.674502;stroke-linecap:round;paint-order:stroke fill markers"
       d="m 183.63082,50.022491 c 0,0 -14.69041,-8.846773 -28.08618,-7.461334 -13.39577,1.385438 -15.8191,38.988616 -9.14801,50.329458 0,0 6.70132,-36.53196 14.37596,-40.750876 7.67462,-4.218915 16.98905,-2.486579 20.89042,-1.43091 3.42269,-0.739382 2.13704,-0.474786 2.13704,-0.474786 z"
       id="path31480"
       sodipodi:nodetypes="czczccc" /><path
       style="fill:#9f804f;fill-opacity:1;stroke-width:0.674502;stroke-linecap:round;paint-order:stroke fill markers"
       d="m 103.83021,174.76342 c 0,0 5.95726,22.79799 9.88742,23.37552 3.93016,0.57754 6.43006,-1.11766 6.43006,-1.11766 0,0 -2.53985,7.55486 -10.09522,6.42713 -7.55539,-1.12773 -15.713731,-36.67237 -15.713731,-36.67237 z"
       id="path31488"
       sodipodi:nodetypes="czczcc" /><path
       style="fill:#9f804f;fill-opacity:1;stroke-width:0.674502;stroke-linecap:round;paint-order:stroke fill markers"
       d="m 158.38905,37.571576 c 0,0 -8.89054,-12.403144 -23.55786,-11.175736 -14.66733,1.22741 -33.74869,6.88743 -42.694021,14.166048 -13.14302,10.694187 -24.00883,25.222356 -9.9698,38.153857 0,0 2.51538,-22.24561 14.24039,-31.322701 11.725001,-9.077093 21.436191,-16.294534 33.214371,-17.984563 11.7782,-1.690028 15.51238,4.479464 15.51238,4.479464 z"
       id="path31492"
       sodipodi:nodetypes="cssczscc" /><path
       style="fill:#9f804f;fill-opacity:1;stroke-width:0.674502;stroke-linecap:round;paint-order:stroke fill markers"
       d="m 190.44701,51.673087 c 0,0 34.00711,-9.826273 46.39115,-4.411814 12.38402,5.414459 5.53384,25.432675 5.53384,25.432675 0,0 -1.11112,-1.239313 -3.70746,-5.38234 1.04231,-4.481506 -1.30788,-9.493368 -5.42604,-11.804096 -12.89708,-7.236636 -38.4651,-1.717906 -38.4651,-1.717906 z"
       id="path31574"
       sodipodi:nodetypes="czccscc" /><path
       style="fill:#000000;fill-opacity:1;stroke-width:0.674502;stroke-linecap:round;paint-order:stroke fill markers"
       d="m 197.14997,179.16862 c 0,0 -2.89204,13.51239 -3.46939,21.57798 -0.57734,8.0656 3.38478,26.909 3.38478,26.909 0,0 -5.20003,-18.75199 -4.56945,-26.99362 0.63058,-8.24163 4.65406,-21.49336 4.65406,-21.49336 z"
       id="path37252"
       sodipodi:nodetypes="czczc" /><path
       style="fill:#000000;fill-opacity:1;stroke-width:0.674502;stroke-linecap:round;paint-order:stroke fill markers"
       d="m 218.67734,216.05866 c 0,0 1.54349,8.62588 5.41507,11.51825 3.87157,2.89235 16.48455,1.64545 16.48455,1.64545 0,0 -13.02846,1.99864 -17.11283,-0.95736 -4.08436,-2.956 -4.78679,-12.20634 -4.78679,-12.20634 z"
       id="path37254"
       sodipodi:nodetypes="czczc" /><path
       style="fill:#000000;fill-opacity:1;stroke-width:0.796644;stroke-linecap:round;paint-order:stroke fill markers"
       d="m 207.38705,78.710992 c 0,0 11.37709,4.708213 13.45584,7.081306 2.07875,2.373107 -14.97797,-23.428342 -14.97797,-23.428342 0,0 10.3793,18.06487 8.67577,17.966253 -1.70349,-0.09863 -7.15364,-1.619217 -7.15364,-1.619217 z"
       id="path37256"
       sodipodi:nodetypes="czczc" /><path
       style="display:inline;fill:#643d30;fill-opacity:1;stroke-width:0.674502;stroke-linecap:round;paint-order:stroke fill markers"
       d="m 238.30322,189.55174 c 0,0 2.19049,3.16086 2.87083,6.20896 0.68035,3.04809 -0.44239,10.1906 -0.44239,10.1906 0,0 0.49123,-6.95413 -0.10644,-9.95126 -0.59762,-2.99713 -2.32204,-6.4483 -2.32204,-6.4483 z"
       id="path40031"
       sodipodi:nodetypes="czczc" /><path
       style="fill:#000000;fill-opacity:1;stroke-width:0.674502;stroke-linecap:round;paint-order:stroke fill markers"
       d="m 182.25694,76.609793 c 0,0 -0.18405,10.912028 -0.67695,15.908469 -0.4929,4.996442 -3.4694,13.623738 -3.4694,13.623738 0,0 3.6985,-8.684063 4.44251,-13.771818 0.74402,-5.087756 -0.29616,-15.760389 -0.29616,-15.760389 z"
       id="path37378"
       sodipodi:nodetypes="czczc" /></g><g
     inkscape:groupmode="layer"
     id="layer3"
     inkscape:label="eyebrows"><path
       style="fill:#000000;fill-opacity:1;stroke-width:0.674502;stroke-linecap:round;paint-order:stroke fill markers"
       d="m 199.57132,134.21674 c 0,0 -10.90267,-3.66593 -17.09895,-7.36839 -6.19627,-3.70246 -14.01983,-11.28684 -14.01983,-11.28684 l 0.34371,-2.10801 c 0,0 7.04323,7.49809 14.12865,11.65301 7.0854,4.15493 16.64642,9.11023 16.64642,9.11023 z"
       id="path6667"
       sodipodi:nodetypes="czcczc" /><path
       style="fill:#000000;fill-opacity:1;stroke-width:0.674502;stroke-linecap:round;paint-order:stroke fill markers"
       d="m 110.2253,105.19802 c 0,0 11.17923,1.27137 16.72301,0.59848 5.54377,-0.67288 16.63976,-2.47702 16.63976,-2.47702 l -2.07422,1.81481 c 0,0 -7.97027,1.33111 -14.31367,2.04001 -6.3434,0.7089 -16.97488,-1.97628 -16.97488,-1.97628 z"
       id="path6669"
       sodipodi:nodetypes="czcczc" /><path
       style="fill:#000000;fill-opacity:1;stroke-width:0.674502;stroke-linecap:round;paint-order:stroke fill markers"
       d="m 167.21921,132.4093 10.7703,3.47043 -0.53851,0.17951 -12.44569,-3.23109 z"
       id="path6671"
       sodipodi:nodetypes="ccccc" /></g><g
     inkscape:groupmode="layer"
     id="layer6"
     inkscape:label="hand"
     style="display:inline"
     transform="matrix(0.84074947,0,0,0.95047488,21.279205,8.3459763)"><path
       style="fill:#010101;fill-opacity:1;stroke-width:0.674502;stroke-linecap:round;paint-order:stroke fill markers"
       d="m 62.894535,244.64754 c 0,0 -0.263938,-6.63826 5.48692,-10.22065 5.75084,-3.58237 43.815325,-14.16101 54.548115,-30.83859 10.73277,-16.67758 10.33882,-23.07039 5.58996,-31.22727 -4.74885,-8.15689 -11.92402,-7.93523 -20.7036,-7.20835 -8.779545,0.72689 -25.116295,16.75262 -25.116295,16.75262 0,0 2.02356,-10.49225 -0.91559,-14.41984 -2.93916,-3.92761 -12.12876,-4.70854 -12.12876,-4.70854 0,0 -5.151223,16.79903 -10.376826,25.3071 -5.225603,8.50809 -15.921237,14.97474 -21.149943,24.6966 -5.228702,9.72182 -6.326457,24.1203 -6.326457,24.1203 z"
       id="path28050"
       inkscape:label="hand-outline"
       sodipodi:nodetypes="czzzzczczzcc" /><path
       style="fill:#fee7d5;fill-opacity:1;stroke-width:0.674502;stroke-linecap:round;paint-order:stroke fill markers"
       d="m 53.790224,200.53113 c 7.999505,-11.62433 14.559171,-20.03429 18.106291,-34.82702 0,0 7.76393,-1.0503 8.80854,8.43655 1.0446,9.48685 -17.697193,34.34994 -17.697193,34.34994 z"
       id="path23015"
       sodipodi:nodetypes="cczcc"
       inkscape:label="thumb" /><path
       style="fill:#fee7d5;fill-opacity:1;stroke-width:0.674502;stroke-linecap:round;paint-order:stroke fill markers"
       d="m 55.552151,198.75372 c 6.939286,-4.93256 17.194654,-4.2778 25.712274,-11.86234 8.5176,-7.58453 31.518925,-27.89478 42.278605,-15.87036 10.75969,12.02444 0.38281,26.05199 -10.03187,38.01618 -10.4147,11.96419 -43.665215,20.094 -48.05809,22.2208 -4.392863,2.1268 -5.381633,13.53258 -5.381633,13.53258 l -25.062785,-6.86521 c 0,0 3.619022,-15.81055 5.29563,-21.83175 1.676602,-6.02119 8.308572,-12.40738 15.247869,-17.3399 z"
       id="path23013"
       sodipodi:nodetypes="zzzzzcczz"
       inkscape:label="hand" /><path
       style="fill:#000000;fill-opacity:0.937603;stroke-width:0.674502;stroke-linecap:round;paint-order:stroke fill markers"
       d="m 77.414435,189.74071 c -7.33116,4.36183 -10.511338,4.19803 -17.440834,8.1717 3.449958,-5.40741 13.566164,-7.34134 16.354434,-9.99279 z"
       id="path4933"
       sodipodi:nodetypes="cccc" /></g></svg>
